<svg xmlns="http://www.w3.org/2000/svg" viewBox="0 0 1150 973">
  <desc>Platframe's Frontend Architecture</desc>
  <path fill="#666" d="M303.60352 20.566406v1h151.45312v31h1v-31h110.2168V284.88086h1V21.566406h110.21679v31h1v-31h151.45313v-1H303.60352zm-81.2168 21.566406v15.980469H182.7793v16.982422h-61.94727V103.8125h61.94727v14.98047h-40.60938V135.77539H80.224609v28.71875h61.945311v14.98047H101.5625v16.98047H40.085938V213.4375h1v-15.98242H101.5625v61H40.085938V275.4375h1v-15.98242H101.5625v-.01367h1v.01367h60.47656v15.98242h-39.92773v28.7168h80.84961v-28.7168h-39.92188V258.45508H102.5625v-61h60.47656v15.98242h1V196.45508H102.5625v-15.98047h40.60742v-15.98047h61.94336v-28.71875h-61.94336v-15.98242h40.60938V103.8125h61.94336V75.095703H183.7793V59.113281h39.60742V42.132812h-1zm687.77344 0v15.980469h1V42.132812h-1zm-39.92774 15.982422v28.716797h39.92774V102.8125h1V86.832031h39.92187V58.115234h-80.84961zm1 1h78.84961v26.716797h-78.84961V59.115234zM121.83203 76.095703h122.89063V102.8125H121.83203V76.095703zm333.22461 18.603516v15.980471h-50.3457V127.66211h-90.87891v16.98047h-56.17187v28.71875h56.17187v77.66015h1v-15.98046h114.70703v15.98046h1v-16.98046H314.83203v-29.83985h18.19727v13.85938h98.34179V189.3418H333.0293v13.85937h-18.19727v-29.83984h73.16992v-28.71875h-73.16992v-15.98047h180.75781v15.98047h-80.67187v28.71875h80.67187v15.98047h-48.67187v28.71875h98.33984V189.3418h-48.66797v-15.98047h48.66797v-28.71875h-48.66797v-16.98047h-90.8789v-15.98242h50.3457V94.699219h-1zm222.43359 0v32.962891h-17.94921v16.98047h-39.92579v28.71875h80.84961v-28.71875h-39.92382v-15.98047h56.55859v74.53906H699.9668v1h18.13281v-76.53906h-39.60938V94.699219h-1zm232.66993 37.150391v15.98242H798.98633v16.875h-47.08789v28.71875h47.08789v15.98047h-58.21875v81.90039h18.13281v-1h-17.13281v-43.69922h17.13281v-1h-17.13281v-35.20117h58.21875v-16.98047h47.08398v-28.71875h-47.08398v-15.875h110.17383v15.875h-47.08985v28.71875h47.08985v15.98047h-47.08789v37.20117h38.96679v13.85938h39.42578v15.98047h1V260.4668h40.42383V231.75h-80.84961v13.85742h-37.96679v-35.20117h267.63283v35.20117h-37.9668v-13.85937h-80.8496v28.71875h39.4258v15.98047h1V260.4668h40.4238v-13.85938h38.9668v-36.20117h.0019v-1H911.16016v-15.98047h47.08398v-28.71875h-47.08398v-15.875h141.81644v15.98047h-78.73051v28.7168h158.45901v-28.7168h-78.7285v-16.98047H911.16016v-15.98242h-1zm-828.935551 4.92578H204.11328v26.71875H81.224609v-26.71875zm177.435551 8.86719h128.34179v26.71875H258.66016v-26.71875zm157.25781 0h128.33984v26.71875H415.91797v-26.71875zm204.69726 0h78.84961v26.71875h-78.84961v-26.71875zm132.28321 20.06445h93.17187v26.71875h-93.17187v-26.71875zm111.17187 0h93.17383v26.71875h-93.17383v-26.71875zm111.17578.10547h156.45901v26.7168H975.24609v-26.7168zm-356.13086 23.5293v28.71875h80.84961V189.3418h-80.84961zm-285.08593 1h96.34179v26.71875H334.0293V190.3418zm113.88867 0h96.33984v26.71875h-96.33984V190.3418zm172.19726 0h78.84961v26.71875h-78.84961V190.3418zm393.77347 42.40625h78.8496v26.71875h-78.8496v-26.71875zm-110.84964.00195h78.84961v26.7168h-78.84961V232.75zm-645.3789 18.27344v28.71679h56.17187v15.98047h1v-15.98047h56.16992v-28.71679H257.66016zm128.45703 0v28.71679h43.42187v15.98047h1v-15.98047h43.41992v-28.71679h-87.84179zm-127.45703 1h111.34179v26.71679H258.66016v-26.71679zm128.45703 0h85.84179v26.71679h-85.84179v-26.71679zM124.11133 276.4375h78.84961v26.7168h-78.84961v-26.7168zm888.27737.01172v28.7168h80.8496v-28.7168h-80.8496zm1 1h78.8496v26.7168h-78.8496v-26.7168zm-496.61526 1.79687v74.11719h100v-58.48047h-49.80469l-17.01563-15.63672h-33.17968zm1 1h31.78906l17.01562 15.63672h49.19532v56.48047h-98v-72.11719zm-42 35.5586v366.13672H223.38672v-30h-1v31h254.38672V316.80469h30v-1h-31zm151 0v1h30v366.13672h254.38672v-31h-1v30H657.77344V315.80469h-31zm-60.5 47.55859v251.09766h1V363.36328h-1zm-302.80078 36.00977v1h101.29101v-1H263.47266zm687.77148 0v1h101.29296v-1H951.24414zM40.085938 414.39258v15.98047h1v-15.98047h-1zm182.300782 0v15.98047h-80.2168v28.71875h80.2168v15.98047h1V459.0918h80.2168v-28.71875h-80.2168v-15.98047h-1zm182.30273 0v15.98047h1v-15.98047h-1zm323.16797 0v15.98047h1v-15.98047h-1zm182.30274 0v15.98047h-80.2168v28.71875h80.2168v15.98047h1V459.0918h80.21679v-28.71875h-80.21679v-15.98047h-1zm182.46094 0v15.98047h1v-15.98047h-1zm-949.45118 16.98047h159.4336v26.71875h-159.4336v-26.71875zm687.77344 0h159.43359v26.71875H830.94336v-26.71875zM40.085938 459.41016v15.98242H.16015625v28.7168H81.009766V490.0918H182.30273v-1H81.009766v-13.69922H41.085938v-15.98242h-1zm687.771482 0v15.98242h-39.92383v28.7168h80.84961V490.0918h101.29102v-1H768.7832v-13.69922h-39.92578v-15.98242h-1zm310.31448 12.73632v28.7168h54.289v15.98047h1v-15.98047h54.2871v-28.7168h-109.5761zm1 1h107.5761v26.7168h-107.5761v-26.7168zM1.1601562 476.39258H80.009766v26.7168H1.1601562v-26.7168zm687.7734338 0h78.84961v26.7168h-78.84961v-26.7168zm-284.24414 23.83008v15.98242h1v-15.98242h-1zm-182.30273 3.88672v15.98242h-80.2168v13.85742H40.085938v27.27344h1v-26.27344H142.16992v13.85937h161.4336V520.0918h-80.2168v-15.98242h-1zm687.77344 0v15.98242h-80.2168v13.85742H727.85742v27.27344h1v-26.27344h101.08594v13.85937h161.43359V520.0918h-80.21679v-15.98242h-1zm128.01174 12.73632v28.7168h54.289v15.98047h1V545.5625h54.2871v-28.7168h-109.5761zm1 1h107.5761v26.7168h-107.5761v-26.7168zm-896.00198 3.2461h159.4336v26.71679h-159.4336V521.0918zm687.77344 0h159.43359v26.71679H830.94336V521.0918zm-426.25391 24.15039v15.98047h1v-15.98047h-1zm633.48245 16.30273v28.7168h54.289v15.98047h-39.9238v28.71679h39.9238v15.98243h-70.0839v-72.13282h-71.13286v1h70.13286v72.13282h72.0839v-16.98243h39.9258v-28.71679h-39.9258v-15.98047h54.2871v-28.7168h-109.5761zm1 1h107.5761v26.7168h-107.5761v-26.7168zm-928.00198 16.26367v72.13282H41.085938v-15.98047h39.921874v-28.71875H41.085938v-15.98242h-1v15.98242H.15820312v28.71875H40.085938v16.98047h72.083982v-72.13282h70.13281v-1h-71.13281zm152.30274 0v1h70.13086v72.13282h72.08593v-16.98243h39.92383v-28.71679h-39.92383v-15.98242h-1v15.98242h-39.92578v28.71679h39.92578v15.98243h-70.08593v-72.13282h-71.13086zm535.4707 0v72.13282h-70.08594v-15.98243h39.92578v-28.71679h-39.92578v-15.98242h-1v15.98242h-39.92383v28.71679h39.92383v16.98243h72.08594v-72.13282h70.13086v-1h-71.13086zm-576.55664 15.01758v15.98242h1v-15.98242h-1zm687.77344 0v15.98242h1v-15.98242h-1zM1.1582031 607.24219H80.007812v26.71875H1.1582031v-26.71875zm364.6054669 0h78.84961v26.71679h-78.84961v-26.71679zm323.16992 0h78.84961v26.71679h-78.84961v-26.71679zm364.60351 0h78.8496v26.71679h-78.8496v-26.71679zm-487.26366 85.69922v20H222.38672v45.42187h1v-44.42187H910.1582v44.42187h1v-44.42187h.00196v-1H567.27344v-20h-1zm-393.38672 59.78125v74.11718h100v-58.48046h-49.80469l-17.01562-15.63672h-33.17969zm687.77344 0v74.11718h100v-58.48046h-49.80469l-17.01563-15.63672h-33.17968zm-686.77344 1h31.78906l17.01563 15.63672h49.19531v56.48046h-98v-72.11718zm687.77344 0h31.78906l17.01562 15.63672h49.19532v56.48046h-98v-72.11718zm-91.76954 9.64648c-8.13732 0-14.75 6.61268-14.75 14.75 0 8.13731 6.61269 14.75 14.75 14.75s14.75-6.61269 14.75-14.75c0-8.13732-6.61269-14.75-14.75-14.75zm0 1.5c7.32665 0 13.25 5.92334 13.25 13.25 0 7.32665-5.92335 13.25-13.25 13.25s-13.25-5.92335-13.25-13.25c0-7.32666 5.92335-13.25 13.25-13.25zm-547.5039 71.9707v29.78125h254.94922v15.98047h1v-15.98047H574.5v15.98047h-39.92383v28.71875H574.5v15.98047H402.00195V944.2832h-48.55664V973h98.11524v-28.7168h-48.5586v-15.98242h113.33203v15.98242h-48.55859V973h98.11719v-28.7168h-48.5586v-15.98242h115.33204v15.98242h-48.5586V973h98.11719v-28.7168h-48.55859v-15.98242h113.33203v15.98242h1V927.30078H575.5v-15.98047h39.92578v-28.71875H575.5v-15.98047h96.16406v15.98047h-39.92383v28.71875h80.84961v-28.71875h-39.92578v-15.98047H911.1582v-29.78125h-1v28.78125H223.38672v-28.78125h-1zm313.18945 46.76172h78.84961v26.71875h-78.84961v-26.71875zm97.16406 0h78.84961v26.71875h-78.84961v-26.71875zm65.69922 60.95313v28.71875h98.11524v-28.71875h-98.11524zm-343.99414.72851h96.11524V972h-96.11524v-26.7168zm114.33008 0h96.11719V972h-96.11719v-26.7168zm116.33203 0h96.11719V972h-96.11719v-26.7168zm114.33203.27149h96.11524v26.71875h-96.11524v-26.71875z" color="#000" font-family="sans-serif" font-weight="400" overflow="visible" white-space="normal"/>
  <path fill="#808279" d="M142.16992 0v42.132812h161.4336V0h-161.4336zm687.77149 0v42.132812H991.375V0H829.94141zM374.83984 52.566406v42.132813h161.4336V52.566406h-161.4336zm222.4336 0v42.132813h161.43359V52.566406H597.27344zM142.16992 609.80859v42.13282h161.4336v-42.13282h-161.4336zm687.77149 0v42.13282h161.43554v-42.13282H829.94141z" />
  <path fill="#5b85bf" d="M122.95312 213.4375v29.03711h81.16993V213.4375h-81.16993zm564.82032 171.91797v29.03711h81.16797v-29.03711h-81.16797zm182.30078 0v29.03711h81.16992v-29.03711h-81.16992zm182.46098 0v29.03711h81.1699v-29.03711h-81.1699zm-364.76176 45.01758v29.03711h81.16797v-29.03711h-81.16797zm364.76176 0v29.03711h81.1699v-29.03711h-81.1699zm-182.46098 44.69922v29.03711h81.16992v-29.03711h-81.16992zm-182.30078 86.15039v29.03906h81.16797v-29.03906h-81.16797zm182.30078 3.5664v29.03711h81.16992v-29.03711h-81.16992zM537.83594 765.0918a14 14 0 0 0-14 14 14 14 0 0 0 14 14 14 14 0 0 0 14-14 14 14 0 0 0-14-14z" />
  <path fill="#9b634e" d="M0 213.4375v29.03711h81.169922V213.4375H0zm0 171.91797v29.03711h81.169922v-29.03711H0zm182.30078 0v29.03711h81.16992v-29.03711h-81.16992zm182.46289 0v29.03711h81.16797v-29.03711h-81.16797zM0 430.37305v29.03711h81.169922v-29.03711H0zm364.76367 0v29.03711h81.16797v-29.03711h-81.16797zm-.16015 40.8125v29.03711h81.16992v-29.03711h-81.16992zm-182.30274 3.88672v29.03711h81.16992v-29.03711h-81.16992zm182.30274 41.13281v29.03711h81.16992v-29.03711h-81.16992zM0 561.22266v29.03906h81.169922v-29.03906H0zm364.60352 0v29.03906h81.16992v-29.03906h-81.16992zm-182.30274 3.5664v29.03711h81.16992v-29.03711h-81.16992zm271.5332 200.30274a14 14 0 0 0-14 14 14 14 0 0 0 14 14 14 14 0 0 0 14-14 14 14 0 0 0-14-14zm-16.58203 117.50976v29.03906h81.16797v-29.03906h-81.16797z" />
  <path fill="#a08950" d="M870.07422 102.8125v29.03711h81.16992V102.8125h-81.16992zM758.90039 231.58984v29.03711h81.16992v-29.03711h-81.16992zM0 275.4375v29.03711h81.169922V275.4375H0zm758.90039.84961v29.03711h81.16992v-29.03711h-81.16992zm142.47852.16016v29.03711h81.16992v-29.03711h-81.16992zM616.51953 765.0918a14 14 0 0 0-14 14 14 14 0 0 0 14 14 14 14 0 0 0 14-14 14 14 0 0 0-14-14z" />
  <path fill="#666" d="M516.75195 608.82227c-.0123 24.19646-.01172 49.6349-.01172 74.15234 33.12639.00003 65.79216-.01043 100.00586 0 .0962-13.81303.06139-38.66233 0-58.51172-16.83171.0412-35.12789.03254-49.80273.02344-5.61907-5.1398-11.44114-10.4738-16.98633-15.65625-10.54167-.001-22.66342-.00681-33.20508-.00781zM328.4043 764.78125v4.125h45.875v41.75h-41.75v-29.22852h16.54687v16.71875h-12.21094v4.125h16.53907v-25h-25v37.50977h50v-50h-50z"/>
  <g>
    <text x="756.64301" y="816.15009" fill="#777" font-size="32.39770508" font-weight="700" letter-spacing="0" word-spacing="0">
      <tspan x="756.64301" y="816.15009" font-family="Consolas" font-size="16">dir</tspan>
    </text>
    <text x="602.45795" y="816.15009" fill="#777" font-size="32.39770508" font-weight="700" letter-spacing="0" word-spacing="0">
      <tspan x="602.45795" y="816.15009" font-family="Consolas" font-size="16">.js</tspan>
    </text>
    <text x="435.01776" y="816.15009" fill="#777" font-size="32.39770508" font-weight="700" letter-spacing="0" word-spacing="0">
      <tspan x="435.01776" y="816.15009" font-family="Consolas" font-size="16">.pug</tspan>
    </text>
    <path fill="#734e89" d="M314.33203 295.7207a14.518499 14.518499 0 0 0-14.51758 14.51758 14.518499 14.518499 0 0 0 14.51758 14.51953 14.518499 14.518499 0 0 0 14.51758-14.51953 14.518499 14.518499 0 0 0-14.51758-14.51758zm115.70703 0a14.518499 14.518499 0 0 0-14.51758 14.51758 14.518499 14.518499 0 0 0 14.51758 14.51953 14.518499 14.518499 0 0 0 14.51953-14.51953 14.518499 14.518499 0 0 0-14.51953-14.51758zm264.79102 469.14649a14 14 0 0 0-14 14 14 14 0 0 0 14 14 14 14 0 0 0 14-14 14 14 0 0 0-14-14z" />
    <text x="676.0141" y="816.15009" fill="#777" font-size="32.39770508" font-weight="700" letter-spacing="0" word-spacing="0">
      <tspan x="676.0141" y="816.15009" font-family="Consolas" font-size="16">.svg</tspan>
    </text>
    <text x="514.87482" y="816.15009" fill="#777" font-size="32.39770508" font-weight="700" letter-spacing="0" word-spacing="0">
      <tspan x="514.87482" y="816.15009" font-family="Consolas" font-size="16">.styl</tspan>
    </text>
  </g>
  <g letter-spacing="0" word-spacing="0">
    <g fill="#aeb2a4" font-weight="400">
      <text x="542.1485" y="903.34296" font-family="Consolas" font-size="20" transform="translate(-.00000346)">
        <tspan x="542.1485" y="903.34296">assets</tspan>
      </text>
      <text x="655.64581" y="902.81073" font-family="Consolas" font-size="20" transform="translate(-.00000346)">
        <tspan x="655.64581" y="902.81073">*/*</tspan>
      </text>
      <text x="708.89917" y="963.86945" font-family="Consolas" font-size="20" transform="translate(-.00000346)">
        <tspan x="708.89917" y="963.86945">scripts</tspan>
      </text>
      <text x="483.79208" y="963.82062" font-family="Consolas" font-size="20" transform="translate(-.00000346)">
        <tspan x="483.79208" y="963.82062">images</tspan>
      </text>
      <text x="606.08093" y="965.78351" font-family="Consolas" font-size="20" transform="translate(-.00000346)">
        <tspan x="606.08093" y="965.78351">fonts</tspan>
      </text>
      <text x="369.41141" y="963.78156" font-family="Consolas" font-size="20" transform="translate(-.00000346)">
        <tspan x="369.41141" y="963.78156">styles</tspan>
      </text>
      <text x="13.568133" y="627.47101" font-family="Consolas" font-size="20" transform="translate(-.00000346)">
        <tspan x="13.568133" y="627.47101">views</tspan>
      </text>
      <text x="184.22911" y="541.31982" font-family="Consolas" font-size="20" transform="translate(-.00000346)">
        <tspan x="184.22911" y="541.31982">section</tspan>
      </text>
      <text x="162.19786" y="451.60248" font-family="Consolas" font-size="20" transform="translate(-.00000346)">
        <tspan x="162.19786" y="451.60248">sub-section</tspan>
      </text>
      <text x="27.713875" y="601.37115" font-family="Consolas" font-size="20" transform="matrix(1.222 0 0 .81834 -.00000346 0)">
        <tspan x="27.713875" y="601.37115">_</tspan>
      </text>
      <text x="326.08154" y="761.2688" font-family="Consolas" font-size="20" transform="matrix(1.222 0 0 .81834 -.00000346 0)">
        <tspan x="326.08154" y="761.2688">_</tspan>
      </text>
      <text x="701.34094" y="627.47101" font-family="Consolas" font-size="20" transform="translate(-.00000346)">
        <tspan x="701.34094" y="627.47101">views</tspan>
      </text>
      <text x="888.91022" y="761.2688" font-family="Consolas" font-size="20" transform="matrix(1.222 0 0 .81834 -.00000346 0)">
        <tspan x="888.91022" y="761.2688">_</tspan>
      </text>
      <text x="590.5426" y="601.37115" font-family="Consolas" font-size="20" transform="matrix(1.222 0 0 .81834 -.00000346 0)">
        <tspan x="590.5426" y="601.37115">_</tspan>
      </text>
      <text x="1054.8113" y="538.01495" font-family="Consolas" font-size="20" transform="translate(-.00000346)">
        <tspan x="1054.8113" y="538.01495">modules</tspan>
      </text>
      <text x="1054.4695" y="491.41193" font-family="Consolas" font-size="20" transform="translate(-.00000346)">
        <tspan x="1054.4695" y="491.41193">plugins</tspan>
      </text>
      <text x="1049.1716" y="582.71368" font-family="Consolas" font-size="20" transform="translate(-.00000346)">
        <tspan x="1049.1716" y="582.71368">elements</tspan>
      </text>
      <text x="138.81049" y="93.872963" font-family="Consolas" font-size="20" transform="translate(-.00000346)">
        <tspan x="138.81049" y="93.872963">category</tspan>
      </text>
      <text x="93.104332" y="154.6019" font-family="Consolas" font-size="20" transform="translate(-.00000346)">
        <tspan x="93.104332" y="154.6019">component</tspan>
      </text>
      <text x="130.49579" y="294.70276" font-family="Consolas" font-size="20" transform="translate(-.00000346)">
        <tspan x="130.49579" y="294.70276">images</tspan>
      </text>
      <text x="899.84845" y="77.379875" font-family="Consolas" font-size="20" transform="translate(-.00000346)">
        <tspan x="899.84845" y="77.379875">js</tspan>
      </text>
      <text x="888.63263" y="185.93576" font-family="Consolas" font-size="20" transform="translate(-.00000346)">
        <tspan x="888.63263" y="185.93576">libs</tspan>
      </text>
      <text x="988.76855" y="183.84413" font-family="Consolas" font-size="20" transform="matrix(.99875 0 0 1.00126 -.00000346 0)">
        <tspan x="988.76855" y="183.84413">node_modules</tspan>
      </text>
      <text x="1025.2501" y="297.67654" font-family="Consolas" font-size="20" transform="translate(-.00000346)">
        <tspan x="1025.2501" y="297.67654">lib-a</tspan>
      </text>
      <text x="925.87714" y="252.99734" font-family="Consolas" font-size="20" transform="translate(-.00000346)">
        <tspan x="925.87714" y="252.99734">int</tspan>
      </text>
      <text x="273.18845" y="163.90891" font-family="Consolas" font-size="20" transform="translate(-.00000346)">
        <tspan x="273.18845" y="163.90891">subject-a</tspan>
      </text>
      <text x="626.91852" y="165.8718" font-family="Consolas" font-size="20" transform="translate(-.00000346)">
        <tspan x="626.91852" y="165.8718">font-a</tspan>
      </text>
      <text x="626.6402" y="210.57056" font-family="Consolas" font-size="20" transform="translate(-.00000346)">
        <tspan x="626.6402" y="210.57056">font-b</tspan>
      </text>
      <text x="271.11423" y="270.24878" font-family="Consolas" font-size="20" transform="translate(-.00000346)">
        <tspan x="271.11423" y="270.24878">_symbols</tspan>
      </text>
      <text x="397.83713" y="270.33667" font-family="Consolas" font-size="20" transform="translate(-.00000346)">
        <tspan x="397.83713" y="270.33667">_views</tspan>
      </text>
      <text x="458.12012" y="208.65649" font-family="Consolas" font-size="20" transform="translate(-.00000346)">
        <tspan x="458.12012" y="208.65649">_inline</tspan>
      </text>
      <text x="541.59943" y="333.31168" stroke-width="1.31987536" font-family="Consolas" font-size="37.08399963" transform="translate(-.00000346)">
        <tspan x="541.59943" y="333.31168" font-size="30.52400017">src</tspan>
      </text>
      <text x="199.38983" y="806.09515" font-size="42.76093292" transform="translate(-.00000346)">
        <tspan x="199.38983" y="806.09515" font-family="Consolas" font-size="28.157341">dev</tspan>
      </text>
      <text x="887.44446" y="804.70569" stroke-width="1.31987548" font-size="42.76093292" transform="translate(-.00000346)">
        <tspan x="887.44446" y="804.70569" font-family="Consolas" font-size="28.157341">prd</tspan>
      </text>
      <text x="872.00189" y="541.31982" font-family="Consolas" font-size="20" transform="translate(-.00000346)">
        <tspan x="872.00189" y="541.31982">section</tspan>
      </text>
      <text x="849.97064" y="451.60248" font-family="Consolas" font-size="20" transform="translate(-.00000346)">
        <tspan x="849.97064" y="451.60248">sub-section</tspan>
      </text>
      <text x="761.33588" y="185.87717" font-family="Consolas" font-size="20" transform="translate(-.00000346)">
        <tspan x="761.33588" y="185.87717">modules</tspan>
      </text>
      <text x="1036.9952" y="252.71738" font-family="Consolas" font-size="20" transform="translate(-.00000346)">
        <tspan x="1036.9952" y="252.71738">ext</tspan>
      </text>
      <text x="344.46182" y="208.65649" font-family="Consolas" font-size="20" transform="translate(-.00000346)">
        <tspan x="352.46182" y="208.65649">_link</tspan>
      </text>
      <text x="430.16699" y="163.90891" font-family="Consolas" font-size="20" transform="translate(-.00000346)">
        <tspan x="430.16699" y="163.90891">subject-b</tspan>
      </text>
    </g>
    <g fill="#333" font-weight="400">
      <text x="168.95636" y="636.26123" font-family="Consolas" font-size="21.99733162" transform="translate(-.00000346)">
        <tspan x="168.95636" y="636.26123">templates</tspan>
      </text>
      <text x="874.26361" y="636.229" font-family="Consolas" font-size="21.99733162" transform="translate(-.00000346)">
        <tspan x="874.26361" y="636.229">styles</tspan>
      </text>
      <text x="383.19086" y="582.55371" font-family="Consolas" font-size="20" transform="translate(-.00000346)">
        <tspan x="383.19086" y="582.55371">head</tspan>
      </text>
      <text x="382.74164" y="490.57315" font-family="Consolas" font-size="20" transform="translate(-.00000346)">
        <tspan x="382.74164" y="490.57315">body</tspan>
      </text>
      <text x="372.54633" y="537.59369" font-family="Consolas" font-size="20" transform="translate(-.00000346)">
        <tspan x="372.54633" y="537.59369">mixins</tspan>
      </text>
      <text x="12.513446" y="582.6123" font-family="Consolas" font-size="20" transform="translate(-.00000346)">
        <tspan x="12.513446" y="582.6123">index</tspan>
      </text>
      <text x="200.65001" y="585.69025" font-family="Consolas" font-size="20" transform="translate(-.00000346)">
        <tspan x="200.65001" y="585.69025">root</tspan>
      </text>
      <text x="194.81505" y="496.46115" font-family="Consolas" font-size="20" transform="translate(-.00000346)">
        <tspan x="194.81505" y="496.46115">index</tspan>
      </text>
      <text  x="27.713953" y="548.32373" font-family="Consolas" font-size="20" transform="matrix(1.22199 0 0 .81834 -.00000346 0)">
        <tspan x="27.713953" y="548.32373">_</tspan>
      </text>
      <text x="27.713953" y="493.31143" font-family="Consolas" font-size="20" transform="matrix(1.22199 0 0 .81834 -.00000346 0)" >
        <tspan x="27.713953" y="493.31143">_</tspan>
      </text>
      <text x="700.28625" y="582.6123" font-family="Consolas" font-size="20" transform="translate(-.00000346)">
        <tspan x="700.28625" y="582.6123">index</tspan>
      </text>
      <text x="888.42279" y="585.69025" font-family="Consolas" font-size="20" transform="translate(-.00000346)">
        <tspan x="888.42279" y="585.69025">root</tspan>
      </text>
      <text x="194.81505" y="406.7438" font-family="Consolas" font-size="20" transform="translate(-.00000346)">
        <tspan x="194.81505" y="406.7438">index</tspan>
      </text>
      <text x="326.08234" y="548.32373" font-family="Consolas" font-size="20" transform="matrix(1.22199 0 0 .81834 -.00000346 0)" >
        <tspan x="326.08234" y="548.32373">_</tspan>
      </text>
      <text  x="326.08234" y="493.31143" font-family="Consolas" font-size="20" transform="matrix(1.22199 0 0 .81834 -.00000346 0)">
        <tspan x="326.08234" y="493.31143">_</tspan>
      </text>
      <text x="882.58783" y="496.46115" font-family="Consolas" font-size="20" transform="translate(-.00000346)">
        <tspan x="882.58783" y="496.46115">index</tspan>
      </text>
      <text x="881.68372" y="406.74377" font-family="Consolas" font-size="20" transform="translate(-.00000346)">
        <tspan x="881.68372" y="406.74377">index</tspan>
      </text>
      <text  x="888.91235" y="548.32373" font-family="Consolas" font-size="20" transform="matrix(1.22199 0 0 .81834 -.00000346 0)">
        <tspan x="888.91235" y="548.32373">_</tspan>
      </text>
      <text x="888.91235" y="493.31143" font-family="Consolas" font-size="20" transform="matrix(1.22199 0 0 .81834 -.00000346 0)" >
        <tspan x="888.91235" y="493.31143">_</tspan>
      </text>
      <text x="590.54401" y="548.32373" font-family="Consolas" font-size="20" transform="matrix(1.22199 0 0 .81834 -.00000346 0)" >
        <tspan x="590.54401" y="548.32373">_</tspan>
      </text>
      <text  x="590.54401" y="493.31143" font-family="Consolas" font-size="20" transform="matrix(1.22199 0 0 .81834 -.00000346 0)">
        <tspan x="590.54401" y="493.31143">_</tspan>
      </text>
      <text x="162.3871" y="25.980391"  font-size="21.9979229" transform="translate(-.00000346)">
        <tspan x="162.3871" y="25.980391" font-family="Consolas">components</tspan>
      </text>
      <text x="880.45483" y="26.463743"  font-size="21.9979229" transform="translate(-.00000346)">
        <tspan x="880.45483" y="26.463743" font-family="Consolas">logic</tspan>
      </text>
      <text x="25.470524" y="283.22913" font-family="Consolas" font-size="20.00000006" transform="matrix(1.22199 0 0 .81834 -.00000346 0)" writing-mode="lr">
        <tspan x="25.470524" y="283.22913">_</tspan>
      </text>
      <text x="135.46646" y="234.82561" font-family="Consolas" font-size="20" transform="translate(-.00000346)">
        <tspan x="135.46646" y="234.82561">index</tspan>
      </text>
      <text x="25.470524" y="358.99249" font-family="Consolas" font-size="20.00000006" transform="matrix(1.22199 0 0 .81834 -.00000346 0)" writing-mode="lr">
        <tspan x="25.470524" y="358.99249">_</tspan>
      </text>
      <text x="888.42267" y="123.71317" font-family="Consolas" font-size="20" transform="translate(-.00000346)">
        <tspan x="888.42267" y="123.71317">root</tspan>
      </text>
      <text x="419.21323" y="79.030029"  font-size="21.9979229" transform="translate(-.00000346)">
        <tspan x="419.21323" y="79.030029" font-family="Consolas">images</tspan>
      </text>
      <text x="648.19922" y="81.189003"  font-size="21.9979229" transform="translate(-.00000346)">
        <tspan x="648.19922" y="81.189003" font-family="Consolas">fonts</tspan>
      </text>
      <text x="449.76443" y="903.99115" font-family="Consolas" font-size="20" transform="translate(-.00000346)">
        <tspan x="449.76443" y="903.99115">index</tspan>
      </text>
      <text style="line-height:23.17709351px;-inkscape-font-specification:Consolas" x="532.8363" y="665.89148" stroke-width="1.14462888" font-family="Consolas" font-size="37.08335114" transform="translate(-.00000346)">
        <tspan x="532.8363" y="665.89148" font-size="30.52343941">root</tspan>
      </text>
      <text x="794.14355" y="251.01003" font-family="Consolas" font-size="20" transform="translate(-.00000346)">
        <tspan x="794.14355" y="251.01003">a</tspan>
      </text>
      <text x="765.75629" y="297.41614" font-family="Consolas" font-size="20" transform="translate(-.00000346)" writing-mode="lr"/>
      <text x="793.98242" y="300.46466" font-family="Consolas" font-size="20" transform="translate(-.00000346)">
        <tspan x="793.98242" y="300.46466">*</tspan>
      </text>
      <text x="936.46118" y="300.62457" font-family="Consolas" font-size="20" transform="translate(-.00000346)">
        <tspan x="936.46118" y="300.62457">*</tspan>
      </text>
      <text x="395.64603" y="344.2948" stroke-width="1.06902313" font-family="Consolas" font-size="28.02338219" transform="matrix(1.06615 0 0 .93795 -.00000346 0)">
        <tspan x="395.64603" y="344.2948">*</tspan>
      </text>
      <text x="287.11804" y="344.2948" stroke-width="1.06902313" font-family="Consolas" font-size="28.02338219" transform="matrix(1.06615 0 0 .93795 -.00000346 0)">
        <tspan x="287.11804" y="344.2948">*</tspan>
      </text>
    </g>
  </g>
</svg>
