<?xml version="1.0" encoding="utf-8"?>
<svg viewBox="0 0 100 100" height="100" width="100" version="1.1" xmlns="http://www.w3.org/2000/svg">
  <g transform="scale(3.3333333)">
    <path style="fill: rgb(220, 72, 60);" d="M 14.952743,5.4860169e-4 Q 18.971773,-0.0331914 22.505069,2.0092096 q 3.884937,2.2429891 5.894452,6.226568 L 15.974848,7.5834081 Q 13.295807,7.4325006 11.051864,8.8300338 8.8079218,10.227568 7.9536668,12.671142 L 3.3316878,5.5747469 Q 5.4752958,2.9137161 8.5397358,1.4655676 11.604176,0.0174206 14.952743,5.4860169e-4 Z"/>
    <path style="fill: rgb(16, 155, 88);" d="M 2.4446128,6.7791937 8.0877588,17.87604 q 1.205897,2.393896 3.5332962,3.632086 2.327399,1.23819 4.906105,0.753599 l -3.85118,7.549116 Q 9.1258058,29.258765 6.2292158,27.174181 3.3326258,25.089598 1.6663128,21.884926 -2.1826606e-7,18.680254 -2.1826606e-7,14.997553 q 0,-4.469107 2.44461301826606,-8.2183593 z"/>
    <path style="fill: rgb(255, 205, 64);" d="m 29.00247,9.6080036 q 0.971469,2.5110614 0.996787,5.1973994 0.02532,2.686338 -0.812058,5.121477 -0.837376,2.435138 -2.561827,4.552527 -1.724451,2.11739 -4.119365,3.506487 -3.85118,2.226118 -8.339066,1.991789 L 20.948468,19.55008 q 1.473145,-2.192375 1.381249,-4.862779 -0.0919,-2.670403 -1.783527,-4.644384 z"/>
    <path style="fill: rgb(71, 136, 244);" d="m 15.003379,9.9426243 q 2.092972,0 3.575493,1.4809547 1.482521,1.480954 1.481584,3.573974 -9.38e-4,2.093019 -1.481584,3.573972 -1.480646,1.480954 -3.575493,1.480954 -2.094847,0 -3.575493,-1.480954 -1.4806452,-1.480953 -1.4815832,-3.573972 -9.38e-4,-2.09302 1.4815832,-3.573974 1.482522,-1.4809547 3.575493,-1.4809547 z"/>
  </g>
</svg>
