<?xml version="1.0" encoding="utf-8"?>
<svg viewBox="0 0 100 96.945648" height="96.945648" width="100" version="1.1" xmlns="http://www.w3.org/2000/svg">
  <path d="M 50.386 96.943 C 39.856 96.943 30.47 94.142 22.23 88.542 C 13.989 82.941 7.859 75.528 3.84 66.301 C 1.681 61.428 0.435 55.828 0.102 49.503 C -0.231 43.177 0.252 36.991 1.552 30.944 C 2.852 24.898 4.917 19.094 7.747 13.533 C 10.576 7.972 13.906 3.461 17.735 0 L 17.123 15.683 C 17.531 15.162 18.796 14.874 20.917 14.817 C 23.038 14.761 24.34 15.05 24.824 15.683 C 26.386 12.67 29.372 10.103 33.781 7.982 C 38.19 5.861 42.553 4.763 46.87 4.688 C 44.861 6.363 42.638 9.126 40.2 12.977 C 37.763 16.827 36.674 19.869 36.934 22.103 C 37.864 22.401 39.026 22.652 40.422 22.856 C 41.818 23.06 42.99 23.2 43.938 23.275 C 44.886 23.35 46.151 23.424 47.733 23.496 C 49.314 23.569 50.254 23.626 50.552 23.665 C 51.11 23.851 51.287 24.698 51.083 26.206 C 50.879 27.715 50.311 29.119 49.38 30.419 C 49.194 30.68 48.887 31.023 48.458 31.451 C 48.028 31.878 46.977 32.538 45.304 33.432 C 43.631 34.326 41.752 34.958 39.666 35.329 L 40.504 45.877 L 32.746 42.139 C 32.078 43.739 31.938 45.255 32.328 46.687 C 32.717 48.118 33.387 49.356 34.337 50.4 C 35.287 51.443 36.506 52.215 37.994 52.715 C 39.482 53.216 40.988 53.336 42.513 53.078 C 44.411 52.743 46.234 52.101 47.983 51.153 C 49.731 50.205 51.284 49.367 52.643 48.64 C 54.001 47.913 55.369 47.587 56.746 47.662 C 59.015 47.81 60.68 48.423 61.74 49.503 C 62.801 50.582 63.164 51.791 62.828 53.131 C 62.791 53.206 62.744 53.308 62.687 53.437 C 62.631 53.567 62.473 53.799 62.212 54.134 C 61.952 54.47 61.618 54.758 61.209 55 C 60.801 55.242 60.214 55.438 59.45 55.588 C 58.685 55.738 57.82 55.756 56.856 55.644 C 54.624 59.178 51.936 61.699 48.792 63.207 C 45.648 64.716 41.751 65.265 37.1 64.854 C 39.853 67.123 42.876 68.658 46.17 69.458 C 49.464 70.258 52.599 70.37 55.574 69.792 C 58.549 69.215 61.424 68.248 64.197 66.889 C 66.97 65.531 69.352 63.902 71.342 62.004 C 73.331 60.106 74.829 58.171 75.836 56.2 C 77.436 52.814 78.161 49.233 78.011 45.455 C 77.861 41.678 77.163 38.171 75.917 34.935 C 74.671 31.7 73.211 29.374 71.535 27.96 C 74.773 29.374 77.321 30.854 79.18 32.398 C 81.039 33.941 82.471 36.034 83.477 38.676 C 84.036 32.351 82.966 25.97 80.268 19.534 C 77.569 13.097 73.672 7.814 68.576 3.685 C 78.435 6.55 86.1 11.749 91.569 19.284 C 97.038 26.818 99.847 36.445 99.995 48.165 C 100.07 52.891 99.317 57.635 97.735 62.398 C 96.154 67.161 93.857 71.589 90.844 75.681 C 87.831 79.773 84.315 83.419 80.296 86.619 C 76.277 89.82 71.672 92.341 66.482 94.183 C 61.291 96.025 55.924 96.946 50.38 96.946 Z"/>
</svg>
