<?xml version="1.0" encoding="utf-8"?>
<svg viewBox="0 0 100 100" height="100" width="100" version="1.1" xmlns="http://www.w3.org/2000/svg">
  <path d="M 83.315106,12.721886 Q 74.108569,6.5843859 63.280102,6.5843859 q -8.65027,0 -16.35051,4.0750001 -7.70024,4.074999 -13.394168,11.159374 -4.184507,5.190624 -6.668957,12.165623 -2.484452,6.974998 -2.706336,14.843747 v 2.34375 q 0.2219,7.86875 2.706337,14.84375 2.484449,6.974998 6.668956,12.165624 5.6908,7.0875 13.394168,11.15937 7.703367,4.071877 16.35051,4.075004 10.82534,0 20.035004,-6.1375 -6.753337,6.028123 -15.319231,9.374999 Q 59.429982,100 49.998438,100 q -1.6188,0 -2.400076,-0.05627 Q 37.832431,99.496864 29.016534,95.368741 20.200634,91.240615 13.837933,84.599987 7.4752335,77.959367 3.7376168,68.918741 0,59.878117 0,49.999994 0,39.843743 3.9626235,30.581246 7.925247,21.318747 14.622334,14.621872 21.319417,7.9249982 30.582208,3.9624978 39.844994,-1.5e-6 50.001562,-1.5e-6 h 0.168766 q 9.375294,0.056245 17.884934,3.3749996 8.509644,3.3187499 15.262977,9.3468739 z M 100,50.000007 q 0,10.715624 -4.297007,20.22812 -4.29701,9.512501 -11.88787,16.546878 -5.803307,3.51562 -12.387891,3.51562 -7.643986,0 -14.231693,-4.687497 8.594016,-3.124999 14.147317,-13.003124 5.5533,-9.878124 5.5533,-22.599997 0,-12.66875 -5.525174,-22.543748 -5.525173,-9.874999 -14.119194,-13.059374 6.640834,-4.6312489 14.175444,-4.6312489 6.640833,0 12.612898,3.6281239 7.53461,6.975 11.747239,16.462499 Q 100,39.343757 100,50.000007 Z"/>
</svg>
