<?xml version="1.0" encoding="utf-8"?>
<svg viewBox="0 0 100 100" height="100" width="100" version="1.1" xmlns="http://www.w3.org/2000/svg">
  <g>
    <path style="fill: rgb(255, 79, 80);" d="m 73.324999,20.646875 -28.188759,25.604441 9.225489,7.15822 z"/>
    <path d="M 50.000009,8.0000001e-7 C 43.229169,8.0000001e-7 36.757039,1.3212248 30.582039,3.9628918 24.407039,6.6045588 19.085682,10.156513 14.621102,14.621095 10.156512,19.085679 6.6045615,24.407033 3.9628915,30.582034 1.3212315,36.757035 1.5e-6,43.22917 1.5e-6,50.000004 c 0,6.770833 1.32123,13.242967 3.96289,19.417969 2.64167,6.175 6.1936205,11.496356 10.6582105,15.960937 4.46458,4.464589 9.785937,8.016539 15.960937,10.658199 6.175,2.64167 12.64713,3.96289 19.41797,3.96289 6.77083,0 13.24297,-1.32122 19.41797,-3.96289 6.174999,-2.64166 11.49635,-6.19361 15.960929,-10.658199 4.464591,-4.464581 8.01654,-9.785937 10.658211,-15.960937 2.641659,-6.175002 3.96288,-12.647136 3.96288,-19.417969 0,-6.770834 -1.32122,-13.242969 -3.96288,-19.41797 C 93.395448,24.407033 89.843499,19.085679 85.378909,14.621095 80.914329,10.156513 75.592979,6.6045588 69.417979,3.9628918 63.242979,1.3212248 56.770839,8e-7 50.000009,8.0000001e-7 Z M 49.996009,5.3535168 c 6.06458,0 11.851169,1.180469 17.35742,3.542969 5.506249,2.3625002 10.24922,5.5343752 14.23047,9.5156252 3.98125,3.981252 7.15312,8.726173 9.51562,14.232423 2.362499,5.506251 3.54493,11.290887 3.54493,17.35547 0,6.064584 -1.182431,11.84922 -3.54493,17.355469 -2.3625,5.506251 -5.534371,10.251174 -9.51562,14.232423 -3.981251,3.98125 -8.724221,7.153123 -14.23047,9.515623 -5.50625,2.3625 -11.29284,3.54297 -17.35742,3.54297 -6.06459,0 -11.849221,-1.18047 -17.35547,-3.54297 -5.50621,-2.3625 -10.24918,-5.534373 -14.230428,-9.515623 -3.98125,-3.981249 -7.15313,-8.726172 -9.5156295,-14.232423 -2.3625,-5.506249 -3.54492,-11.290885 -3.54492,-17.355469 0,-6.064583 1.18242,-11.849219 3.54492,-17.35547 2.3624995,-5.50625 5.5343795,-10.251171 9.5156295,-14.232423 3.981247,-3.98125 8.724217,-7.153125 14.230468,-9.5156252 5.506249,-2.3625 11.29088,-3.542969 17.355469,-3.542969 z m 0.004,4.7460942 c -2.34375,0 -4.83685,0.241276 -7.47852,0.72461 l 0.83789,3.685546 c 0.0861,0.464777 -0.0346,0.74216 -0.55859,0.892578 -0.48334,0 -0.7629,-0.185677 -0.83789,-0.558594 l -0.83789,-3.73828 c -4.91042,1.116665 -9.44857,3.108072 -13.61524,5.972656 -4.16667,2.864584 -7.682287,6.380209 -10.546868,10.546875 1.437831,0.786704 3.34288,1.765086 3.720698,2.392579 0,0.445834 -0.336978,1.009766 -0.820307,1.009766 -1.27801,-0.431027 -2.81536,-1.584667 -3.685551,-2.173828 -4.05417,6.435416 -6.080079,13.485808 -6.080079,21.150391 0,2.491666 0.260419,5.076692 0.78125,7.755859 l 3.792969,-0.83789 c 0.584051,-0.103125 0.744111,0.03461 0.894531,0.558594 0,0.445822 -0.18763,0.725378 -0.560551,0.837889 l -3.84961,0.837891 c 1.15209,4.910417 3.197141,9.459115 6.13672,13.644532 2.93959,4.185417 6.512627,7.671354 10.716797,10.460938 0.88551,-1.49435 2.11075,-3.662623 2.77734,-3.994141 0.48334,0 0.90625,0.217839 0.90625,0.701172 -0.01,0.589806 -1.66093,2.748363 -2.45507,4.072266 6.43541,3.906249 13.35364,5.859379 20.75781,5.859379 2.75208,0 5.46927,-0.27957 8.14844,-0.83789 l -0.89453,-3.792974 c -0.16302,-0.461269 0.0594,-0.698341 0.55859,-0.83789 0.52082,0 0.80038,0.185678 0.83789,0.558593 l 0.89453,3.738281 c 4.87292,-1.18958 9.36602,-3.245181 13.47852,-6.166014 4.1125,-2.920833 7.54479,-6.464193 10.29687,-10.63086 -2.19583,-1.264585 -3.35547,-1.974739 -3.35547,-2.347657 0,-0.483333 0.30183,-0.833984 0.78516,-0.833984 1.23222,0.53277 2.275391,1.253428 3.35156,1.953126 3.86875,-6.325 5.80274,-13.226044 5.80274,-20.703126 0,-2.529167 -0.26041,-5.133334 -0.78125,-7.812501 l -3.18164,0.724609 c -0.42546,0.0069 -0.68631,-0.01121 -0.83789,-0.558593 0,-0.520833 0.18763,-0.819534 0.56054,-0.894532 l 3.125,-0.667968 c -1.154159,-4.8375 -3.154159,-9.322004 -6,-13.451172 -2.84583,-4.129167 -6.33372,-7.587371 -10.46289,-10.376954 -1.37708,2.38125 -2.2694,3.572266 -2.67773,3.572266 -0.445839,0 -0.66992,-0.24323 -0.66992,-0.726562 0,-0.335418 0.725781,-1.543621 2.17578,-3.626954 -6.51042,-4.054167 -13.560809,-6.082032 -21.150389,-6.082032 z m 23.32422,10.546876 -19.531261,32.421875 c -4.94341,5.314425 -11.22284,10.551827 -16.908199,16.099611 -2.45625,2.287499 -4.8,4.454166 -7.03125,6.5 -2.23125,2.045833 -3.477861,3.200521 -3.73828,3.460937 l 19.47461,-32.367188 c 0.112499,-0.225 1.05365,-1.183332 2.82031,-2.875 7.02483,-6.722323 13.62363,-12.721306 21.14844,-19.751953 2.174999,-2.027084 3.43021,-3.190365 3.76563,-3.488282 z" style="fill: rgb(5, 130, 218);"/>
  </g>
</svg>
