<?xml version="1.0" encoding="utf-8"?>
<svg width="100" height="100" viewBox="0 0 100 100" version="1.1" xmlns="http://www.w3.org/2000/svg">
  <path style="fill:#737373;" d="m 45.800781,0 v 37.498047 0.0078 H 33.796875 V 62.5 H 45.800781 V 100 h 1 c 0,-12.832682 0,-25.665365 0,-38.498047 C 42.803787,61.498053 38.79732,61.5 34.796875,61.5 V 38.503906 h 12.003906 c 0,-12.834635 0,-25.669271 0,-38.503906 z"/>
  <path style="fill:#d66955;" d="m 65.203125,26.556641 v 11.972656 c -3.994614,0.0081 -8.003235,0.0059 -12.003906,0.0059 v 22.917969 h 12.003906 v 11.894531 h 1 c 0,-4.297526 0,-8.595052 0,-12.892578 -3.996994,-0.0039 -8.003462,-0.0039 -12.003906,-0.0039 V 39.535156 h 12.003906 c 0,-4.326172 0,-8.652343 0,-12.978515 z"/>
</svg>
