<?xml version="1.0" encoding="utf-8"?>
<svg version="1.1" viewBox="0 0 100 100" height="100" width="100" xmlns="http://www.w3.org/2000/svg">
  <g transform="matrix(0.29151903,0,0,0.29151903,12.660922,1.2995485e-5)">
    <path fill="#FBA919" d="m 17.297408,83.373056 c 0,0 5.874688,22.658044 6.71232,30.212094 0.840704,7.552 -15.105024,24.33536 -15.105024,32.72807 0,8.3927 3.352576,23.49772 21.817344,31.05177 18.464768,7.55303 20.979712,26.85338 20.979712,38.6048 0,11.74835 -6.71232,34.40435 -6.71232,34.40435 0,0 -4.194304,56.2258 18.461696,66.29581 22.656,10.06899 17.62304,10.06899 22.656,10.06899 5.033984,0 41.960444,15.10912 63.777794,9.23444 21.81939,-5.87469 27.68998,-12.58701 27.68998,-12.58701 0,0 21.82144,1.67629 28.53376,-17.62714 6.71642,-19.29933 10.9097,-59.57939 8.39168,-78.04313 -2.51801,-18.46477 -5.87366,-42.79706 9.23034,-51.19079 15.10912,-8.3927 31.05177,-18.45965 28.53376,-26.85337 -2.51802,-8.39271 -15.94163,-20.14208 -15.94163,-20.14208 0,0 -3.3577,-20.97767 -0.84173,-26.0137 2.51597,-5.035008 17.62304,-17.626112 9.23033,-26.855424 C 236.32384,67.4304 221.2137,67.4304 221.2137,67.4304 l -19.29933,1.676288 c 0,0 -32.72807,-29.370368 -75.52717,-27.692032 -42.797056,1.678336 -69.653504,27.692032 -69.653504,27.692032 0,0 -14.26432,-5.035008 -26.853376,0 -12.589056,5.037056 -15.09888,-0.001 -12.582912,14.266368 z"/>
    <path fill="#E78724" d="m 93.9776,208.31949 c 0,0 -16.618496,25.41056 -28.808192,43.4432 -1.886208,2.78937 12.189696,2.98291 12.189696,2.98291 z"/>
    <path fill="#E78724" d="m 101.89005,155.63674 c 0,0 -5.00941,12.49792 -7.75373,19.1232 -2.978816,7.20281 -14.336,10.78579 -14.336,10.78579 0,0 5.886976,-6.17472 5.886976,-21.81735 0,-6.56281 8.472576,-9.17196 8.472576,-9.17196 z" />
    <path fill="#E78724" d="m 96.82944,162.70336 c 0,0 -10.263552,12.21734 -29.320192,5.37498 -19.060736,-6.84032 -21.014528,-31.27808 -21.014528,-38.12045 0,-6.84237 36.164608,6.84237 41.053184,9.7751 4.888576,2.93274 14.168066,14.66061 9.281536,22.97037 z"/>
    <path fill="#E78724" d="m 24.843264,32.152576 c 0,0 17.59232,-3.423232 29.320192,5.863424 11.732992,9.284608 15.149056,16.617472 15.149056,16.617472 l -19.76832,15.670272 c 0,0 -9.551872,-4.4288 -12.484608,-17.13664 -2.931712,-12.706816 -0.976896,-18.57024 -12.21632,-21.014528 z"/>
    <path fill="#E78724" d="m 91.698176,127.41325 c -7.574528,-10.752 -20.057088,-15.44192 -30.02368,-16.21914 -16.994304,-1.32915 -25.0624,4.67866 -25.0624,4.67866 0,0 27.83232,1.17862 35.854336,11.71456 14.934016,19.6096 36.720638,21.20294 40.204288,16.896 -4.02842,0.2007 -8.46029,-1.79507 -13.203456,-6.28019 -2.963456,-2.80576 -5.36576,-7.3769 -7.769088,-10.78989 z"/>
    <path fill="#E78724" d="m 44.713984,165.4313 c 0,0 -30.880768,-10.61581 -25.0112,-21.36576 5.863424,-10.75303 1.196032,-16.61133 1.196032,-16.61133 0,0 -17.243136,12.87168 -12.849152,26.55437 2.700288,8.39884 7.230464,14.47936 32.106496,26.1376 11.931648,22.16243 2.463744,62.0544 3.03104,62.24179 0.945152,0.31437 16.75264,-7.81312 15.673344,-45.13485 -0.328704,-11.46061 -1.245184,-27.1063 -14.14656,-31.82182 z"/>
    <path fill="#E78724" d="m 85.180416,51.275776 c -12.94848,6.578176 -30.687232,15.73888 -30.687232,15.73888 l 6.981632,3.492864 c -0.666624,1.079296 -0.98816,1.723392 -0.98816,1.723392 l 7.165952,3.258368 c 0,0 17.492992,12.672 28.2112,20.818944 C 92.290048,85.30432 81.800192,68.017152 81.800192,68.017152 c 0,0 -2.972672,-7.943168 3.380224,-16.741376 z"/>
    <path fill="#E78724" d="m 128.19558,319.42042 c -39.79878,0 -53.27974,-20.20455 -53.27974,-20.20455 l 6.219776,15.14599 c 2.351104,6.55257 27.430914,26.94246 46.999554,26.94246"/>
    <path fill="#E78724" d="m 79.277056,285.5639 c 0,0 3.661824,22.3785 18.323456,22.3785 12.459008,0 16.130048,-18.90304 16.130048,-22.8096 z"/>
    <path fill="#E78724" d="m 54.878208,251.81389 c 1.302528,-3.58605 5.863424,-18.08384 7.328768,-31.27808 1.75616,-15.80237 1.11616,-38.91507 1.11616,-38.91507 0,0 -3.91168,15.15008 -7.332864,17.59846 -3.419136,2.44224 -9.77408,19.05664 -9.77408,19.05664 0,0 -3.403776,24.73574 -5.023744,33.0496 4.483072,0.89805 8.257536,-1.74387 13.68576,0.48845 z" />
    <path fill="#E78724" d="m 19.472384,153.76589 c 0,0 8.305664,-2.93479 10.752,-21.01453 2.44224,-18.08384 -2.934784,-33.722368 -2.934784,-33.722368 0,0 0.488448,24.924158 -2.44224,29.812738 -2.934784,4.8855 -5.374976,6.35187 -8.798208,12.70681 -3.423232,6.35597 1.465344,10.26151 3.423232,12.21735 z" />
    <path fill="#FDC168" d="M 29.389824,36.429824 27.69408,35.355648 c -5.000192,0.16896 1.695744,1.074176 1.695744,1.074176 z" />
    <path fill="#FBA919" d="m 91.940864,45.922304 c 0,0 -7.817216,-1.302528 -11.728896,-7.165952 C 76.300288,32.89088 65.224704,21.159936 47.567872,21.028864 29.912064,20.896768 12.443648,25.721856 12.443648,25.721856 l 15.248384,9.634816 c 1.6128,-0.05222 4.432896,-0.03072 9.096192,0.124928 19.136512,0.635904 22.08256,19.564544 22.08256,19.564544 l 67.442686,-9.286656" />
    <path fill="#FFFFFF" d="m 98.458624,150.46861 c 0,0 -9.12384,9.12384 -23.135232,6.18905 C 61.312,153.72698 52.839424,147.53587 52.18816,136.78285 c -0.651264,-10.752 2.934784,-14.98727 2.934784,-14.98727 0,0 15.637504,4.89063 23.135232,11.40736 7.493632,6.51469 13.031424,16.94106 20.200448,17.26567 z" />
    <path fill="#C9C9C9" d="m 87.416832,147.20922 c 0,0 -7.912448,3.61472 -16.756736,0.67072 -11.577344,-3.86151 -12.348416,-15.9017 -12.348416,-15.9017 0,0 -7.102464,20.8425 12.81024,24.85453 15.971328,3.21741 25.416704,-6.03751 25.416704,-6.03751 z" />
    <path fill="#463014" d="M 93.039616,41.500672 C 92.188672,23.625728 106.84211,9.389056 111.9191,8.782848 c 0.28058,3.028992 -0.28262,14.843904 4.79335,18.477056 C 118.19008,17.609728 123.1872,6.970368 142.91968,0 c -4.22605,11.208704 -0.56422,20.59776 1.17965,24.94976 13.47481,-12.230656 22.5536,-10.20928 22.5536,-10.20928 0,0 -9.36243,16.155648 -5.70061,26.756096 -27.04998,-2.120704 -67.780608,2.874368 -67.912704,0.0041 v 0 z" />
    <path fill="#463014" d="M 35.693568,68.727808 C 29.239296,63.373312 34.050048,58.40384 33.540096,52.320256 33.262592,49.083392 33.006592,46.0288 31.939584,44.34432 26.000384,34.965504 11.988992,32.119808 11.848704,32.090112 L 5.272576,30.80192 9.6256,25.709568 c 0.564224,-0.659456 18.441216,-17.716224 46.1056,-8.784896 19.351552,6.24128 33.677312,27.405312 34.210816,28.260352 l -9.703424,4.562944 C 80.124928,49.567744 68.799488,29.674496 52.197376,24.321024 38.776832,19.990528 26.407936,24.11008 21.10976,26.810368 c 5.632,2.248704 12.995584,6.34368 17.432576,13.348864 2.093056,3.308544 2.446336,7.474176 2.787328,11.507712 0.449536,5.34016 0.8704,10.381312 4.800512,13.645824 z" />
    <path fill="#463014" d="m 18.455552,146.8928 c 0,0 8.131584,-10.08333 10.540032,-29.70419 0.946176,-7.72813 -0.734208,-22.971394 -3.423232,-28.835842 0.488448,14.416892 -3.176448,28.835842 -3.176448,28.835842 0,0 -2.470912,26.77145 -3.940352,29.70419 z" />
    <path fill="#463014" d="m 61.333504,58.544128 c -0.0041,-0.0215 -2.609152,-11.405312 -9.831424,-17.152 C 41.314304,33.288192 28.874752,37.599232 28.754944,37.63712 L 26.948608,32.057344 C 27.55072,31.86176 41.76896,27.38176 54.872064,36.59264 68.054016,45.855744 69.636096,54.252544 69.773312,55.180288 Z" />
    <path fill="#463014" d="m 43.995136,139.66131 c 0,0 -4.265984,-6.10713 -3.499008,-12.82355 0.381952,-3.31674 1.918976,-6.72154 4.663296,-7.92986 5.09952,-2.24051 7.359488,3.53997 7.359488,3.53997 0,0 -7.177216,1.77152 -8.523776,17.21344 z" />
    <path fill="#463014" d="m 90.835968,148.96947 c 0.178176,0.3328 0.269312,0.51917 0.269312,0.51917 0,0 -13.305856,9.98605 -26.942464,-0.14746 -7.299072,-5.42924 -6.60992,-18.859 -4.373504,-24.55449 5.815296,1.31789 10.747904,3.69357 14.870528,6.46758 -5.210112,-4.64998 -9.771008,-8.07321 -9.75872,-8.15206 l -5.921792,-1.67629 -11.50976,-3.9465 c -0.147456,0.87757 -4.345856,20.55578 7.77216,33.96404 5.37088,5.94534 30.55104,19.25939 42.50624,-3.50618 z" />
    <path fill="#463014" d="m 89.58976,150.43277 c 7.491584,11.40224 26.3936,4.88653 26.06797,-7.168 0,0 -12.63002,6.97037 -23.788546,-5.86343 -6.514688,-7.4926 -27.389952,-28.1518 -55.699456,-21.28588 19.550208,4.29875 45.431808,22.16038 53.420032,34.31731 z" />
    <path fill="#463014" d="m 33.524736,182.61299 c 1.80224,1.04141 8.158208,7.62368 8.162304,17.46842 0,4.9367 -0.49152,29.73696 -2.934784,44.88806 3.675136,2.38797 6.235136,2.89587 9.894912,5.32992 1.831936,-17.54726 3.145728,-42.97933 2.533376,-53.24595 -0.700416,-11.7033 -6.966272,-19.55738 -12.777472,-22.90688 -1.819648,-1.04653 -3.721216,-2.07565 -5.636096,-3.11091 -9.95328,-5.37805 -20.245504,-10.94144 -20.245504,-20.44109 0,-7.43117 2.888704,-9.75565 5.947392,-12.21939 l 0.329728,-0.26727 c 2.029568,-1.63942 4.3264,-3.499 5.687296,-6.55257 3.713024,-8.34867 4.320256,-29.61511 0,-35.013634 -2.153472,-2.690048 -7.923712,-11.736064 -6.264832,-17.814528 0.631808,-2.320384 2.093056,-4.03968 4.471808,-5.25824 2.516992,-1.289216 5.917696,-1.942528 10.103808,-1.942528 8.22272,0 17.342464,2.502656 22.047744,3.992576 16.813056,5.328896 37.100544,20.692992 42.91584,25.275394 0.166912,0.128 0.265216,0.20275 0.282624,0.21504 l 3.72122,2.58765 -2.327556,-3.894276 C 99.293184,99.460096 84.553728,75.224064 58.19904,66.337792 53.071872,64.60928 42.998784,61.708288 33.099776,61.708288 c -5.894144,0 -10.89536,1.02912 -14.855168,3.05664 -4.826112,2.468864 -8.09472,6.408192 -9.452544,11.387904 -3.328,12.207104 7.51104,25.798658 7.880704,26.232828 1.263616,2.25588 1.799168,18.64295 -1.120256,25.20167 -0.401408,0.90521 -1.502208,1.79507 -2.895872,2.91942 -0.436224,0.35328 -0.924672,0.71987 -1.441792,1.11207 -4.118528,3.10886 -10.346496,7.80595 -10.346496,18.6327 0,14.81421 15.013888,22.84646 27.07968,29.30483 1.979392,1.06496 3.868672,2.07258 5.576704,3.05664 z" />
    <path fill="#463014" d="M 35.693568,68.727808 C 29.239296,63.373312 34.050048,58.40384 33.540096,52.320256 33.262592,49.083392 33.006592,46.0288 31.939584,44.34432 26.000384,34.965504 11.988992,32.119808 11.848704,32.090112 L 5.272576,30.80192 9.6256,25.709568 c 0.564224,-0.659456 18.441216,-17.716224 46.1056,-8.784896 19.351552,6.24128 33.677312,27.405312 34.210816,28.260352 l -9.703424,4.562944 C 80.124928,49.567744 68.799488,29.674496 52.197376,24.321024 38.776832,19.990528 26.407936,24.11008 21.10976,26.810368 c 5.632,2.248704 12.995584,6.34368 17.432576,13.348864 2.093056,3.308544 2.446336,7.474176 2.787328,11.507712 0.449536,5.34016 0.8704,10.381312 4.800512,13.645824 z" />
    <path fill="#463014" d="M 35.483648,69.824512 35.06688,69.479424 c -4.786176,-3.972096 -3.93728,-7.8848 -3.115008,-11.670528 0.37376,-1.746944 0.768,-3.55328 0.608256,-5.405696 -0.26112,-3.115008 -0.512,-6.053888 -1.449984,-7.537664 C 25.454592,35.936256 11.787264,33.0752 11.652096,33.047552 L 3.438592,31.4368 8.8832,25.071616 c 0.099328,-0.118784 11.577344,-11.705344 31.01696,-11.705344 5.2992,0 10.728448,0.881664 16.130048,2.62656 20.197376,6.51264 34.60608,28.455936 34.742272,28.673024 l 0.582656,0.93184 -11.478016,5.398528 -0.4608,-0.731136 C 78.181376,48.159744 67.298304,30.212096 51.902464,25.245696 48.120832,24.025088 44.137472,23.40864 40.065024,23.40864 c -7.375872,0 -13.357056,2.010112 -16.539648,3.359744 5.318656,2.395136 11.768832,6.426624 15.850496,12.863488 2.219008,3.506176 2.578432,7.791616 2.930688,11.931648 0.432128,5.148672 0.840704,9.990144 4.452352,12.988416 l 1.362944,1.130496 z" />
    <path fill="#463014" d="m 61.333504,58.544128 c -0.0041,-0.0215 -2.609152,-11.405312 -9.831424,-17.152 C 41.314304,33.288192 28.874752,37.599232 28.754944,37.63712 L 26.948608,32.057344 C 27.55072,31.86176 41.76896,27.38176 54.872064,36.59264 68.054016,45.855744 69.636096,54.252544 69.773312,55.180288 Z" />
    <path fill="#463014" d="m 60.633088,59.875328 -0.253952,-1.120256 c -0.02662,-0.109568 -2.581504,-11.104256 -9.488384,-16.595968 -3.936256,-3.134464 -8.68352,-4.72576 -14.101504,-4.72576 -4.22912,0 -7.371776,1.009664 -7.714816,1.128448 l -0.933888,0.310272 -2.422784,-7.443456 0.928768,-0.300032 c 0.416768,-0.132096 4.190208,-1.308672 9.52832,-1.308672 7.042048,0 13.700096,2.066432 19.262464,5.971968 13.51168,9.495552 15.161344,18.276352 15.302656,19.245056 l 0.118784,0.765952 z M 36.790272,35.4816 c 5.787648,0 11.088896,1.779712 15.320064,5.144576 6.132736,4.88448 9.017344,13.507584 9.889792,16.59904 l 6.647808,-2.649088 c -0.602112,-2.347008 -3.252224,-9.391104 -14.336,-17.18272 -5.303296,-3.72736 -11.403264,-5.615616 -18.136064,-5.615616 -3.694592,0 -6.564864,0.587776 -7.983104,0.946176 l 1.199104,3.705856 c 1.390592,-0.37376 4.066304,-0.948224 7.3984,-0.948224 z" />
    <path fill="#463014" d="m 96.98816,302.57357 v 0 c -2.88768,0 -5.834752,-1.04755 -7.877632,-2.816 -1.563648,-1.34759 -6.851584,-6.20442 -9.183232,-12.15488 -0.8704,-2.22515 -0.674816,-4.00487 0.587776,-5.28589 0.8704,-0.87757 2.676736,-1.92717 6.34368,-1.92717 l 2.609152,-0.004 c 3.108864,-0.003 8.343552,-0.003 12.817406,-0.003 h 4.28954 c 2.78937,0 4.78925,0.60314 5.9392,1.77869 1.47661,1.51757 1.00352,3.44781 0.59085,4.46362 -0.71885,1.77971 -3.69357,7.57145 -8.7296,12.95565 -1.80327,1.92921 -4.42778,2.99315 -7.38714,2.99315 v 0 z" />
    <path fill="#463014" d="m 100.0151,151.10349 -10.426364,-0.67072 c 0,0 2.665472,4.69811 4.391936,10.77453 1.949696,6.87308 -1.782784,16.9175 -1.782784,16.9175 0,0 13.901822,-15.73888 7.817212,-27.02131 z" />
    <path fill="#463014" d="M 87.000064,330.10381 C 49.891328,327.25197 36.835328,292.18714 36.835328,284.88397 l 9.691136,0.004 -4.845568,-0.004 h 4.845568 c 0.04813,3.15699 9.910272,33.152 41.216,35.55942 z" />
    <path fill="#FFFFFF" d="m 76.571648,267.28038 c -0.579584,-3.35155 -0.64,-6.53004 0.06758,-9.65324 -2.820096,-2.11968 -7.880704,-2.90714 -11.677696,-4.13799 -3.104768,-1.96505 -18.993152,2.01421 -30.52032,-11.93574 -14.442496,-17.46842 -11.403264,-27.89786 -11.403264,-27.89786 -3.702784,4.11443 -7.291904,2.54669 -12.936192,21.73031 -5.65248,19.18771 2.653184,32.56422 18.132992,45.99296 7.313408,6.34368 17.651712,8.95692 26.544128,9.95737 -2.978816,-2.9911 5.088256,-3.29011 10.648576,-5.37088 -0.443392,-4.48921 0.299008,-8.84736 3.646464,-12.35661 2.018304,-2.11558 4.615168,-3.38022 7.309312,-4.38784 0.150528,-0.34816 0.277504,-0.66969 0.420864,-1.00352 -0.08909,-0.30515 -0.176128,-0.61337 -0.232448,-0.93696 v 0 z" />
    <path fill="#C9C9C9" d="m 65.352704,285.84858 c -0.321536,-0.94208 -0.564224,-1.9026 -0.802816,-2.86925 -0.257024,-1.05575 -1.537024,-4.04685 0.04096,-0.63181 -0.405504,-0.8745 -0.67072,-1.77562 -0.866304,-2.6839 -25.069568,-0.0317 -46.879744,-17.24416 -42.665984,-53.4313 -3.28192,-4.35712 -7.877632,8.78592 -7.877632,8.78592 0,0 -12.550144,36.44211 19.863552,50.56614 10.800128,4.7104 20.344832,8.08653 22.596608,6.72359 4.690944,0.95334 8.925184,-2.31731 10.513408,-4.46771 -0.297984,-0.66048 -0.569344,-1.32199 -0.801792,-1.99168 z" />
    <path fill="#463014" d="m 76.120064,262.03341 c 0.03891,-3.05459 0.662528,-6.01293 2.139136,-8.96103 0.103424,-0.20275 0.223232,-0.39731 0.333824,-0.59494 -9.647104,-0.0829 -20.757504,-1.00659 -30.21824,-4.79334 -10.39872,-4.15949 -23.406592,-18.39002 -25.641984,-35.10989 0,0 -19.584,15.11219 -13.82912,47.4583 5.4016,30.37389 30.818304,40.27597 59.805696,41.95123 0.01536,-0.1966 -3.260416,-6.9632 -2.225152,-11.10528 -16.459776,1.19604 -34.866176,-5.163 -43.751424,-19.78368 -8.134656,-13.38163 -5.853184,-36.22809 -2.509824,-39.57555 8.155136,25.7321 37.49888,30.96269 55.897088,30.51418 z" />
    <path fill="#463014" d="m 79.157248,243.61165 c -5.216256,15.30777 -15.870976,27.69613 -15.870976,27.69613 0,0 14.656512,-0.66663 15.465472,-3.26042 0.59904,-1.91181 13.234176,-31.49005 18.08384,-66.13914 -4.56192,7.49466 -17.231872,40.39271 -17.678336,41.70343 z" />
    <path fill="#E78724" d="m 162.19443,208.31949 c 0,0 16.6144,25.41056 28.80819,43.4432 1.88621,2.78937 -12.19379,2.98291 -12.19379,2.98291 z" />
    <path fill="#E78724" d="m 154.27994,155.63674 c 0,0 5.01043,12.49792 7.75065,19.1232 2.97882,7.20281 14.33498,10.78579 14.33498,10.78579 0,0 -5.88595,-6.17472 -5.88595,-21.81735 0,-6.56281 -8.47156,-9.17196 -8.47156,-9.17196 z" />
    <path fill="#E78724" d="m 159.33952,162.70336 c 0,0 10.26355,12.21734 29.32531,5.37498 19.06176,-6.84237 21.01453,-31.27808 21.01453,-38.12045 0,-6.84237 -36.16461,6.84237 -41.05318,9.7751 -4.88858,2.93274 -14.17216,14.66061 -9.28666,22.97037 z" />
    <path fill="#E78724" d="m 231.32774,32.152576 c 0,0 -17.59232,-3.423232 -29.32428,5.863424 -11.72788,9.284608 -15.15008,16.617472 -15.15008,16.617472 l 19.76934,15.669248 c 0,0 9.55597,-4.4288 12.4887,-17.13664 2.93069,-12.705792 0.9769,-18.569216 12.21632,-21.013504 z" />
    <path fill="#E78724" d="m 164.47283,127.41325 c 7.57453,-10.752 20.05299,-15.44192 30.02368,-16.21914 16.99533,-1.32915 25.05933,4.67866 25.05933,4.67866 0,0 -27.83232,1.17862 -35.85536,11.71456 -14.93504,19.6096 -36.7145,21.20294 -40.19814,16.896 4.02739,0.2007 8.46131,-1.79507 13.2014,-6.28019 2.96244,-2.80576 5.36576,-7.3769 7.76909,-10.78989 z" />
    <path fill="#E78724" d="m 211.45702,165.4313 c 0,0 30.87668,-10.61581 25.01223,-21.36576 -5.86343,-10.75303 -1.20013,-16.61133 -1.20013,-16.61133 0,0 17.24723,12.87168 12.84915,26.55437 -2.70029,8.39884 -7.23046,14.47936 -32.10649,26.1376 -11.93165,22.16243 -2.46375,62.0544 -3.02797,62.24179 -0.94618,0.31437 -16.75162,-7.81312 -15.67232,-45.13485 0.32768,-11.46061 1.24416,-27.1063 14.14553,-31.82182 z" />
    <path fill="#E78724" d="m 170.99162,51.275776 c 12.94438,6.578176 30.6862,15.73888 30.6862,15.73888 l -6.9806,3.492864 c 0.66662,1.079296 0.98918,1.723392 0.98918,1.723392 l -7.16595,3.258368 c 0,0 -17.49402,12.672 -28.21223,20.818944 3.56967,-11.003904 14.05952,-28.291072 14.05952,-28.291072 0,0 2.9778,-7.943168 -3.37612,-16.741376 z" />
    <path fill="#E78724" d="m 127.97747,319.42042 c 39.79264,0 53.2736,-20.20455 53.2736,-20.20455 l -6.21568,15.14599 c -2.3511,6.55257 -27.43296,26.94246 -46.9975,26.94246" />
    <path fill="#E78724" d="m 176.89395,285.5639 c 0,0 -3.66592,22.3785 -18.32345,22.3785 -12.45696,0 -16.12903,-18.90304 -16.12903,-22.8096 z" />
    <path fill="#E78724" d="m 201.2928,251.81389 c -1.30253,-3.58605 -5.86342,-18.08384 -7.33286,-31.27808 -1.75616,-15.80237 -1.11207,-38.91507 -1.11207,-38.91507 0,0 3.91066,15.15008 7.32775,17.59846 3.42425,2.44224 9.7751,19.05664 9.7751,19.05664 0,0 3.40378,24.73574 5.02374,33.0496 -4.48204,0.89805 -8.25241,-1.74387 -13.68166,0.48845 z" />
    <path fill="#E78724" d="m 236.7017,153.76589 c 0,0 -8.30976,-2.93479 -10.752,-21.01453 -2.44224,-18.08384 2.93376,-33.722368 2.93376,-33.722368 0,0 -0.49152,24.924158 2.44224,29.812738 2.93478,4.88755 5.376,6.35187 8.7982,12.70681 3.41812,6.35495 -1.46841,10.26151 -3.4222,12.21735 z" />
    <path fill="#FDC168" d="m 226.78016,36.429824 1.69882,-1.074176 c 5.00121,0.16896 -1.69882,1.074176 -1.69882,1.074176 z" />
    <path fill="#FBA919" d="m 164.22707,45.922304 c 0,0 7.82131,-1.302528 11.7289,-7.165952 3.91065,-5.865472 14.99033,-17.596416 32.64819,-17.727488 17.65581,-0.132096 35.12422,4.692992 35.12422,4.692992 l -15.2494,9.634816 c -1.6128,-0.05222 -4.4329,-0.03072 -9.10029,0.124928 -19.13344,0.635904 -22.07949,19.564544 -22.07949,19.564544 l -67.44064,-9.286656" />
    <path fill="#FFFFFF" d="m 157.71238,150.46861 c 0,0 9.12384,9.12384 23.13216,6.18905 14.01242,-2.93068 22.48397,-9.12179 23.13626,-19.87481 0.65024,-10.752 -2.93171,-14.98727 -2.93171,-14.98727 0,0 -15.6416,4.89063 -23.13523,11.40736 -7.49364,6.51674 -13.03143,16.94106 -20.20148,17.26567 z" />
    <path fill="#C9C9C9" d="m 168.7511,147.20922 c 0,0 7.91552,3.61472 16.75674,0.67072 11.58042,-3.86151 12.35149,-15.9017 12.35149,-15.9017 0,0 7.09837,20.8425 -12.81434,24.85453 -15.96825,3.21741 -25.41568,-6.03751 -25.41568,-6.03751 z" />
    <path fill="#463014" d="m 220.47642,68.727808 c 6.45427,-5.354496 1.64761,-10.323968 2.15756,-16.407552 0.27239,-3.236864 0.52839,-6.291456 1.59642,-7.975936 5.94022,-9.378816 19.95059,-12.224512 20.09498,-12.254208 l 6.57715,-1.288192 -4.35405,-5.092352 c -0.56422,-0.659456 -18.44122,-17.716224 -46.1097,-8.784896 -19.34848,6.24128 -33.67424,27.405312 -34.20672,28.260352 l 9.69933,4.562944 c 0.11776,-0.180224 11.44423,-20.073472 28.04634,-25.426944 13.41952,-4.330496 25.78841,-0.210944 31.08352,2.489344 -5.62893,2.248704 -12.99559,6.34368 -17.43258,13.348864 -2.09305,3.308544 -2.44326,7.474176 -2.78323,11.507712 -0.44954,5.34016 -0.8745,10.381312 -4.80563,13.645824 z" />
    <path fill="#463014" d="m 237.71136,146.8928 c 0,0 -8.12749,-10.08333 -10.53594,-29.70419 -0.94617,-7.72813 0.73114,-22.971394 3.41914,-28.835842 -0.48845,14.416892 3.17952,28.835842 3.17952,28.835842 0,0 2.47194,26.77145 3.93728,29.70419 z" />
    <path fill="#463014" d="m 194.8375,58.544128 c 0.004,-0.0215 2.60916,-11.405312 9.83245,-17.152 10.18675,-8.103936 22.62733,-3.792896 22.74304,-3.755008 l 1.81146,-5.579776 C 228.62029,31.86176 214.4041,27.38176 201.2969,36.59264 188.11494,45.855744 186.53696,54.252544 186.39565,55.180288 Z" />
    <path fill="#463014" d="m 212.17587,139.66131 c 0,0 4.26599,-6.10713 3.49491,-12.82355 -0.37785,-3.31674 -1.91488,-6.72154 -4.6592,-7.92986 -5.09952,-2.24051 -7.36051,3.53997 -7.36051,3.53997 0,0 7.17824,1.77152 8.5248,17.21344 z" />
    <path fill="#463014" d="m 165.33606,148.96947 c -0.17817,0.3328 -0.27033,0.51917 -0.27033,0.51917 0,0 13.30176,9.98605 26.93837,-0.14746 7.30419,-5.42924 6.61401,-18.859 4.3735,-24.55449 -5.81222,1.31789 -10.74381,3.69357 -14.86848,6.46758 5.21114,-4.64998 9.77203,-8.07321 9.75565,-8.15206 l 5.92589,-1.67629 11.50873,-3.94445 c 0.14746,0.87757 4.34483,20.55578 -7.77728,33.96403 -5.36985,5.94535 -30.55001,19.2594 -42.50214,-3.50617 z" />
    <path fill="#463014" d="m 166.57818,150.43277 c -7.49159,11.40224 -26.38848,4.88653 -26.06183,-7.168 0,0 12.62592,6.97037 23.78445,-5.86343 6.51469,-7.4926 27.39405,-28.1518 55.70253,-21.28588 -19.54919,4.29875 -45.43283,22.16038 -53.42515,34.31731 z" />
    <path fill="#463014" d="m 222.64934,182.61299 c -1.80326,1.04141 -8.1623,7.62368 -8.1623,17.46842 -0.004,4.9367 0.48845,29.73696 2.93478,44.88806 -3.67616,2.38797 -6.23616,2.89587 -9.89593,5.32992 -1.83194,-17.54726 -3.14983,-42.97933 -2.53338,-53.24595 0.69939,-11.7033 6.9632,-19.55738 12.77338,-22.90688 1.81965,-1.04653 3.72224,-2.07565 5.64121,-3.11091 9.95328,-5.37805 20.24551,-10.94144 20.24551,-20.44109 0,-7.43117 -2.89178,-9.75565 -5.95047,-12.21939 l -0.32563,-0.26727 c -2.02957,-1.63942 -4.33049,-3.499 -5.68729,-6.55257 -3.71405,-8.34867 -4.32333,-29.61511 -0.004,-35.013634 2.15347,-2.690048 7.92781,-11.736064 6.26893,-17.814528 -0.63591,-2.320384 -2.09818,-4.03968 -4.47591,-5.25824 -2.51801,-1.289216 -5.9136,-1.942528 -10.1038,-1.942528 -8.2176,0 -17.34247,2.502656 -22.04365,3.992576 -16.81306,5.328896 -37.10055,20.692992 -42.91994,25.275394 -0.16589,0.128 -0.26214,0.20275 -0.28057,0.21504 l -3.72327,2.58765 2.32755,-3.894276 c 0.14746,-0.242688 14.88384,-24.47872 41.23751,-33.364992 5.12819,-1.728512 15.20025,-4.629504 25.10029,-4.629504 5.89414,0 10.89024,1.02912 14.85414,3.05664 4.82714,2.468864 8.0937,6.408192 9.45357,11.387904 3.328,12.207104 -7.51207,25.798658 -7.88173,26.232828 -1.26362,2.25588 -1.79814,18.64295 1.11718,25.20167 0.40141,0.90521 1.50221,1.79507 2.89895,2.91942 0.43622,0.35328 0.92057,0.71987 1.44179,1.11207 4.11955,3.10886 10.34445,7.80595 10.34445,18.6327 0,14.81421 -15.01389,22.84646 -27.07559,29.30483 -1.98144,1.06496 -3.87276,2.07258 -5.57568,3.05664 v 0 z" />
    <path fill="#463014" d="M 204.73856,66.98496 C 202.35059,62.94016 196.24346,55.130112 182.16755,48.267264 166.45939,40.610816 148.2793,36.724736 128.1239,36.71552 v -0.0041 h -0.0389 -0.0389 v 0.002 C 107.88762,36.723712 89.704448,40.609792 74.000384,48.265216 59.92448,55.129088 53.819392,62.938112 51.429376,66.982912 l -1.025024,1.3568 12.053504,2.68288 0.381952,-0.482304 0.201728,-0.442368 c 0.186368,-0.796672 1.80224,-5.097472 15.241216,-11.651072 14.36672,-7.007232 31.123458,-10.559488 49.800188,-10.565632 18.67879,0.0061 35.42836,3.5584 49.79405,10.565632 13.44,6.5536 15.06099,10.8544 15.24531,11.651072 l 0.20071,0.442368 0.37785,0.482304 12.0576,-2.68288 z" />
    <path fill="#463014" d="m 220.47642,68.727808 c 6.45427,-5.354496 1.64761,-10.323968 2.15756,-16.407552 0.27239,-3.236864 0.52839,-6.291456 1.59642,-7.975936 5.94022,-9.378816 19.95059,-12.224512 20.09498,-12.254208 l 6.57715,-1.288192 -4.35405,-5.092352 c -0.56422,-0.659456 -18.44122,-17.716224 -46.1097,-8.784896 -19.34848,6.24128 -33.67424,27.405312 -34.20672,28.260352 l 9.69933,4.562944 c 0.11776,-0.180224 11.44423,-20.073472 28.04634,-25.426944 13.41952,-4.330496 25.78841,-0.210944 31.08352,2.489344 -5.62893,2.248704 -12.99559,6.34368 -17.43258,13.348864 -2.09305,3.308544 -2.44326,7.474176 -2.78323,11.507712 -0.44954,5.34016 -0.8745,10.381312 -4.80563,13.645824 z" />
    <path fill="#463014" d="m 208.05427,65.686528 1.35783,-1.130496 c 3.61472,-2.998272 4.02022,-7.840768 4.45644,-12.988416 0.35021,-4.14208 0.71168,-8.42752 2.93069,-11.931648 4.07757,-6.434816 10.53287,-10.467328 15.8505,-12.864512 -3.18362,-1.348608 -9.16583,-3.35872 -16.54272,-3.35872 -4.0745,0 -8.05069,0.616448 -11.83335,1.837056 -15.39993,4.9664 -26.28198,22.914048 -27.51385,25.019392 l -0.46183,0.730112 -11.47801,-5.397504 0.58368,-0.93184 c 0.13517,-0.217088 14.53977,-22.160384 34.73817,-28.673024 5.4016,-1.744896 10.82983,-2.625536 16.13415,-2.625536 19.43859,0 30.91763,11.588608 31.01593,11.705344 l 5.44461,6.365184 -8.21453,1.610752 c -0.13619,0.02765 -13.80249,2.886656 -19.46214,11.817984 -0.93798,1.4848 -1.18374,4.420608 -1.44998,7.537664 -0.15463,1.85344 0.23449,3.659776 0.61337,5.405696 0.82125,3.785728 1.66912,7.701504 -3.1191,11.670528 l -0.41575,0.345088 z" />
    <path fill="#463014" d="m 194.8375,58.544128 c 0.004,-0.0215 2.60916,-11.405312 9.83245,-17.152 10.18675,-8.103936 22.62733,-3.792896 22.74304,-3.755008 l 1.81146,-5.579776 C 228.62029,31.86176 214.4041,27.38176 201.2969,36.59264 188.11494,45.855744 186.53696,54.252544 186.39565,55.180288 Z" />
    <path fill="#463014" d="m 185.3184,55.80288 0.11366,-0.765952 c 0.14336,-0.968704 1.79405,-9.747456 15.30368,-19.245056 5.55828,-3.905536 12.21837,-5.971968 19.26042,-5.971968 5.34118,0 9.11462,1.174528 9.53242,1.308672 l 0.92774,0.300032 -2.42176,7.443456 -0.93491,-0.310272 c -0.34919,-0.11776 -3.49082,-1.128448 -7.71789,-1.128448 -5.41696,0 -10.16115,1.589248 -14.09741,4.72576 -6.9079,5.49376 -9.46483,16.487424 -9.48838,16.595968 l -0.25395,1.118208 z m 41.46176,-19.373056 1.2032,-3.705856 c -1.41926,-0.360448 -4.29261,-0.946176 -7.9872,-0.946176 -6.73178,0 -12.83379,1.890304 -18.13402,5.615616 -11.08787,7.793664 -13.73798,14.835712 -14.33907,17.18272 l 6.65293,2.649088 c 0.8704,-3.093504 3.75194,-11.716608 9.88774,-16.59904 4.23424,-3.364864 9.52935,-5.144576 15.317,-5.144576 3.328,0 6.00883,0.574464 7.39942,0.948224 z" />
    <path fill="#463014" d="m 151.79981,299.58042 c -5.03501,-5.38317 -8.01383,-11.17594 -8.7337,-12.95565 -0.41165,-1.01376 -0.88064,-2.94605 0.59597,-4.46362 1.15098,-1.17555 3.14573,-1.77869 5.9351,-1.77869 h 4.29261 c 4.47386,0 9.70547,0 12.81639,0.003 l 2.60915,0.004 c 3.66489,0 5.47021,1.04858 6.33958,1.92717 1.26362,1.27898 1.46125,3.05869 0.59085,5.28589 -2.33165,5.95149 -7.62061,10.80832 -9.18426,12.15488 -2.048,1.76845 -4.9879,2.816 -7.87558,2.816 v 0 c -2.96038,0 -5.58285,-1.06394 -7.38611,-2.99315 v 0 z" />
    <path fill="#463014" d="m 156.15795,151.10349 10.42023,-0.67072 c 0,0 -2.66138,4.69811 -4.38784,10.77453 -1.9497,6.87308 1.78278,16.9175 1.78278,16.9175 0,0 -13.90285,-15.73888 -7.81517,-27.02131 z" />
    <path fill="#E78724" d="m 128.08704,113.88006 c -6.64474,0 -15.3088,-0.18227 -21.80915,-4.85376 0,0 8.51149,14.92071 21.79789,14.92071 l 0.0113,-1.88826 0.0113,1.88826 c 13.28743,0 21.79789,-14.92071 21.79789,-14.92071 -6.50035,4.67149 -15.17056,4.85376 -21.80915,4.85376 v 0 z" />
    <path fill="#463014" d="m 146.38285,113.80838 c -6.66522,4.03354 -12.61773,5.4313 -18.29581,5.5552 -5.6791,-0.1239 -11.62957,-1.52166 -18.29581,-5.5552 0,0 9.7065,11.84461 18.24666,11.93575 v 0.007 c 0.0154,0 0.0307,-0.004 0.0481,-0.004 0.0154,0 0.0307,0.004 0.0481,0.004 v -0.007 c 8.53812,-0.0911 18.24871,-11.93575 18.24871,-11.93575 v 0 z" />
    <path fill="#463014" d="m 169.17197,330.10381 -0.74343,-9.66144 c 31.29856,-2.40743 41.16071,-32.40243 41.21191,-35.55943 h 9.69113 c 0.004,7.30215 -13.056,42.36903 -50.15961,45.22087 z" />
    <path fill="#FFFFFF" d="m 179.59834,267.28038 c 0.58265,-3.35155 0.63897,-6.53004 -0.0676,-9.65324 2.82419,-2.11968 7.88071,-2.90714 11.6777,-4.13799 3.10477,-1.96505 18.99725,2.01421 30.52441,-11.93574 14.4425,-17.46842 11.39917,-27.89786 11.39917,-27.89786 3.70586,4.11443 7.29191,2.54669 12.94029,21.73031 5.65248,19.18771 -2.65728,32.56422 -18.13709,45.99296 -7.31238,6.34368 -17.65171,8.95692 -26.54413,9.95737 2.97882,-2.9911 -5.08825,-3.29011 -10.6455,-5.37088 0.44442,-4.48921 -0.30208,-8.84736 -3.64851,-12.35661 -2.01421,-2.11558 -4.61517,-3.38022 -7.30727,-4.38784 -0.15155,-0.34816 -0.2816,-0.66969 -0.42086,-1.00352 0.0891,-0.30515 0.17306,-0.61337 0.22938,-0.93696 v 0 z" />
    <path fill="#C9C9C9" d="m 190.81421,285.84858 c 0.32563,-0.94208 0.56422,-1.9026 0.80281,-2.86925 0.26112,-1.05575 1.54112,-4.04685 -0.0389,-0.63181 0.40551,-0.8745 0.67072,-1.77562 0.86631,-2.6839 25.06956,-0.0317 46.87974,-17.24416 42.66188,-53.4313 3.28192,-4.35712 7.88071,8.78592 7.88071,8.78592 0,0 12.55117,36.44211 -19.86253,50.56614 -10.80013,4.7104 -20.34381,8.08653 -22.59661,6.72359 -4.69504,0.95334 -8.92928,-2.31731 -10.51341,-4.46771 0.29594,-0.66048 0.57344,-1.32199 0.79975,-1.99168 v 0 z" />
    <path fill="#463014" d="m 180.04685,262.03341 c -0.0348,-3.05459 -0.66253,-6.01293 -2.13504,-8.96103 -0.10445,-0.20275 -0.22426,-0.39731 -0.33383,-0.59494 9.64608,-0.0829 20.75751,-1.00659 30.21824,-4.79334 10.3977,-4.15949 23.40557,-18.39002 25.64199,-35.10989 0,0 19.584,15.11219 13.82912,47.4583 -5.4057,30.37389 -30.81933,40.27597 -59.8057,41.95123 -0.0154,-0.1966 3.26144,-6.9632 2.22515,-11.10528 16.45568,1.19604 34.86208,-5.163 43.75245,-19.78368 8.12954,-13.38163 5.84909,-36.22809 2.50573,-39.57555 -8.15206,25.7321 -37.49888,30.96269 -55.89811,30.51418 z" />
    <path fill="#463014" d="m 191.75219,269.65197 c -3.46317,-3.74375 -9.8304,-8.20634 -24.51149,-8.20634 0,0 -27.83436,-0.0164 -39.10451,-0.0236 v 0 h -0.0481 -0.0481 c -11.26912,0.008 -39.11066,0.0236 -39.11066,0.0236 -14.676992,0 -21.044224,4.46362 -24.50944,8.20634 -5.047296,5.4487 -5.838848,13.02835 -2.347008,22.5024 9.278464,25.21702 22.317056,50.83648 65.965058,50.87232 v 0.004 c 0.0164,0 0.0307,-0.004 0.0481,-0.004 0.0154,0 0.0307,0.004 0.0481,0.004 v -0.004 c 43.64391,-0.0379 56.6825,-25.6553 65.96404,-50.87232 3.49184,-9.47405 2.69824,-17.0537 -2.34599,-22.5024 z m -6.79526,20.73395 c -4.42061,12.66278 -16.30106,43.31315 -56.87194,43.3664 -40.575998,-0.0532 -52.45235,-30.70259 -56.872958,-43.3664 -2.446336,-7.02566 -2.259968,-12.22451 0.572416,-15.45421 1.934336,-2.20774 6.378496,-4.84249 16.50688,-4.84249 l 10.580992,-0.004 c 7.80595,-0.007 17.60666,-0.0154 29.2137,-0.0195 11.60294,0.004 21.40876,0.0123 29.21267,0.0195 l 10.57689,0.004 c 10.13146,0 14.5746,2.63372 16.50996,4.84249 2.82931,3.23277 3.01772,8.42855 0.57139,15.45421 z" />
    <path fill="#463014" d="m 177.01171,243.61165 c 5.21626,15.30777 15.86995,27.69613 15.86995,27.69613 0,0 -14.65548,-0.66663 -15.46547,-3.26042 -0.59494,-1.91181 -13.2311,-31.49005 -18.08077,-66.13914 4.55885,7.49466 17.2288,40.39271 17.67629,41.70343 z" />
  </g>
</svg>
