<?xml version="1.0" encoding="utf-8"?>
<svg height="100" width="100" viewBox="0 0 100 100" y="0px" x="0px" version="1.1" xmlns="http://www.w3.org/2000/svg">
  <style type="text/css">
	.st0{fill:#C1272D;}
	.st1{fill:#EFCCA3;}
	.st2{fill:#ED1C24;}
	.st3{fill:#CCAC8D;}
	.st4{fill:#FFFFFF;}
	.st5{fill:#FF931E;}
	.st6{fill:#FFB81E;}
	.st7{fill:#56332B;}
	.st8{fill:#442823;}
	.st9{fill:#7F4A41;}
	.st10{fill:#331712;}
	.st11{fill:#FFCC66;}
	.st12{fill:#CCCCCC;}
	.st13{fill:#B3B3B3;}
	.st14{fill:#989898;}
	.st15{fill:#323232;}
	.st16{fill:#1E1E1E;}
	.st17{fill:#4C4C4C;}
	.st18{fill:#E6E6E6;}
	.st19{fill:#606060;}
</style>
  <g transform="matrix(0.193949, 0, 0, 0.193949, 0.155101, -5.799126)">
    <path d="m 363.7,394.6 c -68.5,35.1 -143.8,35.1 -212.4,0 -6.3,-3.2 -11.3,-13.5 -11.3,-22.4 0,-7.6 0,-15.3 0,-22.9 0,-9 5.1,-13.3 11.3,-10.1 68.5,35.1 143.8,35.1 212.4,0 6.3,-3.2 11.3,1.2 11.3,10.1 0,7.6 0,15.3 0,22.9 0,8.9 -5,19.2 -11.3,22.4 z" class="st0"/>
    <path d="M 429.7,196.5 C 428.7,179 430.6,163.4 422.9,150 403.9,117 356,98 259,98 v 1 c 0,0 -1.1,0 -1.1,0 0,0 1.1,0 1.1,0 v -1 c -94,0 -146,19.3 -165,52.3 -7.7,13.4 -6.6,28.9 -7.6,46.4 -0.8,13.9 -7,29 -4.5,45 3.3,20.8 4.6,41.5 7.8,60.8 2.5,15.7 23.6,28.7 25.6,43.7 5.5,40.8 46.7,59.5 143.7,59.5 v 0.4 h -1.3 0.5 0.8 v -0.4 c 98,0 137.1,-18.7 142.6,-59.5 2,-15 22.2,-28 24.8,-43.7 3.1,-19.3 4.4,-40 7.7,-60.8 2.5,-16.2 -3.6,-31.3 -4.4,-45.2 z" class="st1"/>
    <path d="m 363.7,414.9 c -68.5,25.3 -143.8,25.3 -212.4,0 -6.3,-2.3 -11.3,-9.7 -11.3,-16.2 0,-5.5 0,-11 0,-16.5 0,-6.5 5.1,-9.6 11.3,-7.3 68.5,25.3 143.8,25.3 212.4,0 6.3,-2.3 11.3,0.8 11.3,7.3 0,5.5 0,11 0,16.5 0,6.4 -5,13.8 -11.3,16.2 z" class="st2"/>
    <circle r="9.6999998" cy="423.39999" cx="257.5" class="st0"/>
    <path d="m 257.9,210 c 17.4,0.2 29.4,11.7 40.7,21.7 13.1,11.6 35.9,19.8 45.1,29.7 9.2,9.9 21.2,20.3 25.7,35.9 4.5,15.6 5.8,35.7 5.8,40.8 0,5.2 3,4 10.9,0 18.7,-9.4 39.7,-34 39.7,-34 -2.5,15.7 -22.7,28.5 -24.7,43.5 -5.5,40.8 -45.2,59.3 -143.1,59.3 h -0.4 -0.2 1.5" class="st3"/>
    <path d="m 321.4,179.6 c 3.8,12.5 16.3,54.6 -8.3,40.3 0,0 10.2,6 16.9,28.7 6.6,22.6 23.3,25.5 23.3,25.5 0,0 26.8,5.1 46.7,-11.8 17,-14.4 19.7,-40.1 12.5,-59.5 -7.2,-19.4 -20.1,-25.4 -39,-29.4 -18.8,-4 -56.2,-7.6 -52.1,6.2 z" class="st3"/>
    <g>
      <circle r="35.200001" cy="225.39999" cx="369.10001"/>
      <circle r="9" cy="209.7" cx="360.10001" class="st4"/>
    </g>
    <path d="m 315.7,223.7 c 0,0 31.8,21.4 49,42.8 17.2,21.4 16.9,25.4 16.9,25.4 l -12.2,5.4 c 0,0 -17.5,-33.1 -39.3,-45.7 -21.8,-12.5 -24.5,-23 -24.5,-23 z" class="st1"/>
    <g>
      <circle r="8.3000002" cy="422" cx="257.5" class="st5"/>
      <circle r="2.9000001" cy="424.89999" cx="260" class="st6"/>
    </g>
    <g>
      <circle r="5.5999999" cy="434.89999" cx="257.5" class="st5"/>
      <circle r="2" cy="436.79999" cx="259.20001" class="st6"/>
    </g>
    <path d="m 259,210 c -17.4,0.2 -29.9,11.7 -41.2,21.7 -13.1,11.6 -36.2,19.8 -45.4,29.7 -9.2,9.9 -21.4,20.3 -25.9,35.9 -4.5,15.6 -5.9,35.7 -5.9,40.8 0,5.2 0.9,5.6 -10.9,0 -18.9,-8.9 -39.8,-34 -39.8,-34 2.5,15.7 22.7,28.5 24.7,43.5 5.5,40.8 45.2,59.3 143,59.3 h 0.4 0.2 0.7" class="st3"/>
    <path d="M 352.5,278.6 C 333.2,254.8 302.4,233 259.8,233 h -0.3 -0.1 c -42.6,0 -73.4,21.8 -92.7,45.6 -19.9,24.2 -18.6,34 -18.6,57.3 0,84.1 29.5,59.2 49.2,69.3 20.1,9.9 40.6,5.9 62.1,5.9 h 0.1 0.3 c 21.5,0 42,3.7 62.1,-6.2 19.7,-10.1 49.2,15.3 49.2,-68.8 0,-23.3 1.3,-33.3 -18.6,-57.5 z" class="st7"/>
    <path d="m 257.6,253.6 c 0,0 -2.7,38.6 -8.5,46.2 l 10.4,-2.5 z" class="st8"/>
    <path d="m 260.3,253.6 c 0,0 2.7,38.6 8.5,46.2 l -10.4,-2.5 z" class="st8"/>
    <path d="m 226.8,244.6 c -4.1,-9.2 10.2,-24.2 33.1,-24.2 22.8,0 37.2,15 33.1,24.2 -4,9.4 -18.6,12.5 -33.1,12.7 -14.5,-0.2 -29,-3.2 -33.1,-12.7 z" class="st7"/>
    <path d="m 260.2,253.6 c -0.1,-1.7 13.7,-1.9 20.8,-6.8 0,0 -14.9,4.7 -18.1,2.9 -3.3,-1.8 -3.9,-6.5 -4.2,-6.5 -0.3,0 -1,5 -3.7,6.5 -2.7,1.5 -19.6,-2.9 -19.6,-2.9 0,0 22.4,5.4 22.3,6.7 -0.2,1.3 -0.2,5.1 -0.2,7.9 0,10 0.2,34.9 1.5,36.8 2.5,3.7 1.5,-26.8 1.5,-36.8 -0.1,-2.7 -0.2,-6.1 -0.3,-7.8 z"/>
    <path d="m 260.6,307.5 c 6.8,0 18.8,4.6 29.5,12.3 -10.5,-11.4 -22.8,-19.6 -29.5,-19.6 -7.2,0 -22.3,8.9 -33.4,21.6 11.7,-9 26,-14.3 33.4,-14.3 z" class="st9"/>
    <path d="m 258.1,378 c -15.3,0 -30,-4.8 -43.5,-8.3 -2.9,-0.8 -5.8,1.3 -8.6,0.4 -25.1,-8 -45.6,-21.7 -58.1,-38.7 0,1.3 0.1,2.7 0.1,4.1 0,84.1 29.5,59.3 49.2,69.5 20.1,9.9 40.6,6 62.1,6 h 0.1 0.3 c 21.5,0 42,3.7 62.1,-6.2 19.7,-10.1 49.2,15 49.2,-69.1 0,-3.2 0.1,-6.2 0.3,-9 -11.7,18.6 -32.8,33.8 -59.3,42.7 -2.5,0.8 -7.9,-1.3 -10.5,-0.5 -14.2,3.9 -27,9.1 -43.4,9.1 z" class="st8"/>
    <path d="m 219.9,332.9 c 0,0 -10.1,30 -3.2,43.2 l -9.2,-4.1 c 0,0 7.1,-30.3 12.4,-39.1 z" class="st8"/>
    <path d="m 299.3,332.9 c 0,0 10.1,30 3.2,43.2 l 9.2,-4.1 c 0,0 -7.1,-30.3 -12.4,-39.1 z" class="st8"/>
    <path d="m 194.4,179.6 c -3.8,12.5 -16.3,54.6 8.3,40.3 0,0 -10.2,6 -16.9,28.7 -6.7,22.7 -23.3,25.5 -23.3,25.5 0,0 -26.8,5.1 -46.7,-11.8 -17,-14.4 -19.7,-40.1 -12.5,-59.5 7.2,-19.4 20.1,-25.4 39,-29.4 18.8,-4 56.3,-7.6 52.1,6.2 z" class="st3"/>
    <path d="m 259.6,300.2 c 10.6,0 44.3,23.1 44.9,51.8 0,-0.5 0.1,-1 0.1,-1.4 0,-29.4 -27.3,-53.2 -45,-53.2 -17.7,0 -45,23.8 -45,53.2 0,0.5 0.1,1 0.1,1.4 0.6,-28.8 34.2,-51.8 44.9,-51.8 z"/>
    <g>
      <ellipse ry="6.1999998" rx="3.3" cy="238.8" cx="266.89999" class="st10" transform="matrix(0.9683,-0.2497,0.2497,0.9683,-51.1689,74.2008)"/>
      <ellipse ry="6.1999998" rx="3.3" cy="238.8" cx="249.5" class="st10" transform="matrix(0.9551,0.2963,-0.2963,0.9551,81.9493,-63.1999)"/>
    </g>
    <g>
      <circle r="35.200001" cy="225.39999" cx="148.8"/>
      <circle r="9" cy="209.7" cx="157.8" class="st4"/>
    </g>
    <g>
      <path d="m 270.1,225.7 c 0,-0.3 -9.1,4 -11.7,4.3 -2.6,-0.4 -11.7,-4.6 -11.7,-4.3 0,-0.2 7.6,-0.1 11.7,0.1 4.1,-0.2 11.8,-0.2 11.7,-0.1 z" class="st9"/>
    </g>
    <path d="m 200.2,223.7 c 0,0 -31.8,21.4 -49,42.8 -17.2,21.4 -16.9,25.4 -16.9,25.4 l 12.2,5.4 c 0,0 17.5,-33.1 39.3,-45.7 21.8,-12.6 24.5,-23 24.5,-23 z" class="st1"/>
    <path d="m 130.9,159.8 c 0,0 -10.6,29.5 -34.8,42 0.1,0 37.4,-4.4 34.8,-42 z" class="st3"/>
    <path d="m 383.1,159.8 c 0,0 10.6,29.5 34.8,42 0,0 -37.4,-4.4 -34.8,-42 z" class="st3"/>
    <path d="m 314.2,215.1 c 0,0 -23.3,-24.9 -55.1,-25.5 v -0.1 c -0.2,0 0.2,0 0,0 -0.2,0 0,0 0,0 v 0.1 c -31,0.6 -55.2,25.5 -55.2,25.5 27.5,-19.3 53.2,-18.8 55.2,-18.7 v 0 c 0,0 -0.1,0 0,0 0.1,0 0,0 0,0 v 0 c 2.9,-0.2 27.6,-0.6 55.1,18.7 z" class="st3"/>
    <path d="m 286.6,162.9 c 0,0 -11.7,-16.9 -27.6,-17.3 v 0 c -0.1,0 0.1,0 0,0 -0.1,0 0,0 0,0 v 0 c -14,0.4 -27.6,17.3 -27.6,17.3 13.8,-13.1 27.6,-12.8 27.6,-12.7 v 0 c 0,0 0,0 0,0 0,0 0,0 0,0 v 0 c 3,-0.1 13.8,-0.4 27.6,12.7 z" class="st3"/>
    <path d="m 148.7,285.9 c 0,0 -18.9,9.3 -32.3,3.7 h 0.1 c 0,0 0.3,0 0.2,0 -0.1,0 0.3,0 0.3,0 v 0 c -14,-6.9 -18.4,-27.1 -18.4,-27.1 0,0 11.3,35.5 50.1,23.4 z" class="st3"/>
    <path d="m 368,285.9 c 0,0 18.9,9.3 32.3,3.7 h -0.1 c 0,0 0.9,0 1,0 0.1,0 0.8,0 0.8,0 v 0 c 14,-6.9 17.2,-27.1 17.2,-27.1 0,0 -12.4,35.5 -51.2,23.4 z" class="st3"/>
    <path d="m 258.9,175.3 c 0,0 0.1,0 0,0 -0.1,0 0,0 0,0 z" class="st3"/>
    <g>
      <path d="m 170.4,157.6 c 10.5,-2.2 27.5,-2.6 41.1,2.2 17.3,6 3.4,28 6.9,29.2 3.5,1.2 8.2,-15.2 40.4,-13.7 32.2,1.5 36.1,15.8 40.5,13.7 4.4,-2.1 -4.3,-40.2 44.1,-31.4 0,0 -50.8,-13.6 -48.4,23.2 0,0 -29,-22.6 -70,-2.3 0.1,0 10.7,-34.3 -54.6,-20.9 z" class="st3"/>
    </g>
    <path d="m 347.7,157.7 c 0.6,0.1 1.2,0.3 1.8,0.4 0,0 -0.6,-0.2 -1.8,-0.4 z" class="st3"/>
    <path d="m 347.4,157.6 c 0.1,0 0.2,0 0.3,0.1 -0.1,-0.1 -0.2,-0.1 -0.3,-0.1 z" class="st3"/>
    <path d="m 156.5,108.6 c 0,0 -43.2,54.3 -49.7,75.3 -6.5,21 -11.1,107.9 -16.8,120.2 l -20.2,-85.4 36.9,-89.2 z" class="st3"/>
    <path d="m 359.6,108.6 c 0,0 43.2,54.3 49.7,75.3 6.5,21 11.1,107.9 16.8,120.2 l 20.2,-85.4 -36.9,-89.2 z" class="st3"/>
    <path d="m 357.5,108.6 c 0,0 46.4,38.8 59.8,83.6 13.4,44.8 7.9,99.2 18.4,106.2 14.8,9.8 31.6,-47.4 37.2,-53.6 8.7,-9.5 38.1,-34 40,-38.4 1.9,-4.4 -59.2,-71.1 -86.1,-84.3 -31.9,-15.6 -71.9,-17 -69.3,-13.5 z" class="st7"/>
    <path d="m 397.2,132.5 c 0,0 54.8,70 53.8,157.1 l 21.9,-44.8 c 0,0 -19.2,-57.3 -75.7,-112.3 z" class="st8"/>
    <path d="m 156.5,108.6 c 0,0 -46.4,38.8 -59.8,83.6 C 83.3,237 88.8,291.4 78.3,298.4 63.5,308.2 46.7,251 41.1,244.8 32.4,235.3 3,210.8 1.1,206.4 -0.8,202 60.3,135.3 87.2,122.1 c 31.9,-15.6 71.9,-17 69.3,-13.5 z" class="st7"/>
    <path d="m 116.8,132.5 c 0,0 -54.8,70 -53.8,157.1 L 41.1,244.8 c 0,0 19.2,-57.3 75.7,-112.3 z" class="st8"/>
    <path d="m 87,291.4 c 0,0 3.8,21.7 10.5,28.5 6.7,6.8 2.1,-5.2 2.1,-5.2 0,0 -6.6,-3.6 -5.5,-31.3 1.1,-27.8 -7.1,8 -7.1,8 z" class="st3"/>
    <path d="m 428.6,291.4 c 0,0 -3.8,21.7 -10.5,28.5 -6.7,6.8 -2.1,-5.2 -2.1,-5.2 0,0 6.6,-3.6 5.5,-31.3 -1.1,-27.7 7.1,8 7.1,8 z" class="st3"/>
    <g>
      <path d="m 283.8,457.1 c 3.1,-1.6 5.4,-4.5 6.1,-8.1 1.1,-6.2 -3,-12.1 -9.2,-13.2 -5.7,-1 -11.1,2.4 -12.8,7.8 -7.5,-2.2 -15.3,-3.5 -23.1,-4.1 0.3,-5.6 -3.6,-10.7 -9.3,-11.8 -6.2,-1.1 -12.1,3 -13.2,9.2 -0.7,3.7 0.5,7.2 2.9,9.7 -3.1,1.6 -5.4,4.5 -6.1,8.1 -1.1,6.2 3,12.1 9.2,13.2 5.6,1 10.9,-2.3 12.7,-7.4 7.6,2.1 15.4,3.5 23.2,4.1 -0.1,5.5 3.8,10.4 9.3,11.4 6.2,1.1 12.1,-3 13.2,-9.2 0.6,-3.6 -0.6,-7.1 -2.9,-9.7 z" class="st6"/>
      <path d="m 275.5,477.4 c -0.7,0 -1.5,-0.1 -2.2,-0.2 -5.7,-1 -9.9,-5.8 -10.3,-11.5 -7.2,-0.7 -14.4,-2 -21.4,-3.8 -2.3,5.2 -7.9,8.2 -13.6,7.2 -6.8,-1.2 -11.3,-7.7 -10.1,-14.5 0.6,-3.4 2.6,-6.4 5.5,-8.2 -2.1,-2.8 -2.9,-6.2 -2.3,-9.6 0.6,-3.3 2.4,-6.1 5.2,-8.1 2.7,-1.9 6.1,-2.6 9.3,-2 5.8,1 10.1,6 10.3,11.8 7.2,0.6 14.3,1.9 21.2,3.8 2.2,-5.4 7.9,-8.6 13.7,-7.5 3.3,0.6 6.1,2.4 8.1,5.2 1.9,2.7 2.6,6.1 2.1,9.3 -0.6,3.4 -2.6,6.4 -5.5,8.2 2.1,2.8 2.9,6.2 2.3,9.6 -0.6,3.3 -2.4,6.1 -5.2,8.1 -2.1,1.4 -4.5,2.2 -7.1,2.2 z m -35.3,-18.3 1,0.3 c 7.5,2.1 15.2,3.4 23,4.1 l 1.1,0.1 v 1.1 c -0.1,5 3.4,9.3 8.4,10.2 2.7,0.5 5.4,-0.1 7.6,-1.7 2.2,-1.6 3.7,-3.9 4.2,-6.6 0.6,-3.2 -0.4,-6.4 -2.6,-8.7 l -1.1,-1.1 1.4,-0.7 c 2.9,-1.5 4.9,-4.1 5.5,-7.3 0.5,-2.7 -0.1,-5.4 -1.7,-7.6 -1.6,-2.2 -3.9,-3.7 -6.6,-4.2 -5,-0.9 -10,2.1 -11.5,7 l -0.3,1.1 -1.1,-0.3 c -7.4,-2.1 -15.1,-3.5 -22.8,-4.1 l -1.1,-0.1 0.1,-1.1 c 0.3,-5.1 -3.3,-9.7 -8.4,-10.6 -2.7,-0.5 -5.4,0.1 -7.6,1.7 -2.2,1.6 -3.7,3.9 -4.2,6.6 -0.6,3.2 0.4,6.4 2.6,8.7 l 1.1,1.1 -1.4,0.7 c -2.9,1.5 -4.9,4.1 -5.5,7.3 -1,5.5 2.7,10.8 8.2,11.8 4.9,0.9 9.7,-1.9 11.4,-6.7 z" class="st5"/>
      <circle r="4.3000002" cy="435.89999" cx="236" class="st11"/>
      <circle r="4.3000002" cy="466.89999" cx="277.79999" class="st11"/>
    </g>
    <circle r="2.5999999" cy="451.89999" cx="254.5" class="st5"/>
    <circle r="2.5999999" cy="448.79999" cx="234" class="st5"/>
    <circle r="2.5999999" cy="456" cx="275" class="st5"/>
    <g>
      <circle r="3.0999999" cy="274.79999" cx="218.10001" class="st8"/>
      <circle r="3.0999999" cy="294.29999" cx="199.7" class="st8"/>
      <circle r="3.0999999" cy="274.79999" cx="193.5" class="st8"/>
    </g>
    <g>
      <circle r="3.0999999" cy="274.79999" cx="295.89999" class="st8"/>
      <circle r="3.0999999" cy="294.29999" cx="314.29999" class="st8"/>
      <circle r="3.0999999" cy="274.79999" cx="320.5" class="st8"/>
    </g>
  </g>
</svg>
