<?xml version="1.0" encoding="utf-8"?>
<svg height="100" width="100" viewBox="0 0 100 100" version="1.1" xmlns="http://www.w3.org/2000/svg">
  <style type="text/css">
	.st0{fill:url(#XMLID_4_);}
	.st1{fill:url(#XMLID_5_);}
	.st2{fill:url(#XMLID_8_);}
	.st3{fill:url(#XMLID_9_);}
	.st4{fill:url(#XMLID_11_);}
	.st5{opacity:0.3;fill:url(#XMLID_16_);}
</style>
  <linearGradient y2="559.15582" x2="469.38641" y1="517.15582" x1="429.38641" gradientUnits="userSpaceOnUse" id="XMLID_8_">
    <stop style="stop-color:#FF6533" offset="0"/>
    <stop style="stop-color:#FF5633" offset="0.1573"/>
    <stop style="stop-color:#FF4333" offset="0.4342"/>
    <stop style="stop-color:#FF3733" offset="0.7142"/>
    <stop style="stop-color:#FF3333" offset="1"/>
  </linearGradient>
  <linearGradient y2="552.8457" x2="506.94312" y1="514.20941" x1="450.12491" gradientUnits="userSpaceOnUse" id="XMLID_11_">
    <stop style="stop-color:#FBB040" offset="0"/>
    <stop style="stop-color:#FB8840" offset="1"/>
  </linearGradient>
  <linearGradient y2="933.75763" x2="450.3334" y1="295.7576" x1="508.3334" gradientUnits="userSpaceOnUse" id="XMLID_16_">
    <stop style="stop-color:#FFFFFF" offset="0"/>
    <stop style="stop-color:#FFFFFF;stop-opacity:0" offset="1"/>
  </linearGradient>
  <g transform="matrix(0.174246, 0, 0, 0.174246, -35.685482, -38.699932)">
    <g>
      <linearGradient id="XMLID_4_" gradientUnits="userSpaceOnUse" x1="444.46869" y1="526.05078" x2="598.46863" y2="562.05078">
        <stop offset="0" style="stop-color:#FF6533"/>
        <stop offset="0.1573" style="stop-color:#FF5633"/>
        <stop offset="0.4342" style="stop-color:#FF4333"/>
        <stop offset="0.7142" style="stop-color:#FF3733"/>
        <stop offset="1" style="stop-color:#FF3333"/>
      </linearGradient>
      <path style="fill: url(#XMLID_4_);" class="st0" d="m 721,410 c 0,-33.6 -8.8,-65.1 -24.3,-92.4 -41.1,-42.3 -130.5,-52.1 -152.7,-0.2 -22.8,53.2 38.3,112.4 65,107.7 34,-6 -6,-84 -6,-84 52,98 40,68 -54,158 -94,90 -190,279.9 -204,287.9 -0.6,0.4 -1.2,0.7 -1.9,1 h 368.7 c 6.5,0 10.7,-6.9 7.8,-12.7 L 623.2,584.5 c -2.1,-4.1 -0.6,-9.2 3.4,-11.5 C 683,540.6 721,479.8 721,410 Z"/>
    </g>
    <g>
      <linearGradient id="XMLID_5_" gradientUnits="userSpaceOnUse" x1="420.38251" y1="475.00201" x2="696.38251" y2="689.00201">
        <stop offset="0" style="stop-color:#BF3338"/>
        <stop offset="1" style="stop-color:#FF3333"/>
      </linearGradient>
      <path style="fill: url(#XMLID_5_);" class="st1" d="m 721,410 c 0,-33.6 -8.8,-65.1 -24.3,-92.4 -41.1,-42.3 -130.5,-52.1 -152.7,-0.2 -22.8,53.2 38.3,112.4 65,107.7 34,-6 -6,-84 -6,-84 52,98 40,68 -54,158 -94,90 -190,279.9 -204,287.9 -0.6,0.4 -1.2,0.7 -1.9,1 h 368.7 c 6.5,0 10.7,-6.9 7.8,-12.7 L 623.2,584.5 c -2.1,-4.1 -0.6,-9.2 3.4,-11.5 C 683,540.6 721,479.8 721,410 Z"/>
    </g>
    <path style="fill: url(#XMLID_8_);" class="st2" d="m 345,787 c 14,-8 110,-198 204,-288 94,-90 106,-60 54,-158 0,0 -199,279 -271,417"/>
    <g>
      <linearGradient id="XMLID_9_" gradientUnits="userSpaceOnUse" x1="502.11069" y1="589.4574" x2="490.11069" y2="417.4574">
        <stop offset="0" style="stop-color:#FF6533"/>
        <stop offset="0.1573" style="stop-color:#FF5633"/>
        <stop offset="0.4342" style="stop-color:#FF4333"/>
        <stop offset="0.7142" style="stop-color:#FF3733"/>
        <stop offset="1" style="stop-color:#FF3333"/>
      </linearGradient>
      <path style="fill: url(#XMLID_9_);" class="st3" d="M 373,537 C 507.4,289.9 525,265 595,265 c 36.8,0 73.9,16.6 97.9,46.1 -32.7,-52.7 -90.6,-88 -156.9,-89 v 0 H 307.7 c -4.8,0 -8.7,3.9 -8.7,8.7 V 412 598 691 c 13.6,-35.1 36.7,-85.3 74,-154 z"/>
    </g>
    <path style="fill: url(#XMLID_11_);" class="st4" d="m 549,499 c -94,90 -190,280 -204,288 -14,8 -37.5,9 -50,-5 -13.3,-14.9 -34,-39 78,-245 134.4,-247.1 152,-272 222,-272 36.8,0 73.9,16.6 97.9,46.1 1.3,2.1 2.6,4.3 3.9,6.5 -41.1,-42.3 -130.5,-52.1 -152.7,-0.2 -22.8,53.2 38.3,112.4 65,107.7 34,-6 -6,-84 -6,-84 C 655,439 643,409 549,499 Z"/>
    <path style="fill: url(#XMLID_16_);" class="st5" d="M 384,548 C 518.4,300.9 536,276 606,276 c 30.3,0 60.8,11.3 84,31.7 -24,-27.4 -59.6,-42.7 -95,-42.7 -70,0 -87.6,24.9 -222,272 -112,206 -91.3,230.1 -78,245 1.9,2.1 4.1,3.9 6.4,5.4 -11.7,-17 -16.9,-56.5 82.6,-239.4 z"/>
  </g>
</svg>
