<?xml version="1.0" encoding="utf-8"?>
<svg version="1.1" height="100" width="100" viewBox="0 0 100 100" xmlns="http://www.w3.org/2000/svg">
  <path d="M 60.218 57.038 C 63.473 55.422 68.304 45.423 71.483 39.944 C 71.712 39.54 72.119 39.868 71.89 40.146 C 63.854 53.881 67.262 55.472 70.441 55.27 C 74.687 55.018 78.603 48.958 79.468 47.595 C 79.824 47.064 80.027 47.494 79.824 47.872 C 79.62 48.504 78.883 49.614 78.196 51.129 C 77.23 53.275 78.247 54.109 79.086 54.487 C 80.409 55.119 84.02 54.715 84.579 52.518 C 80.968 52.442 89.614 35.526 90.504 34.491 C 88.088 33.102 84.35 34.617 82.646 37.95 C 79.01 45.095 75.959 50.852 74.051 50.953 C 70.339 51.155 78.324 35.021 79.62 34.516 C 78.832 33.38 73.772 33.859 70.949 38.202 C 69.932 39.768 63.727 50.675 62.201 52.468 C 59.506 55.649 59.303 52.922 60.065 49.741 C 60.32 48.655 60.752 47.266 61.311 45.726 C 63.091 41.737 64.999 40.474 66.168 39.187 C 74.026 30.527 78.527 23.507 76.747 20.755 C 75.17 18.306 69.907 19.392 66.524 24.442 C 60.294 33.708 54.547 46.408 53.81 52.215 C 53.098 58.022 57.345 58.451 60.218 57.038 Z M 63.524 40.045 C 63.804 39.414 63.982 39.237 64.465 38.177 C 64.465 38.177 64.465 38.177 64.465 38.177 C 67.262 32.067 70.771 25.628 73.187 22.624 C 74.687 21.058 76.798 23.179 72.983 28.986 C 70.746 32.42 68.203 35.576 65.431 38.354 C 65.431 38.354 65.431 38.354 65.431 38.379 C 64.719 39.162 64.083 39.818 63.804 40.197 C 63.6 40.449 63.371 40.399 63.524 40.045 Z M 98.641 58.401 C 86.969 56.886 61.795 58.906 50.682 61.835 C 47.376 62.693 48.292 64.435 49.97 64.107 C 49.995 64.107 50.708 63.93 50.733 63.93 C 59.862 62.163 82.011 60.623 94.929 63.072 C 96.48 63.35 101.133 58.729 98.641 58.401 Z M 56.963 37.015 C 55.107 35.551 49.894 38 48.419 41.636 C 46.563 46.256 43.816 52.998 41.121 55.952 C 38.273 59.057 37.993 56.659 38.273 54.866 C 38.934 50.65 43.079 40.878 45.342 38.126 C 44.503 36.889 39.01 37.066 35.196 42.949 C 33.772 45.171 30.517 52.569 26.906 58.401 C 26.118 59.663 25.126 58.78 25.889 55.826 C 26.753 52.417 29.296 43.05 32.577 35.677 C 41.172 33.986 50.301 32.799 57.294 32.774 C 58.235 32.521 58.87 31.688 57.294 31.637 C 51.267 31.435 42.214 32.142 33.746 33.203 C 35.374 29.971 37.128 27.396 38.908 26.31 C 36.976 25.098 33.06 25.578 30.822 28.86 C 29.83 30.325 28.838 32.092 27.898 34.011 C 21.693 34.97 16.378 36.056 13.683 37.066 C 10.885 38.126 11.191 41.484 12.894 40.853 C 16.429 39.54 21.21 38.177 26.524 36.965 C 23.142 44.539 20.498 53.477 19.862 57.113 C 18.285 65.95 23.803 65.9 26.499 62.415 C 29.423 58.603 35.526 45.196 36.467 43.782 C 36.747 43.302 37.128 43.555 36.925 43.984 C 30.11 57.492 30.695 62.718 36.213 61.557 C 38.705 61.027 43.002 56.785 44.121 54.588 C 44.35 54.058 44.833 54.109 44.732 54.336 C 40.409 65.471 34.916 74.484 31.229 77.312 C 27.872 79.862 25.38 74.333 37.256 66.405 C 39.01 65.218 38.196 63.602 36.213 64.158 C 36.213 64.158 36.213 64.158 36.213 64.158 C 30.084 65.117 12.538 70.646 4.833 75.949 C 4.248 76.353 3.714 76.681 3.74 77.514 C 3.765 77.994 4.605 77.817 5.011 77.565 C 14.98 71.631 23.142 69.308 32.5 67.364 C 32.627 67.415 32.78 67.44 32.907 67.389 C 33.339 67.288 33.314 67.516 33.034 67.692 C 32.399 68.046 31.763 68.374 31.61 68.425 C 25.304 70.874 21.489 76.277 22.837 79.029 C 23.981 81.402 30.161 80.544 33.085 78.979 C 40.256 75.115 45.469 67.541 49.029 57.088 C 52.132 47.822 56.048 37.318 56.963 37.015 Z M 90.936 43.403 C 91.928 45.827 93.428 48.226 92.538 50.347 C 91.801 52.165 90.835 52.922 89.767 53.099 C 88.266 53.351 88.673 48.68 91.242 47.292 C 91.47 47.165 91.801 46.559 91.496 46.206 C 88.241 46.029 86.41 47.569 85.418 49.614 C 82.545 55.598 91.928 57.24 96.531 51.357 C 98.362 49.008 98.438 46.686 96.683 42.469 C 95.564 39.793 93.861 37.798 94.929 36.031 C 96.073 34.162 98.819 35.778 96.76 38.278 L 97.217 38.53 C 99.887 38.682 100.981 35.147 98.947 34.263 C 93.581 31.991 88.571 37.722 90.936 43.403 Z M 15.412 66.935 C 18.006 63.855 18.311 60.673 16.302 54.765 C 15.03 51.028 12.92 48.15 14.471 45.827 C 16.124 43.353 19.633 45.751 16.709 49.059 L 17.294 49.463 C 20.803 49.867 22.532 45.095 19.913 43.732 C 12.996 40.146 6.944 47.039 9.614 55.018 C 10.758 58.401 12.36 61.986 11.064 64.839 C 9.945 67.288 7.783 68.728 6.334 68.778 C 3.308 68.93 5.317 62.037 8.8 60.32 C 9.105 60.168 9.538 59.966 9.131 59.461 C 4.833 58.982 2.316 60.951 0.866 63.703 C -3.355 71.707 8.877 74.661 15.412 66.935 Z"/>
</svg>
