<?xml version="1.0" encoding="utf-8"?>
<svg width="100" height="100" viewBox="0 0 100 100" version="1.1" xmlns="http://www.w3.org/2000/svg">
  <g>
    <path d="m 95.891046,59.935503 c 5.478724,-5.47835 5.478544,-14.392657 -1.76e-4,-19.871183 -2.65389,-2.653884 -6.182774,-4.115283 -9.936179,-4.115283 -0.891209,0 -1.768669,0.08124 -2.624455,0.241422 3.729612,-2.550971 6.146468,-6.840537 6.146468,-11.610305 0,-7.747722 -6.303668,-14.050963 -14.051916,-14.050963 -4.779608,0 -9.076866,2.426384 -11.626073,6.168256 C 64.642164,12.249106 63.319184,7.4948456 59.939571,4.1154599 57.28568,1.4615752 53.756797,1.5729405e-7 50.003392,1.5729405e-7 46.249986,1.5729405e-7 42.721103,1.4615752 40.067216,4.1154599 36.687424,7.4948456 35.364622,12.249282 36.208071,16.697623 33.658865,12.955751 29.36143,10.529191 24.581822,10.529191 c -7.748248,0 -14.051916,6.303241 -14.051916,14.050963 0,4.769944 2.416679,9.059334 6.146292,11.610129 -0.855786,-0.160008 -1.732896,-0.241246 -2.624281,-0.241246 -3.753405,0 -7.2821126,1.461575 -9.9361772,4.115459 C 1.4616747,42.718383 4.9166115e-7,46.247027 4.9166115e-7,50.000001 c 0,3.753147 1.46167420833885,7.281615 4.11573930833885,9.935678 2.6540646,2.65371 6.1829482,4.115285 9.9361772,4.115285 0.891209,0 1.768319,-0.08124 2.624281,-0.241425 -3.729613,2.550974 -6.146292,6.840539 -6.146292,11.610307 0,7.747721 6.303668,14.050786 14.051916,14.050786 4.779608,0 9.077219,-2.426385 11.626249,-6.168256 -0.843449,4.448519 0.47953,9.202955 3.859145,12.582339 C 42.721279,98.538425 46.250162,100 50.003392,100 c 3.753405,0 7.282288,-1.461575 9.936179,-4.115461 3.379613,-3.379384 4.702417,-8.133996 3.858968,-12.582339 2.549203,3.741871 6.846641,6.168432 11.626249,6.168432 7.748248,0 14.051916,-6.303065 14.051916,-14.050786 0,-4.769768 -2.416856,-9.059333 -6.146292,-11.610307 0.855786,0.160185 1.73307,0.241425 2.624279,0.241425 3.753405,0 7.282289,-1.461575 9.936355,-4.115461" fill="#000000"/>
    <path d="m 91.650888,44.301548 c -3.147341,-3.146949 -8.25016,-3.146949 -11.397501,0 H 63.75871 L 75.422321,32.638906 c 4.450932,0 8.059121,-3.607944 8.059121,-8.058752 0,-4.450632 -3.608189,-8.058752 -8.059121,-8.058752 -4.451111,0 -8.059301,3.60812 -8.059301,8.058752 L 55.699585,36.242973 V 19.749414 c 3.147166,-3.147127 3.147166,-8.249599 -1.76e-4,-11.3967257 -3.147338,-3.1471264 -8.250156,-3.1471264 -11.397497,0 -3.147342,3.1471267 -3.147342,8.2495987 0,11.3967257 V 36.242973 L 32.638477,24.580154 c 0,-4.450632 -3.608188,-8.058752 -8.059298,-8.058752 -4.450934,0 -8.059299,3.60812 -8.059299,8.058752 0,4.450808 3.608365,8.058752 8.059299,8.058752 L 36.242613,44.301548 H 19.748111 c -3.147516,-3.147125 -8.250335,-3.146949 -11.3976754,1.75e-4 -3.1473399,3.147128 -3.1473399,8.2496 0,11.396728 3.1473404,3.147124 8.2503354,3.147124 11.3976754,0 H 36.242613 L 24.579179,67.361095 c -4.450934,0 -8.059299,3.607941 -8.059299,8.058751 0,4.450633 3.608365,8.05875 8.059299,8.05875 4.45111,0 8.059298,-3.608117 8.059298,-8.05875 L 44.301912,63.757201 v 16.493383 c -3.147342,3.147127 -3.147342,8.249775 0,11.396903 3.147341,3.147128 8.250335,3.147128 11.397673,0 3.147166,-3.147128 3.147166,-8.249776 0,-11.396903 V 63.757201 L 67.36302,75.419846 c 0,4.450633 3.60819,8.05875 8.059301,8.05875 4.450932,0 8.059121,-3.608117 8.059121,-8.05875 0,-4.45081 -3.608189,-8.058751 -8.059121,-8.058751 L 63.75871,55.698451 h 16.494677 c 3.147341,3.147124 8.25016,3.147124 11.397501,0 3.147338,-3.147128 3.147338,-8.249776 0,-11.396903" fill="#FFB13B"/>
  </g>
</svg>
