<svg xmlns="http://www.w3.org/2000/svg" viewBox="0 0 100 100">
  <path d="M49.99539608 1.23412847c-27.60981 0-49.9953958 22.3855858-49.9953958 50.00153473 0 22.09091746 14.3251788 40.8299825 34.19380582 47.44467295 2.50161147.45734982 3.41324166-1.08658952 3.41324166-2.41259707 0-1.1848123-.04297247-4.33101078-.06752816-8.50240953-13.90773198 3.02035053-16.84213757-6.70370484-16.84213757-6.70370484-2.27447129-5.77365788-5.55265662-7.3114583-5.55265662-7.3114583-4.53973419-3.103226.34377973-3.04183677.34377973-3.04183677 5.01857025.35605758 7.6583075 5.15362657 7.6583075 5.15362657 4.45992818 7.63989073 11.70385831 5.4329476 14.55231898 4.15605144.45428036-3.2321434 1.74345437-5.43601706 3.17382363-6.68528807-11.10224378-1.26154885-22.77540747-5.55265661-22.77540747-24.71223794 0-5.4575033 1.94910832-9.92050094 5.14748764-13.41661807-.5156696-1.2646183-2.23149882-6.34764725.48804445-13.23245035 0 0 4.1990239-1.34442432 13.75118941 5.12600141 3.98723104-1.10807575 8.26606096-1.66364836 12.51726573-1.68206513 4.24506584.01841677 8.52389576.57398938 12.51726572 1.68206513 9.54602658-6.47042573 13.7358421-5.1260014 13.7358421-5.1260014 2.72875166 6.88480309 1.01292244 11.96783203.49725284 13.23245034 3.20451825 3.49611713 5.14134872 7.95911477 5.14134872 13.41661807 0 19.20869272-11.69158047 23.43534178-22.83065779 24.67233494 1.79563523 1.54393935 3.3948249 4.5949845 3.3948249 9.26056662 0 6.6822186-.06138925 12.0752632-.06138925 13.71435588 0 1.3382854.89935235 2.89450259 3.43779736 2.40645814 19.85327972-6.62696829 34.16618067-25.35375548 34.16618067-47.43853402 0-27.61594892-22.38865527-50.00153473-50.0046042-50.00153473"/>
</svg>
