<?xml version="1.0" encoding="utf-8"?>
<svg height="100" width="100" viewBox="0 0 100 100" version="1.1" xmlns="http://www.w3.org/2000/svg">
  <path d="M 0 0 L 0 100 L 100 100 L 100 0 L 0 0 Z M 76.104 45.372 C 82.078 45.372 86.374 47.454 89.461 52.891 L 82.145 57.59 C 80.534 54.703 78.789 53.562 76.104 53.562 C 73.351 53.562 71.606 55.308 71.606 57.59 C 71.606 60.409 73.352 61.55 77.379 63.296 L 79.728 64.302 C 87.716 67.726 92.214 71.216 92.214 79.07 C 92.214 87.528 85.568 92.159 76.641 92.159 C 67.914 92.159 62.276 87.998 59.524 82.56 L 67.176 78.13 C 69.19 81.419 71.808 83.836 76.439 83.836 C 80.333 83.836 82.816 81.889 82.816 79.204 C 82.816 75.982 80.265 74.841 75.969 72.962 L 73.62 71.954 C 66.84 69.068 62.343 65.443 62.343 57.791 C 62.343 50.743 67.713 45.372 76.104 45.372 Z M 45.022 45.91 L 54.419 45.91 L 54.419 77.995 C 54.419 87.728 48.714 92.159 40.39 92.159 C 32.873 92.159 28.509 88.265 26.294 83.567 L 26.294 83.567 L 26.294 83.566 C 26.294 83.567 26.294 83.567 26.294 83.567 L 33.947 78.936 C 35.423 81.554 36.766 83.768 39.987 83.768 C 43.075 83.768 45.022 82.56 45.022 77.862 L 45.022 45.91 Z"/>
</svg>
