<?xml version="1.0" encoding="utf-8"?>
<svg width="100" height="100" viewBox="0 0 100 100" version="1.1" xmlns="http://www.w3.org/2000/svg">
  <path d="M 50.025 0.001 C 44.467 -0.061 39.051 3.353 36.825 8.466 C 35.909 10.32 35.427 12.359 35.268 14.414 C 32.31 11.629 28.217 10.033 24.136 10.376 C 19.887 10.536 15.851 12.911 13.292 16.251 C 10.949 19.292 10.002 23.249 10.506 27.038 C 10.868 29.777 12.216 32.33 13.848 34.526 C 15.096 35.511 13.257 35.241 12.521 35.454 C 6.653 36.314 1.582 40.991 0.382 46.814 C -1.197 53.191 2.26 60.281 8.153 63.123 C 10.094 64.115 12.252 64.623 14.422 64.754 C 11.723 67.917 9.937 72.076 10.438 76.291 C 10.864 82.151 15.249 87.329 20.816 89.063 C 23.217 89.77 25.817 89.746 28.27 89.342 C 30.855 88.671 33.325 87.401 35.27 85.558 C 35.534 91.13 38.951 96.497 44.117 98.748 C 50.376 101.654 58.581 99.344 62.244 93.456 C 63.807 91.128 64.743 88.376 64.811 85.566 C 69.047 89.509 75.626 90.911 80.949 88.429 C 86.465 85.983 90.39 79.948 89.67 73.851 C 89.54 70.454 87.924 67.213 85.627 64.757 C 91.33 64.626 96.732 60.97 98.947 55.715 C 100.276 53.101 100.022 50.106 99.888 47.279 C 99.253 43.359 96.664 40.008 93.501 37.731 C 91.114 36.313 88.44 35.304 85.639 35.216 C 89.002 31.75 90.5 26.601 89.422 21.88 C 88.067 15.092 81.252 9.827 74.318 10.362 C 70.774 10.43 67.447 12.116 64.811 14.4 C 64.657 10.59 63.114 6.783 60.242 4.212 C 57.66 1.356 53.822 -0.014 50.025 0.001 Z"/>
</svg>
