<?xml version="1.0" encoding="utf-8"?>
<svg viewBox="0 0 100 100" height="100" width="100" version="1.1" xmlns="http://www.w3.org/2000/svg">
  <path d="M 49.842477,0.00182648 Q 63.239244,-0.11065132 75.016897,6.6973627 87.966688,14.173994 94.665072,27.452591 L 53.249494,25.278025 Q 44.319357,24.775 36.839547,29.433445 29.359738,34.091892 26.512221,42.237139 L 11.105625,18.582488 Q 18.250985,9.7123847 28.465786,4.885225 38.680587,0.05806438 49.842477,0.00182648 Z M 8.148708,22.597311 26.959197,59.5868 q 4.019655,7.979653 11.777653,12.106954 7.757997,4.127299 16.353684,2.511996 L 42.253266,99.369471 Q 30.419351,97.529217 20.764051,90.580603 11.108751,83.631994 5.5543737,72.949754 -2.1988219e-6,62.267513 -2.1988219e-6,49.991843 q 0,-14.897024 8.1487101988219,-27.394532 z m 88.526193,9.429366 q 3.238231,8.370205 3.322624,17.324666 0.08442,8.95446 -2.706861,17.07159 -2.791253,8.117127 -8.539423,15.175091 -5.74817,7.057966 -13.731216,11.68829 -12.837268,7.420396 -27.796887,6.639297 L 69.828227,65.166933 Q 74.738711,57.859016 74.432391,48.95767 74.126058,40.056327 68.4873,33.476389 Z M 50.011264,33.14208 q 6.976574,0 11.91831,4.936516 4.941737,4.936514 4.938614,11.913247 -0.0031,6.976731 -4.938614,11.913241 -4.935487,4.936513 -11.91831,4.936513 -6.982824,0 -11.91831,-4.936513 -4.935486,-4.93651 -4.938612,-11.913241 -0.0031,-6.976733 4.938612,-11.913247 4.94174,-4.936516 11.91831,-4.936516 z"/>
</svg>
