<?xml version="1.0" encoding="utf-8"?>
<svg viewBox="0 0 92.397446 100" height="100" width="92.397446" version="1.1" xmlns="http://www.w3.org/2000/svg">
  <path d="M 5.0903321e-7,44.410961 H 0.05630025 Q 0.95096353,37.372526 3.3252638,30.919063 5.6995605,24.4656 9.7505747,18.797313 13.801584,13.129027 19.106998,8.9654003 24.412418,4.8017735 31.591618,2.4024518 38.770823,0.00312687 47.038639,-1.6328466e-6 q 12.903798,0 23.126735,5.8935159328466 10.222937,5.8935177 16.423014,16.9548087 5.809057,10.445039 5.809057,24.690831 v 10.501347 h -62.84228 q 0.0563,6.200081 2.987427,10.754727 2.931114,4.554651 7.626534,6.844491 4.695419,2.289837 10.585807,3.184496 5.89039,0.894664 11.89965,0.168933 6.009258,-0.725736 11.618112,-2.596396 5.608847,-1.87066 9.691143,-4.720443 v 21.058998 q -5.139623,3.071886 -12.819341,5.13962 -7.679713,2.067737 -17.455321,2.124043 -9.775603,0.0563 -17.652394,-2.95927 Q 25.479131,92.960537 18.634641,83.131752 11.790154,73.302968 11.680667,62.351165 11.511734,48.834241 17.880747,39.337044 24.249751,29.839849 36.036782,24.36551 q -2.680863,3.350295 -4.357574,7.010282 -1.676713,3.659984 -2.568246,8.909095 H 64.581551 Q 65.02888,35.98362 64.134217,32.464404 63.239554,28.945185 61.509664,26.792988 59.77977,24.640792 57.571267,23.076694 55.362763,21.512597 53.072923,20.786856 50.783086,20.061116 48.884272,19.641938 46.98546,19.22276 45.756079,19.166452 l -1.229377,-0.05631 q -7.542077,0.278409 -14.496054,2.486913 -6.953973,2.208505 -12.484617,5.837209 -5.530644,3.628705 -9.8319134,7.848638 -4.3012636,4.219934 -7.70786706,9.134324 z"/>
</svg>
