<?xml version="1.0" encoding="utf-8"?>
<svg viewBox="0 0 100 100" height="100" width="100" version="1.1" xmlns="http://www.w3.org/2000/svg">
  <path d="m 50.000002,-1.55e-6 c -6.770834,0 -13.242968,1.32122395 -19.41797,3.96289095 C 24.407032,6.6045563 19.085677,10.15651 14.621095,14.621092 10.15651,19.085676 6.6045575,24.40703 3.9628908,30.582031 1.3212246,36.757032 0,43.229167 0,50.000001 c 0,6.770833 1.3212246,13.242967 3.9628908,19.417969 2.6416667,6.175 6.1936192,11.496356 10.6582042,15.960937 4.464582,4.464585 9.785937,8.016537 15.960937,10.658204 C 36.757034,98.678779 43.229168,100 50.000002,100 c 6.770833,0 13.242969,-1.321221 19.417969,-3.962889 6.175,-2.641667 11.496356,-6.193619 15.960937,-10.658204 C 89.843493,80.914326 93.395445,75.59297 96.037112,69.41797 98.67878,63.242968 100,56.770834 100,50.000001 100,43.229167 98.67878,36.757032 96.037112,30.582031 93.395445,24.40703 89.843493,19.085676 85.378908,14.621092 80.914327,10.15651 75.592971,6.6045563 69.417971,3.9628894 63.242971,1.3212224 56.770835,-1.55e-6 50.000002,-1.55e-6 Z m -0.0039,5.35351585 c 6.064582,0 11.851174,1.1804694 17.357422,3.5429691 5.506252,2.3624996 10.24922,5.5343746 14.230469,9.5156246 3.981252,3.981252 7.153126,8.726173 9.515625,14.232423 2.362501,5.506251 3.544923,11.290887 3.544923,17.35547 0,6.064584 -1.182422,11.84922 -3.544923,17.355469 -2.362499,5.506251 -5.534373,10.251174 -9.515625,14.232423 -3.981249,3.98125 -8.724217,7.153124 -14.230469,9.515625 -5.506248,2.3625 -11.29284,3.542968 -17.357422,3.542968 -6.064585,0 -11.84922,-1.180468 -17.355469,-3.542968 -5.50621,-2.362501 -10.249179,-5.534375 -14.23043,-9.515625 -3.98125,-3.981249 -7.153124,-8.726172 -9.5156245,-14.232423 -2.3625,-5.506249 -3.5449219,-11.290885 -3.5449219,-17.355469 0,-6.064583 1.1824219,-11.849219 3.5449219,-17.35547 2.3625005,-5.50625 5.5343745,-10.251171 9.5156245,-14.232423 3.981251,-3.98125 8.72422,-7.153125 14.23047,-9.5156247 5.50625,-2.3624996 11.290885,-3.542969 17.355469,-3.542969 z m 0.0039,4.7460937 c -2.34375,0 -4.836846,0.241276 -7.478517,0.72461 l 0.837891,3.685546 c 0.08608,0.464777 -0.03461,0.74216 -0.558594,0.892578 -0.483332,0 -0.762893,-0.185677 -0.83789,-0.558594 l -0.83789,-3.73828 c -4.910418,1.116665 -9.44857,3.108072 -13.615235,5.972656 -4.166668,2.864584 -7.682292,6.380209 -10.546876,10.546875 1.437832,0.786704 3.34288,1.765086 3.720703,2.392579 0,0.445834 -0.336978,1.009766 -0.820312,1.009766 -1.278002,-0.431027 -2.81536,-1.584667 -3.685547,-2.173828 -4.054167,6.435416 -6.080079,13.485808 -6.080079,21.150391 0,2.491666 0.260417,5.076692 0.78125,7.755859 l 3.79297,-0.83789 c 0.584051,-0.103125 0.744113,0.03461 0.894531,0.558594 0,0.445822 -0.18763,0.725378 -0.560547,0.837889 l -3.84961,0.837891 c 1.152084,4.910417 3.197136,9.459115 6.136719,13.644532 2.939584,4.185417 6.512631,7.671354 10.716798,10.460938 0.885511,-1.49435 2.110745,-3.662623 2.777343,-3.994141 0.483334,0 0.90625,0.217839 0.90625,0.701172 -0.0099,0.589806 -1.660936,2.748363 -2.455079,4.072266 6.435417,3.906252 13.353647,5.859375 20.757814,5.859375 2.752085,0 5.469271,-0.279569 8.148438,-0.83789 l -0.894531,-3.79297 c -0.163017,-0.461269 0.0594,-0.698341 0.558594,-0.83789 0.520822,0 0.800375,0.185678 0.83789,0.558593 l 0.894532,3.738283 c 4.872918,-1.189583 9.366016,-3.245183 13.478515,-6.166016 4.112501,-2.920833 7.544792,-6.464193 10.296876,-10.63086 -2.195836,-1.264585 -3.355469,-1.974739 -3.355469,-2.347657 0,-0.483333 0.301821,-0.833984 0.785156,-0.833984 1.232224,0.53277 2.275387,1.253428 3.351563,1.953126 3.868749,-6.325 5.802735,-13.226044 5.802735,-20.703126 0,-2.529167 -0.260406,-5.133334 -0.78125,-7.812501 l -3.181642,0.724609 c -0.425452,0.0069 -0.686308,-0.01121 -0.837891,-0.558593 0,-0.520833 0.187632,-0.819534 0.560547,-0.894532 l 3.125001,-0.667968 c -1.154166,-4.8375 -3.154166,-9.322004 -6,-13.451172 -2.845834,-4.129167 -6.333724,-7.587371 -10.462891,-10.376954 -1.377083,2.38125 -2.269402,3.572266 -2.677735,3.572266 -0.445833,0 -0.669922,-0.24323 -0.669922,-0.726562 0,-0.335418 0.725783,-1.543621 2.175783,-3.626954 -6.51042,-4.054167 -13.56081,-6.082032 -21.150392,-6.082032 z M 73.324221,20.646484 53.79297,53.068359 c -4.943416,5.314425 -11.222848,10.551827 -16.908203,16.099611 -2.456251,2.287499 -4.8,4.454166 -7.03125,6.5 -2.231252,2.045833 -3.477865,3.200521 -3.738282,3.460937 L 45.589846,46.761719 c 0.1125,-0.225 1.053646,-1.183332 2.820311,-2.875 7.02483,-6.722323 13.623627,-12.721306 21.148439,-19.751953 2.175,-2.027084 3.430207,-3.190365 3.765625,-3.488282 z M 49.566408,46.574219 a 3.3993611,3.3993611 0 0 0 -3.400391,3.400391 3.3993611,3.3993611 0 0 0 3.400391,3.398437 3.3993611,3.3993611 0 0 0 3.398437,-3.398437 3.3993611,3.3993611 0 0 0 -3.398437,-3.400391 z"/>
</svg>
