<?xml version="1.0" encoding="utf-8"?>
<svg width="100" height="100" viewBox="0 0 100 100" version="1.1" xmlns="http://www.w3.org/2000/svg">
  <path style="fill:#737373;" d="M 74.980469 30.091797 L 49.349609 99.654297 L 50.287109 100 L 75.914062 30.449219 L 74.980469 30.091797 z M 11.871094 45.935547 C 11.621094 46.001957 11.779614 45.963933 11.621094 46.001953 L 0 52.710938 L 0.5 53.578125 L 12.005859 46.935547 L 49 46.935547 L 49 45.935547 L 11.871094 45.935547 z M 87.984375 45.935547 L 87.984375 46.935547 L 87.994141 46.935547 L 99.5 53.578125 L 100 52.710938 L 88.378906 46.001953 C 88.255927 45.959753 88.255459 45.962957 88.128906 45.935547 L 87.984375 45.935547 z "/>
  <path style="fill:#ff6347;" d="m 51,45.935547 v 1 h 16.243883 l 0.46875,-1 z m 20.706774,0 -0.398437,1 h 14.676038 v -1 z"/>
</svg>
