<?xml version="1.0" encoding="utf-8"?>
<svg version="1.1" width="100" height="100" viewBox="0 0 100 100" xmlns="http://www.w3.org/2000/svg">
  <g transform="matrix(1.3333333,0,0,-1.3333333,0,100)">
    <path style="fill: rgb(115, 115, 115);" d="m 75.000004,63.394862 -1.2174,-0.706157 0.381815,-0.664878 0.835585,0.483548 z M 0.38181259,63.002716 -1.3425e-6,62.339312 1.3025716,61.584506 1.6843855,62.24791 Z m 72.09821941,-1.070291 -1.302573,-0.754806 0.381814,-0.664878 1.302573,0.754806 z M 2.9869584,61.493105 2.6051445,60.828226 3.9077174,60.07342 l 0.381814,0.664879 z m 66.8864596,-1.070292 -1.302573,-0.754806 0.381813,-0.664877 1.302573,0.754805 z M 5.5921043,59.983493 5.2102904,59.318614 6.5128633,58.563808 6.8946772,59.228687 Z m 61.6761677,-1.071766 -1.302573,-0.754806 0.381814,-0.663403 1.302572,0.754806 z m -2.606615,-1.509612 -1.301104,-0.754806 0.381814,-0.664877 1.302573,0.754806 z m -2.605146,-1.511086 -1.302573,-0.754806 0.381814,-0.663403 1.302573,0.754806 z m -2.605146,-1.509612 -1.302572,-0.754806 0.381813,-0.664878 1.302573,0.754806 z M 8.5291346,54.161757 V 24.615232 24.408839 C 18.154813,18.828085 27.779546,13.24938 37.406016,7.6704276 47.031466,13.250208 56.657213,18.82947 66.282898,24.408839 v 16.644062 c 5.72e-4,0.224986 -0.08854,0.349688 -0.258459,0.446691 -9.77e-4,4.96e-4 -0.002,9.82e-4 -0.0029,0.0015 l -14.35474,8.32052 -13.903902,-8.056668 V 54.161757 L 23.146734,45.690829 Z M 9.2413647,52.921929 22.789885,45.068704 V 16.969873 L 9.2413647,24.818675 Z m 27.8078023,0 V 33.086159 L 23.502115,25.234408 v 19.83577 z m 19.795584,-0.05013 -1.301104,-0.754806 0.381813,-0.664878 1.302573,0.754806 z m -2.605146,-1.511086 -1.302573,-0.754806 0.381814,-0.664878 1.302573,0.75628 z M 51.666767,48.99605 65.213819,41.144299 51.665298,33.292549 38.118246,41.145774 Z m -0.102796,-3.305224 c -2.595557,-1.507085 -5.237314,-3.035442 -7.843339,-4.546527 2.619623,-1.518377 5.221417,-3.029885 7.843339,-4.545052 2.617181,1.516082 5.22502,3.023124 7.841871,4.545052 -2.612164,1.514077 -5.237631,3.035846 -7.841871,4.546527 z m -0.355381,-1.03491 v -3.305224 l -3.210174,-1.860479 -2.851856,1.654086 z m 0.71223,0 6.060562,-3.511617 -2.853325,-1.654086 -3.207237,1.860479 z m -0.356849,-3.924401 2.851856,-1.654087 -2.851856,-1.652612 -2.851857,1.652612 z M 65.570668,40.525126 V 24.821624 L 52.022147,16.969873 c 0.0024,5.240576 0,10.462174 0,15.703502 z m -27.807803,-0.0015 13.547053,-7.851751 V 25.232898 L 37.762865,33.086159 Z M 37.404548,32.465509 50.953068,24.613758 37.406016,16.762006 23.858964,24.615232 Z M 1.1292868,29.519996 0.74747284,28.855118 2.0500458,28.100312 2.4318597,28.76519 Z M 37.373709,29.086572 c -0.09615,-0.01119 -0.203403,-0.05567 -0.324542,-0.134154 l -7.48649,-4.337186 7.843339,-4.546527 c 2.617828,1.516988 5.225004,3.025056 7.84334,4.546527 l -7.614251,4.410897 c -0.0797,0.05059 -0.165243,0.07163 -0.261396,0.06044 z m -0.324542,-0.961198 v -3.30375 l -3.208706,-1.860479 -2.850387,1.654087 z m 0.713698,0 6.059094,-3.510142 -2.850388,-1.654087 -3.208706,1.860479 z M 3.7344327,28.010384 3.3526187,27.345506 4.6551916,26.5907 l 0.381814,0.664878 z m 2.6051458,-1.511086 -0.381814,-0.663404 1.302573,-0.754806 0.3818136,0.663404 z m 31.0664375,-2.299799 2.853325,-1.651138 -2.853325,-1.652613 -2.853325,1.652613 z M 7.352854,24.183286 6.050281,23.42848 6.432095,22.763602 7.7346676,23.518408 Z m 60.192967,-0.05455 -0.381814,-0.664879 1.302573,-0.754805 0.381814,0.664878 z M 23.502115,23.996055 37.406016,15.936437 51.309918,23.993106 V 16.555614 L 37.406016,8.4959966 23.502115,16.557089 Z M 4.7462396,22.672196 3.4451351,21.91739 3.8269491,21.253986 5.129522,22.008792 Z m 65.4061954,-0.05307 -0.383282,-0.664878 1.302573,-0.754806 0.383282,0.663404 z M 2.1410937,21.162585 0.83852082,20.40778 1.2218033,19.742902 2.5243762,20.497708 Z m 70.6164873,-0.05455 -0.381814,-0.663404 1.301104,-0.754806 0.383283,0.663405 z M 38.993481,7.5244776 38.611667,6.8595992 39.91424,6.1047933 40.296054,6.7696716 Z M 35.538065,7.4596096 34.235492,6.7048036 34.618775,6.039926 35.919879,6.794732 Z M 41.598627,6.0148642 41.216813,5.3499858 42.519386,4.5951799 42.9012,5.2600582 Z M 32.932919,5.9499962 31.630346,5.1951902 32.01216,4.5303126 33.314733,5.2851185 Z M 44.203773,4.5037766 43.821959,3.8403724 45.124532,3.0855665 45.506346,3.7489707 Z M 30.327774,4.4389086 29.025201,3.6841027 29.407014,3.0206992 30.709587,3.7755051 Z m 16.481144,-1.4447454 -0.381813,-0.6648783 1.302573,-0.754806 0.381813,0.6648784 z m -19.08629,-0.064868 -1.302573,-0.7548059 0.381813,-0.6648777 1.302573,0.754806 z M 49.415533,1.4845498 49.032251,0.81967145 50.334823,0.0648655 50.716637,0.72974387 Z M 25.117482,1.4196818 23.814909,0.66487585 24.196723,-1.7679933e-6 25.499295,0.75480418 Z"/>
    <path style="fill: rgb(255, 99, 71);" d="m 8.5261976,75.000003 v -1.509612 h 0.7636279 v 1.509612 z m 14.2578124,0 v -1.509612 h 0.763629 v 1.509612 z m 14.234318,0 v -1.509612 h 0.763628 v 1.509612 z M 8.5261976,71.979305 v -1.509612 h 0.7636279 v 1.509612 z m 14.2578124,0 v -1.509612 h 0.763629 v 1.509612 z m 14.234318,0 v -1.509612 h 0.763628 v 1.509612 z M 8.5261976,68.960081 v -1.509612 h 0.7636279 v 1.509612 z m 28.4921304,0 v -1.509612 h 0.763628 v 1.509612 z M 22.78401,68.958572 V 67.44896 h 0.763629 v 1.509609 z M 8.5261976,65.939348 v -1.509612 h 0.7636279 v 1.509612 z m 28.4921304,0 v -1.509612 h 0.763628 v 1.509612 z m -14.234318,-0.0015 v -1.509611 h 0.763629 v 1.509611 z M 8.5261976,62.920126 V 61.40904 h 0.7636279 v 1.511086 z m 28.4921304,0 V 61.40904 h 0.763628 v 1.511086 z M 22.78401,62.918617 V 61.40753 h 0.763629 v 1.511087 z M 8.5261976,59.899393 v -1.509612 h 0.7636279 v 1.509612 z m 28.4921304,0 v -1.509612 h 0.763628 v 1.509612 z m -14.234318,-0.0015 v -1.509611 h 0.763629 v 1.509611 z M 8.5261976,56.87866 v -1.509612 h 0.7636279 v 1.509612 z m 28.4921304,0 v -1.509612 h 0.763628 V 56.87866 Z M 22.78401,56.87715 v -1.509612 h 0.763629 v 1.509612 z m 0,-3.020698 V 52.34684 h 0.763629 v 1.509612 z m 0,-3.020698 v -1.509612 h 0.763629 v 1.509612 z m 0,-3.020697 v -1.509612 h 0.763629 v 1.509612 z"/>
  </g>
</svg>
