<?xml version="1.0" encoding="UTF-8"?>
<svg version="1.1" viewBox="0 0 100 100" xmlns="http://www.w3.org/2000/svg">
    <path d="m69.86 2.3308e-4c-0.13118 0.0044081-0.23564 0.041505-0.30273 0.10937-0.0021 0.00203-4e-3 0.003771-0.0059 0.005859l-11.973 12.598-2.4629 9.5117c-1.654-0.05321-3.3575-0.08984-5.1289-0.08984-12.47 0-22.58 1.3951-22.58 3.1152s10.11 3.1152 22.58 3.1152 22.58-1.3951 22.58-3.1152c0-1.2586-5.4396-2.335-13.229-2.8262l1.9629-7.9609 11.221-11.848c0.0037-0.00361 0.0063-0.00785 0.0098-0.011719 0.23744-0.26862-0.24336-1.0995-1.043-1.8125-0.59973-0.53472-1.2354-0.80424-1.6289-0.79102zm-15.652 25.729-0.02734 0.10938c-0.01331 0.02121-0.02148 0.04243-0.02148 0.06445 0 0.26136 0.96731 0.47266 2.1602 0.47266 1.1931 0 2.1602-0.2113 2.1602-0.47266l0.03516-0.14062c0.28411 0.116 0.48828 0.2485 0.48828 0.39844 0 0.40358-1.2014 0.73047-2.6836 0.73047-1.482 0-2.6816-0.32689-2.6816-0.73047 0-0.16421 0.23494-0.3096 0.57031-0.43164zm-26.514 1.1914 2.6641 24.52c0.1238-0.42227 0.26315-0.84348 0.41602-1.2637 0.31274-0.86115 0.67339-1.7029 1.084-2.5254 0.41085-0.82222 0.85828-1.5999 1.3418-2.332 0.48326-0.7319 0.99768-1.4056 1.543-2.0215 0.54555-0.61563 1.1051-1.1441 1.6797-1.5879 0.57436-0.44329 1.155-0.79134 1.7402-1.041 0.58552-0.24968 1.1659-0.375 1.7402-0.375 0.66156 0 1.3017 0.18117 1.9199 0.54297 0.61796 0.36154 1.1941 0.94831 1.7324 1.7578 0.12354 0.1809 0.20193 0.36378 0.23437 0.54883 0.03296 0.18531 0.04883 0.35993 0.04883 0.52344 0 0.38749-0.09204 0.69229-0.27734 0.91602-0.18531 0.22398-0.40581 0.33594-0.66016 0.33594-0.23307 0-0.44859-0.12192-0.64844-0.36719-0.2001-0.24552-0.42258-0.5962-0.66992-1.0527-0.23281-0.41345-0.48975-0.71313-0.76953-0.89844-0.28004-0.18505-0.58288-0.27734-0.91016-0.27734-0.50896 0-1.0529 0.2108-1.6309 0.63281-0.57825 0.42175-1.1519 0.97865-1.7188 1.6719-0.56735 0.69349-1.111 1.4854-1.6309 2.377-0.51986 0.89126-0.97896 1.8039-1.3789 2.7383-0.39995 0.93486-0.71864 1.8572-0.95508 2.7656-0.23644 0.90839-0.35352 1.7239-0.35352 2.4473 0 0.24137 0.01639 0.49057 0.04883 0.74414 0.03296 0.25435 0.09445 0.48455 0.18555 0.69141 0.09058 0.20685 0.21485 0.37662 0.37109 0.50977 0.1565 0.13392 0.35394 0.19922 0.59375 0.19922 0.26914 0 0.57394-0.09059 0.91602-0.27148 0.34155-0.18038 0.69746-0.41648 1.0645-0.70898 0.36725-0.29302 0.73654-0.62547 1.1074-0.99609 0.37114-0.3701 0.7154-0.74386 1.0352-1.123 0.31975-0.37867 0.60253-0.74324 0.84961-1.0918 0.24734-0.34882 0.43284-0.65166 0.55664-0.91016l1.0156-3.0371c0.12354-0.32702 0.28427-0.55945 0.48438-0.69727 0.19984-0.13782 0.40618-0.20703 0.61719-0.20703 0.10148 0 0.20269 0.01847 0.30469 0.05273 0.102 0.03452 0.19324 0.08722 0.27344 0.16016 0.07994 0.07345 0.14222 0.16862 0.18945 0.28516 0.04724 0.11601 0.07227 0.2513 0.07227 0.40625 0 0.41345-0.0367 0.802-0.10938 1.1641-0.07267 0.36206-0.1664 0.71393-0.2793 1.0586-0.11264 0.34415-0.23692 0.69024-0.375 1.0391-0.13808 0.34882-0.27375 0.71261-0.4043 1.0918-0.02907 0.04308-0.08163 0.18007-0.1582 0.4082-0.0763 0.22865-0.16808 0.51523-0.27734 0.85938-0.10901 0.34467-0.2283 0.72983-0.35547 1.1562-0.12743 0.42642-0.25814 0.86114-0.39258 1.3047-0.1347 0.44355-0.26318 0.87826-0.38672 1.3047-0.1238 0.42616-0.23418 0.81158-0.33203 1.1562-0.09811 0.34415-0.18043 0.63243-0.24609 0.86524-0.0654 0.23255-0.10461 0.37046-0.11914 0.41406-0.03634 0.1373-0.0961 0.28937-0.17578 0.45703-0.07994 0.16792-0.17394 0.32798-0.2832 0.47852-0.10901 0.15053-0.22831 0.27638-0.35938 0.375-0.13081 0.09889-0.26596 0.14844-0.4043 0.14844-0.23255 0-0.40075-0.07773-0.50586-0.23242-0.10563-0.1552-0.1582-0.44033-0.1582-0.85352v-0.17969c0-0.06047 0.0025-0.1251 0.0098-0.19336 7e-3 -0.13808 0.06206-0.39816 0.16406-0.77734 0.10174-0.37867 0.22327-0.80708 0.36524-1.2852 0.14171-0.47807 0.29547-0.97179 0.45898-1.4844 0.16325-0.51233 0.31034-0.97207 0.44141-1.377-0.38594 0.43084-0.80309 0.86069-1.2539 1.2871-0.45108 0.42616-0.91436 0.80844-1.3867 1.1484-0.47288 0.34026-0.94811 0.61857-1.4277 0.83398-0.47989 0.21516-0.94121 0.32227-1.3848 0.32227-0.50896 0-0.94694-0.11196-1.3145-0.33594-0.06618-0.04075-0.12912-0.0857-0.19141-0.13086l1.4824 15.543c0.38594 0.9673 7.6509 3.3438 17.23 3.3438 9.584 0 16.853-2.3792 17.232-3.3457l2.1289-18.479c-0.17623 0.16169-0.34769 0.31953-0.51172 0.47266-0.61096 0.56813-1.1869 1.0558-1.7285 1.4648-0.5414 0.40903-1.0717 0.72576-1.5879 0.94922-0.51648 0.22424-1.0693 0.33789-1.6582 0.33789-0.55256 0-0.97966-0.12217-1.2812-0.36328-0.30158-0.24085-0.45312-0.57187-0.45312-0.99414v-0.09766c0-0.03011 0.0042-0.06629 0.01172-0.10938 0.02881-0.25798 0.14168-0.55504 0.33789-0.89062 0.19621-0.3361 0.43283-0.68534 0.70898-1.0469 0.27641-0.3618 0.57007-0.72729 0.88281-1.0977 0.31274-0.3701 0.60363-0.72078 0.86914-1.0527 0.26525-0.33091 0.48379-0.63427 0.6582-0.91016 0.17493-0.27563 0.26172-0.49954 0.26172-0.67188 0-0.1033-0.03501-0.18536-0.10742-0.24609-0.07293-0.05969-0.19444-0.08984-0.36133-0.08984-0.29094 0-0.58984 0.07408-0.89844 0.22461-0.30937 0.15053-0.61638 0.35359-0.91797 0.60742-0.30158 0.25409-0.5955 0.54603-0.88281 0.87305-0.28679 0.32728-0.55567 0.66682-0.80664 1.0195-0.25097 0.35349-0.48013 0.70902-0.6875 1.0664-0.20737 0.35738-0.3837 0.68722-0.5293 0.98828-0.0436 0.09499-0.10535 0.22858-0.18555 0.40039-0.07994 0.17233-0.16725 0.36687-0.26172 0.58203-0.09473 0.21542-0.19346 0.43645-0.29883 0.66406-0.10537 0.22865-0.20186 0.4443-0.28906 0.64648-0.08721 0.20244-0.1656 0.38335-0.23438 0.54297-0.06956 0.1591-0.11937 0.26765-0.14844 0.32812-0.03634 0.07734-0.09612 0.22404-0.17969 0.43945-0.08357 0.21542-0.18032 0.46751-0.28906 0.75586-0.10901 0.28835-0.22358 0.59118-0.34375 0.91016-0.11939 0.3182-0.23252 0.6201-0.33789 0.9043-0.10563 0.28394-0.19766 0.53458-0.27734 0.75-0.07994 0.2149-0.1325 0.36185-0.1543 0.43945-0.07241 0.22398-0.15801 0.434-0.25586 0.63281-0.09837 0.19777-0.21046 0.37239-0.33789 0.52344-0.12717 0.15053-0.27178 0.27101-0.43555 0.36133-0.16377 0.09084-0.34756 0.13672-0.55078 0.13672-0.26214 0-0.47714-0.06292-0.64844-0.1875-0.17052-0.12484-0.25781-0.36408-0.25781-0.7168 0-0.17233 0.02281-0.35061 0.06641-0.53125 0.0436-0.1809 0.09866-0.35893 0.16406-0.53516 0.0654-0.17701 0.13214-0.34966 0.20117-0.51758 0.06878-0.16818 0.13353-0.32917 0.19141-0.48438 0.39294-0.86115 0.79226-1.724 1.1992-2.5898 0.40696-0.8653 0.7971-1.7219 1.1719-2.5703 0.07786-0.17701 0.15052-0.34942 0.22656-0.52539-0.02284 0.02232-0.04604 0.04461-0.06836 0.06641-0.47288 0.45679-0.94312 0.86016-1.4121 1.209-0.46925 0.34882-0.93528 0.62518-1.3965 0.83203-0.46198 0.20633-0.90916 0.31055-1.3457 0.31055-0.29795 0-0.5482-0.04785-0.74805-0.14258-0.2001-0.09499-0.35835-0.22347-0.47852-0.38672-0.12017-0.16351-0.20694-0.35805-0.25781-0.58203-0.01713-0.07656-0.0279-0.15665-0.03906-0.23633-0.12769 0.0994-0.25695 0.19719-0.38672 0.28906-0.45082 0.3182-0.89379 0.57396-1.3301 0.76758-0.43603 0.19388-0.82917 0.29102-1.1777 0.29102-0.34934 0-0.63303-0.11706-0.85156-0.34961-0.21801-0.23229-0.32617-0.62793-0.32617-1.1875 0-0.39658 0.05782-0.85776 0.17383-1.3828-0.18894 0.33584-0.42361 0.67734-0.70703 1.0215-0.28394 0.34467-0.60735 0.6589-0.9707 0.94336-0.36413 0.28394-0.7721 0.51297-1.2227 0.68945-0.45108 0.17648-0.94216 0.26562-1.4727 0.26562-0.24007 0-0.4695-0.02963-0.69141-0.08984-0.22191-0.06047-0.41684-0.16417-0.58398-0.31055-0.1674-0.14612-0.3023-0.34263-0.4043-0.58789-0.10174-0.24526-0.15234-0.55372-0.15234-0.92383 0-0.0086 0.0139-0.14018 0.04297-0.39453 0.02907-0.25409 0.12279-0.65432 0.2793-1.2012 0.15624-0.54659 0.39785-1.255 0.72461-2.125 0.32754-0.86972 0.7886-1.9242 1.3848-3.1641 0.15261-0.32754 0.32971-0.56311 0.5293-0.70508 0.20036-0.14223 0.41589-0.21289 0.64844-0.21289 0.102 0 0.2074 0.01507 0.31641 0.04492 0.10953 0.03037 0.21191 0.07795 0.30664 0.14258 0.09421 0.06462 0.17012 0.14721 0.22852 0.24609 0.05762 0.09888 0.08789 0.21255 0.08789 0.3418 0 0.08617-0.0114 0.16732-0.0332 0.24414-0.03659 0.14716-0.11499 0.33947-0.23438 0.57617-0.12017 0.23722-0.25979 0.50872-0.41992 0.81445-0.15962 0.30574-0.32977 0.63479-0.50781 0.98828-0.1783 0.35271-0.34348 0.71847-0.49609 1.0977-0.15261 0.37919-0.28357 0.76435-0.39258 1.1562-0.10901 0.3919-0.17127 0.77248-0.18555 1.1426 0 0.15494 0.03645 0.29653 0.10938 0.42578 0.07267 0.12925 0.19223 0.19531 0.35938 0.19531 0.47236 0 0.92424-0.15521 1.3535-0.46484 0.42876-0.31015 0.82363-0.69557 1.1875-1.1562 0.36361-0.46068 0.6937-0.95661 0.98828-1.4863 0.29458-0.52972 0.54012-1.0137 0.73633-1.4531 0.13833-0.2925 0.25986-0.60778 0.36523-0.94336 0.10537-0.3361 0.22021-0.64523 0.34375-0.92969 0.1238-0.28446 0.26369-0.52147 0.42383-0.71094 0.15962-0.1892 0.36006-0.28516 0.59961-0.28516 0.26214 0 0.46992 0.1008 0.62305 0.29883 0.15261 0.19829 0.22852 0.43361 0.22852 0.70898 0 0.15494-0.04812 0.36941-0.14648 0.64062-0.09837 0.27122-0.22212 0.58087-0.37109 0.92969-0.14924 0.34882-0.31218 0.72139-0.48633 1.1172-0.17441 0.39658-0.33592 0.79969-0.48438 1.209-0.14975 0.40903-0.27273 0.80927-0.37109 1.2012-0.09837 0.39164-0.14648 0.75426-0.14648 1.0898 0 0.31015 0.15876 0.4668 0.47852 0.4668 0.22554 0 0.5053-0.07722 0.83984-0.23242 0.33455-0.1552 0.68574-0.37425 1.0527-0.6543 0.09162-0.06982 0.18377-0.14219 0.27539-0.21875 0.10252-0.42279 0.22339-0.81266 0.36328-1.168 0.25435-0.67221 0.51156-1.3408 0.77344-2.0039 0.26162-0.66312 0.50217-1.2691 0.7207-1.8203l3.3047-8.332c0.13081-0.33584 0.30791-0.57312 0.5293-0.71094 0.22217-0.13756 0.44438-0.20703 0.66992-0.20703 0.22502 0 0.42966 0.07237 0.61523 0.21875 0.18557 0.14664 0.2793 0.38366 0.2793 0.71094 0 0.15494-0.03004 0.32011-0.0918 0.49219-0.06177 0.17233-0.1416 0.35666-0.23633 0.55469-0.18142 0.40514-0.39746 0.90081-0.64844 1.4863-0.25097 0.58578-0.51959 1.2233-0.80664 1.9121-0.28731 0.68908-0.58123 1.4055-0.88281 2.1504-0.30158 0.74514-0.59746 1.4696-0.88477 2.1758-0.28679 0.70646-0.55567 1.3765-0.80664 2.0098-0.25072 0.63302-0.46624 1.1816-0.64844 1.6465-0.07994 0.19803-0.15833 0.42875-0.23438 0.69141-0.07657 0.26239-0.11523 0.49822-0.11523 0.70508 0 0.12873 0.02281 0.23099 0.06641 0.30859 0.0436 0.0776 0.12646 0.11719 0.25 0.11719 0.15261 0 0.34309-0.05414 0.57226-0.16211 0.22892-0.10745 0.47668-0.2493 0.74219-0.42578 0.26577-0.17623 0.54133-0.37903 0.82812-0.60742 0.28757-0.22814 0.574-0.46541 0.85742-0.71094 0.28394-0.24578 0.55452-0.4908 0.8125-0.73633 0.25798-0.24526 0.48767-0.47088 0.69141-0.67773 0.04776-0.04957 0.10516-0.08511 0.16797-0.11133 0.12276-0.36673 0.2351-0.72671 0.33398-1.0781 0.05814-0.1552 0.1385-0.37375 0.24024-0.6582 0.10148-0.28446 0.2188-0.56421 0.34961-0.83984 0.13081-0.27537 0.27842-0.51462 0.44141-0.7168 0.16377-0.20218 0.34035-0.30469 0.5293-0.30469 0.29094 0 0.502 0.06803 0.63281 0.20117 0.13081 0.13392 0.19531 0.32939 0.19531 0.58789 0 0.05165-7e-3 0.13423-0.02148 0.24609-0.01479 0.11212-0.03289 0.23063-0.05469 0.35547-0.0218 0.12458-0.04488 0.24335-0.07031 0.35547-0.02569 0.11186-0.04851 0.19249-0.07031 0.24414 0.26862-0.29302 0.55835-0.58274 0.87109-0.87109 0.31274-0.28861 0.63616-0.54922 0.9707-0.78125 0.33481-0.23281 0.67605-0.42315 1.0254-0.57031 0.34856-0.14586 0.69805-0.21875 1.0469-0.21875 0.23981 0 0.47866 0.03448 0.71484 0.10352 0.23618 0.06878 0.44776 0.16933 0.63281 0.30274 0.18557 0.13392 0.33516 0.30147 0.45117 0.50391 0.11627 0.20218 0.17578 0.43801 0.17578 0.70508 0 0.35349-0.08927 0.73039-0.26758 1.1309-0.17804 0.40047-0.40078 0.80267-0.66992 1.207-0.26914 0.40514-0.56082 0.7983-0.87305 1.1816-0.31274 0.38334-0.60418 0.73257-0.87695 1.0469-0.27278 0.31482-0.50388 0.58121-0.68945 0.80078-0.18479 0.22009-0.2801 0.36771-0.28711 0.44531 0 0.1033 0.03225 0.18707 0.09766 0.25195 0.0654 0.06437 0.17356 0.09766 0.32617 0.09766 0.12354 0 0.30732-0.06922 0.54688-0.20703 0.23981-0.13782 0.57542-0.37654 1.0078-0.7168s0.98129-0.79634 1.6465-1.3691c0.45627-0.39242 0.99188-0.86026 1.5938-1.3926l2.8848-26.715c-0.46458 0.25642-0.9494 0.41751-1.2344 0.51172-1.1934 0.39398-2.8775 0.74554-5.0078 1.043-4.3 0.60057-10.008 0.93164-16.07 0.93164s-11.77-0.33107-16.07-0.93164c-2.13-0.29743-3.8142-0.64899-5.0078-1.043-0.28471-0.09421-0.76811-0.25581-1.2324-0.51172zm38.287 49.459c-0.91202 0.38645-2.1196 0.76386-3.627 1.127-2.177 0.52453-6.7039 1.4043-12.562 1.4043-5.8588 0-10.385-0.87977-12.562-1.4043-1.4887-0.35868-2.6837-0.73006-3.5918-1.1113l2.9023 4.959 1.1367 15.5c0 1.7376 5.5191 3.1465 12.328 3.1465 6.809 0 12.33-1.4089 12.33-3.1465l0.89844-15.668z" fill="#da4648" fill-rule="evenodd"/>
</svg>
