<?xml version="1.0" encoding="UTF-8"?>
<svg style="isolation:isolate" version="1.1" viewBox="0 0 100 100" xmlns="http://www.w3.org/2000/svg">
    <defs>
        <clipPath id="_clipPath_vrME4OFK32tGOycycDoEEos2EIPjsCYT">
            <rect width="100" height="100"/>
        </clipPath>
    </defs>
    <g clip-path="url(#_clipPath_vrME4OFK32tGOycycDoEEos2EIPjsCYT)">
        <path d="m70.695 70.734c-13.286 6.807-27.89 6.807-41.195 0-1.222-0.621-2.192-2.619-2.192-4.345v-4.441c0-1.746 0.989-2.58 2.192-1.959 13.285 6.807 27.89 6.807 41.195 0 1.222-0.621 2.191 0.232 2.191 1.959v4.441c0 1.726-0.969 3.724-2.191 4.345z" fill="#c1272d"/>
        <path d="m83.495 32.312c-0.194-3.394 0.175-6.42-1.318-9.019-3.685-6.4-12.976-10.085-31.789-10.085v0.194h-0.213 0.213v-0.194c-18.231 0-28.317 3.743-32.002 10.144-1.493 2.599-1.28 5.605-1.474 8.999-0.155 2.696-1.357 5.624-0.872 8.728 0.64 4.034 0.892 8.049 1.512 11.792 0.485 3.045 4.578 5.566 4.966 8.475 1.066 7.914 9.057 11.54 27.87 11.54v0.078h-0.252 0.252v-0.078c19.007 0 26.591-3.626 27.657-11.54 0.388-2.909 4.306-5.43 4.81-8.475 0.602-3.743 0.854-7.758 1.494-11.792 0.485-3.142-0.698-6.071-0.854-8.767z" fill="#efcca3"/>
        <path d="m70.695 74.671c-13.286 4.907-27.89 4.907-41.195 0-1.222-0.446-2.192-1.882-2.192-3.142v-3.2c0-1.261 0.989-1.862 2.192-1.416 13.285 4.907 27.89 4.907 41.195 0 1.222-0.446 2.191 0.155 2.191 1.416v3.2c0 1.241-0.969 2.676-2.191 3.142z" fill="#ed1c24"/>
        <circle cx="50.097" cy="76.319" r="1.8813" fill="#c1272d" vector-effect="non-scaling-stroke"/>
        <path d="m50.175 34.93c3.375 0.039 5.702 2.27 7.894 4.209 2.54 2.25 6.962 3.84 8.747 5.76 1.784 1.921 4.111 3.938 4.984 6.963 0.873 3.026 1.125 6.924 1.125 7.913 0 1.009 0.582 0.776 2.114 0 3.627-1.823 7.7-6.594 7.7-6.594-0.485 3.045-4.403 5.528-4.791 8.437-1.066 7.913-8.766 11.501-27.754 11.501h-0.116 0.291" fill="#ccac8d"/>
        <path d="m62.491 29.034c0.737 2.425 3.161 10.59-1.61 7.817 0 0 1.978 1.163 3.278 5.566 1.28 4.383 4.519 4.946 4.519 4.946s5.197 0.989 9.057-2.289c3.297-2.793 3.821-7.777 2.424-11.54-1.396-3.763-3.898-4.926-7.564-5.702-3.646-0.776-10.9-1.474-10.104 1.202z" fill="#ccac8d"/>
        <circle cx="71.742" cy="37.917" r="6.827" vector-effect="non-scaling-stroke"/>
        <circle cx="69.996" cy="34.872" r="1.7456" fill="#fff" vector-effect="non-scaling-stroke"/>
        <path d="m61.385 37.588s6.168 4.15 9.504 8.301c0 0 3.277 4.926 3.277 4.926l-2.366 1.047s-3.394-6.42-7.622-8.863c-4.228-2.425-4.752-4.461-4.752-4.461l1.959-0.95z" fill="#efcca3"/>
        <circle cx="50.097" cy="76.048" r="1.6098" fill="#ff931e" vector-effect="non-scaling-stroke"/>
        <circle cx="50.582" cy="76.61" r=".56246" fill="#ffb81e" vector-effect="non-scaling-stroke"/>
        <circle cx="50.097" cy="78.55" r="1.0861" fill="#ff931e" vector-effect="non-scaling-stroke"/>
        <circle cx="50.427" cy="78.918" r=".3879" fill="#ffb81e" vector-effect="non-scaling-stroke"/>
        <path d="m50.388 34.93c-3.375 0.039-5.799 2.27-7.991 4.209-2.54 2.25-7.021 3.84-8.805 5.76-1.784 1.921-4.15 3.938-5.023 6.963-0.873 3.026-1.145 6.924-1.145 7.913 0 1.009 0.175 1.087-2.114 0-3.665-1.726-7.719-6.594-7.719-6.594 0.485 3.045 4.403 5.528 4.791 8.437 1.066 7.913 8.766 11.501 27.735 11.501h0.252" fill="#ccac8d"/>
        <path d="m68.522 48.235c-3.743-4.616-9.716-8.844-17.979-8.844h-0.077c-8.263 0-14.236 4.228-17.979 8.844-3.86 4.694-3.608 6.595-3.608 11.114 0 16.311 5.722 11.482 9.542 13.44 3.899 1.921 7.875 1.145 12.045 1.145h0.077c4.17 0 8.146 0.717 12.045-1.203 3.82-1.959 9.542 2.968 9.542-13.344 0-4.519 0.252-6.458-3.608-11.152z" fill="#56332b"/>
        <path d="m50.117 43.387s-0.524 7.486-1.649 8.96l2.017-0.485-0.368-8.475z" fill="#442823"/>
        <path d="m50.64 43.387s0.524 7.486 1.649 8.96l-2.017-0.485 0.368-8.475z" fill="#442823"/>
        <path d="m44.143 41.641c-0.795-1.784 1.978-4.694 6.42-4.694 4.422 0 7.215 2.91 6.419 4.694-0.775 1.823-3.607 2.424-6.419 2.463-2.813-0.039-5.625-0.62-6.42-2.463z" fill="#56332b"/>
        <path d="m50.621 43.387c-0.02-0.33 2.657-0.369 4.034-1.319 0 0-2.89 0.911-3.51 0.562-0.64-0.349-0.757-1.26-0.815-1.26s-0.194 0.969-0.718 1.26c-0.523 0.291-3.801-0.562-3.801-0.562s4.344 1.047 4.325 1.299c-0.039 0.252-0.039 0.989-0.039 1.532 0 1.94 0.039 6.769 0.291 7.138 0.485 0.717 0.291-5.198 0.291-7.138-0.019-0.523-0.039-1.183-0.058-1.512z"/>
        <path d="m50.698 53.841c1.319 0 3.647 0.892 5.722 2.385-2.036-2.211-4.422-3.801-5.722-3.801-1.396 0-4.325 1.726-6.477 4.189 2.269-1.746 5.042-2.773 6.477-2.773z" fill="#7f4a41"/>
        <g fill="#442823">
            <path d="m50.214 67.514c-2.968 0-5.819-0.931-8.437-1.61-0.563-0.155-1.125 0.252-1.668 0.078-4.868-1.552-8.844-4.209-11.269-7.506 0 0.252 0.02 0.524 0.02 0.795 0 16.311 5.721 11.501 9.542 13.48 3.898 1.92 7.874 1.163 12.044 1.163h0.078c4.17 0 8.146 0.718 12.044-1.202 3.821-1.959 9.543 2.909 9.543-13.402 0-0.621 0.019-1.203 0.058-1.746-2.269 3.608-6.362 6.556-11.501 8.282-0.485 0.155-1.533-0.252-2.037-0.097-2.754 0.756-5.237 1.765-8.417 1.765z"/>
            <path d="m42.805 58.767s-1.959 5.818-0.621 8.378l-1.784-0.795s1.377-5.876 2.405-7.583z"/>
            <path d="m58.204 58.767s1.959 5.818 0.621 8.378l1.784-0.795s-1.377-5.876-2.405-7.583z"/>
        </g>
        <path d="m37.859 29.034c-0.737 2.425-3.161 10.59 1.61 7.817 0 0-1.979 1.163-3.278 5.566s-4.519 4.946-4.519 4.946-5.198 0.989-9.057-2.289c-3.298-2.793-3.821-7.777-2.425-11.54 1.397-3.763 3.899-4.926 7.564-5.702 3.646-0.776 10.92-1.474 10.105 1.202z" fill="#ccac8d"/>
        <path d="m50.505 52.425c2.055 0 8.592 4.48 8.708 10.046 0-0.097 0.019-0.194 0.019-0.271 0-5.702-5.295-10.318-8.727-10.318-3.433 0-8.728 4.616-8.728 10.318 0 0.097 0.019 0.194 0.019 0.271 0.117-5.585 6.633-10.046 8.709-10.046z"/>
        <path d="m51.3 40.673c-0.165-0.642-0.022-1.236 0.32-1.324s0.754 0.362 0.92 1.005c0.166 0.642 0.022 1.236-0.32 1.324s-0.754-0.362-0.92-1.005z" fill="#331712"/>
        <path d="m47.932 40.327c0.197-0.633 0.631-1.063 0.968-0.958 0.337 0.104 0.452 0.704 0.255 1.338s-0.63 1.063-0.968 0.959c-0.337-0.105-0.451-0.705-0.255-1.339z" fill="#331712"/>
        <circle cx="29.015" cy="37.917" r="6.827" vector-effect="non-scaling-stroke"/>
        <circle cx="30.76" cy="34.872" r="1.7456" fill="#fff" vector-effect="non-scaling-stroke"/>
        <path d="m52.541 37.975c0-0.058-1.765 0.776-2.269 0.834-0.504-0.077-2.269-0.892-2.269-0.834 0-0.038 1.474-0.019 2.269 0.02 0.795-0.039 2.288-0.039 2.269-0.02z" fill="#7f4a41"/>
        <path d="m38.984 37.588s-6.168 4.15-9.504 8.301c0 0-3.277 4.926-3.277 4.926l2.366 1.047s3.394-6.42 7.622-8.863l4.752-4.461-1.959-0.95z" fill="#efcca3"/>
        <g fill="#ccac8d">
            <path d="m25.543 25.194s-2.056 5.722-6.749 8.146c0.019 0 7.253-0.853 6.749-8.146z"/>
            <path d="m74.457 25.194s2.056 5.722 6.75 8.146c0 0-7.254-0.853-6.75-8.146z"/>
            <path d="m61.094 35.92s-4.519-4.83-10.686-4.946v-0.02c-0.039 0 0.038 0 0 0-0.039 0 0 0 0 0v0.02c-6.013 0.116-10.706 4.946-10.706 4.946 5.333-3.744 10.318-3.647 10.706-3.627 0 0-0.02 0 0 0 0.019 0 0 0 0 0 0.562-0.039 5.353-0.117 10.686 3.627z"/>
            <path d="m55.741 25.795s-2.269-3.277-5.353-3.355c-0.019 0 0.02 0 0 0-0.019 0 0 0 0 0-2.715 0.078-5.353 3.355-5.353 3.355 2.677-2.54 5.353-2.482 5.353-2.463 0.582-0.019 2.677-0.077 5.353 2.463z"/>
            <path d="m28.995 49.651s-3.665 1.804-6.264 0.718h0.019 0.039 0.058c-2.715-1.338-3.568-5.256-3.568-5.256s2.191 6.885 9.716 4.538z"/>
            <path d="m71.529 49.651s3.665 1.804 6.264 0.718h-0.019 0.194 0.155c2.715-1.338 3.336-5.256 3.336-5.256s-2.405 6.885-9.93 4.538z"/>
            <path d="m50.369 28.2s0.019 0 0 0z"/>
            <path d="m33.204 24.767c2.037-0.426 5.334-0.504 7.972 0.427 3.355 1.164 0.659 5.431 1.338 5.663 0.679 0.233 1.59-2.948 7.835-2.657 6.246 0.291 7.002 3.065 7.855 2.657 0.854-0.407-0.834-7.796 8.554-6.09 0 0-9.853-2.637-9.388 4.5 0 0-5.624-4.383-13.576-0.446 0.019 0 2.075-6.653-10.59-4.054z"/>
            <path d="m67.592 24.787c0.116 0.019 0.232 0.058 0.349 0.077 0 0-0.117-0.038-0.349-0.077z"/>
            <path d="m67.533 24.767c0.02 0 0.039 0 0.059 0.02-0.02-0.02-0.039-0.02-0.059-0.02z"/>
            <path d="m30.508 15.264s-8.378 10.531-9.639 14.604c0 0-2.153 20.928-3.258 23.313l-3.918-16.563 7.157-17.301 9.658-4.053z"/>
            <path d="m69.9 15.264s8.378 10.531 9.639 14.604c0 0 2.153 20.928 3.258 23.313l3.918-16.563-7.157-17.301-9.658-4.053z"/>
        </g>
        <path d="m69.492 15.264s9 7.525 11.598 16.214c0 0 1.533 19.24 3.569 20.598 2.871 1.9 6.129-9.194 7.215-10.396 1.687-1.843 7.39-6.594 7.758-7.448 0.369-0.853-11.482-13.79-16.699-16.35-6.187-3.025-13.945-3.297-13.441-2.618z" fill="#56332b"/>
        <path d="m77.192 19.899s10.629 13.577 10.435 30.47l4.247-8.689s-3.724-11.113-14.682-21.781z" fill="#442823"/>
        <path d="m30.508 15.264s-8.999 7.525-11.598 16.214c0 0-1.532 19.24-3.569 20.598-2.87 1.9-6.128-9.194-7.215-10.396-1.687-1.843-7.389-6.594-7.758-7.448-0.368-0.853 11.482-13.79 16.7-16.35 6.187-3.025 13.945-3.297 13.44-2.618z" fill="#56332b"/>
        <path d="m22.808 19.899s-10.628 13.577-10.434 30.47l-4.248-8.689s3.724-11.113 14.682-21.781z" fill="#442823"/>
        <path d="m17.029 50.718s0.737 4.209 2.036 5.528l0.408-1.009s-1.281-0.698-1.067-6.071c0.213-5.391-1.377 1.552-1.377 1.552z" fill="#ccac8d"/>
        <path d="m83.282 50.718s-0.737 4.209-2.036 5.528l-0.408-1.009s1.28-0.698 1.067-6.071c0 0 1.377 1.552 1.377 1.552z" fill="#ccac8d"/>
        <path d="m55.198 82.855c0.601-0.31 1.047-0.872 1.183-1.571 0.214-1.202-0.582-2.346-1.784-2.56-1.106-0.194-2.153 0.466-2.483 1.513-1.454-0.427-2.967-0.679-4.48-0.795 0.058-1.086-0.698-2.075-1.804-2.289-1.202-0.213-2.346 0.582-2.56 1.785-0.136 0.717 0.097 1.396 0.563 1.881-0.602 0.31-1.048 0.873-1.183 1.571-0.214 1.202 0.581 2.347 1.784 2.56 1.086 0.194 2.114-0.446 2.463-1.435 1.474 0.407 2.987 0.679 4.5 0.795-0.02 1.067 0.737 2.017 1.803 2.211 1.203 0.213 2.347-0.582 2.561-1.784 0.116-0.698-0.117-1.377-0.563-1.882z" fill="#ffb81e"/>
        <path d="m53.588 86.793c-0.135 0-0.291-0.02-0.426-0.039-1.106-0.194-1.92-1.125-1.998-2.231-1.396-0.135-2.793-0.387-4.151-0.737-0.446 1.009-1.532 1.591-2.637 1.397-1.319-0.233-2.192-1.494-1.959-2.812 0.116-0.66 0.504-1.242 1.067-1.591-0.408-0.543-0.563-1.202-0.447-1.862 0.117-0.64 0.466-1.183 1.009-1.571 0.524-0.368 1.183-0.504 1.804-0.388 1.125 0.194 1.959 1.164 1.997 2.289 1.397 0.116 2.774 0.368 4.112 0.737 0.427-1.047 1.532-1.668 2.657-1.455 0.64 0.117 1.183 0.466 1.571 1.009 0.369 0.524 0.505 1.183 0.408 1.804-0.117 0.659-0.505 1.241-1.067 1.59 0.407 0.543 0.562 1.203 0.446 1.862-0.116 0.64-0.466 1.183-1.009 1.571-0.407 0.271-0.872 0.427-1.377 0.427zm-6.846-3.55 0.194 0.059c1.454 0.407 2.948 0.659 4.461 0.795l0.213 0.019v0.213c-0.019 0.97 0.659 1.804 1.629 1.979 0.524 0.097 1.048-0.02 1.474-0.33 0.427-0.31 0.718-0.756 0.815-1.28 0.116-0.621-0.078-1.241-0.504-1.687l-0.214-0.214 0.272-0.136c0.562-0.29 0.95-0.795 1.066-1.415 0.097-0.524-0.019-1.048-0.329-1.474-0.311-0.427-0.757-0.718-1.28-0.815-0.97-0.175-1.94 0.407-2.231 1.358l-0.058 0.213-0.213-0.058c-1.436-0.407-2.929-0.679-4.422-0.795l-0.214-0.02 0.02-0.213c0.058-0.989-0.64-1.881-1.629-2.056-0.524-0.097-1.048 0.019-1.474 0.33-0.427 0.31-0.718 0.756-0.815 1.28-0.116 0.62 0.078 1.241 0.504 1.687l0.214 0.214-0.272 0.135c-0.562 0.291-0.95 0.796-1.067 1.416-0.194 1.067 0.524 2.095 1.591 2.289 0.95 0.174 1.881-0.369 2.211-1.3l0.058-0.194z" fill="#ff931e"/>
        <circle cx="45.927" cy="78.744" r=".83398" fill="#fc6" vector-effect="non-scaling-stroke"/>
        <circle cx="54.034" cy="84.756" r=".83398" fill="#fc6" vector-effect="non-scaling-stroke"/>
        <g fill="#ff931e">
            <circle cx="49.515" cy="81.847" r=".50427" vector-effect="non-scaling-stroke"/>
            <circle cx="45.539" cy="81.246" r=".50427" vector-effect="non-scaling-stroke"/>
            <circle cx="53.491" cy="82.642" r=".50427" vector-effect="non-scaling-stroke"/>
        </g>
        <g fill="#442823">
            <circle cx="42.456" cy="47.498" r=".60124" vector-effect="non-scaling-stroke"/>
            <circle cx="38.887" cy="51.28" r=".60124" vector-effect="non-scaling-stroke"/>
            <circle cx="37.684" cy="47.498" r=".60124" vector-effect="non-scaling-stroke"/>
            <circle cx="57.545" cy="47.498" r=".60124" vector-effect="non-scaling-stroke"/>
            <circle cx="61.114" cy="51.28" r=".60124" vector-effect="non-scaling-stroke"/>
            <circle cx="62.316" cy="47.498" r=".60124" vector-effect="non-scaling-stroke"/>
        </g>
    </g>
</svg>
