<?xml version="1.0" encoding="UTF-8"?>
<svg version="1.1" viewBox="0 0 100 100" xmlns="http://www.w3.org/2000/svg">
    <path d="m60.218 57.038c3.255-1.616 8.086-11.615 11.265-17.094 0.229-0.404 0.636-0.076 0.407 0.202-8.036 13.735-4.628 15.326-1.449 15.124 4.246-0.252 8.162-6.312 9.027-7.675 0.356-0.531 0.559-0.101 0.356 0.277-0.204 0.632-0.941 1.742-1.628 3.257-0.966 2.146 0.051 2.98 0.89 3.358 1.323 0.632 4.934 0.228 5.493-1.969-3.611-0.076 5.035-16.992 5.925-18.027-2.416-1.389-6.154 0.126-7.858 3.459-3.636 7.145-6.687 12.902-8.595 13.003-3.712 0.202 4.273-15.932 5.569-16.437-0.788-1.136-5.848-0.657-8.671 3.686-1.017 1.566-7.222 12.473-8.748 14.266-2.695 3.181-2.898 0.454-2.136-2.727 0.255-1.086 0.687-2.475 1.246-4.015 1.78-3.989 3.688-5.252 4.857-6.539 7.858-8.66 12.359-15.68 10.579-18.432-1.577-2.449-6.84-1.363-10.223 3.687-6.23 9.266-11.977 21.966-12.714 27.773-0.712 5.807 3.535 6.236 6.408 4.823zm3.306-16.993c0.28-0.631 0.458-0.808 0.941-1.868 2.797-6.11 6.306-12.549 8.722-15.553 1.5-1.566 3.611 0.555-0.204 6.362-2.237 3.434-4.78 6.59-7.552 9.368v0.025c-0.712 0.783-1.348 1.439-1.627 1.818-0.204 0.252-0.433 0.202-0.28-0.152zm35.117 18.356c-11.672-1.515-36.846 0.505-47.959 3.434-3.306 0.858-2.39 2.6-0.712 2.272 0.025 0 0.738-0.177 0.763-0.177 9.129-1.767 31.278-3.307 44.196-0.858 1.551 0.278 6.204-4.343 3.712-4.671zm-41.678-21.386c-1.856-1.464-7.069 0.985-8.544 4.621-1.856 4.62-4.603 11.362-7.298 14.316-2.848 3.105-3.128 0.707-2.848-1.086 0.661-4.216 4.806-13.988 7.069-16.74-0.839-1.237-6.332-1.06-10.146 4.823-1.424 2.222-4.679 9.62-8.29 15.452-0.788 1.262-1.78 0.379-1.017-2.575 0.864-3.409 3.407-12.776 6.688-20.149 8.595-1.691 17.724-2.878 24.717-2.903 0.941-0.253 1.576-1.086 0-1.137-6.027-0.202-15.08 0.505-23.548 1.566 1.628-3.232 3.382-5.807 5.162-6.893-1.932-1.212-5.848-0.732-8.086 2.55-0.992 1.465-1.984 3.232-2.924 5.151-6.205 0.959-11.52 2.045-14.215 3.055-2.798 1.06-2.492 4.418-0.789 3.787 3.535-1.313 8.316-2.676 13.63-3.888-3.382 7.574-6.026 16.512-6.662 20.148-1.577 8.837 3.941 8.787 6.637 5.302 2.924-3.812 9.027-17.219 9.968-18.633 0.28-0.48 0.661-0.227 0.458 0.202-6.815 13.508-6.23 18.734-0.712 17.573 2.492-0.53 6.789-4.772 7.908-6.969 0.229-0.53 0.712-0.479 0.611-0.252-4.323 11.135-9.816 20.148-13.503 22.976-3.357 2.55-5.849-2.979 6.027-10.907 1.754-1.187 0.94-2.803-1.043-2.247-6.129 0.959-23.675 6.488-31.38 11.791-0.585 0.404-1.119 0.732-1.093 1.565 0.025 0.48 0.865 0.303 1.271 0.051 9.969-5.934 18.131-8.257 27.489-10.201 0.127 0.051 0.28 0.076 0.407 0.025 0.432-0.101 0.407 0.127 0.127 0.303-0.635 0.354-1.271 0.682-1.424 0.733-6.306 2.449-10.121 7.852-8.773 10.604 1.144 2.373 7.324 1.515 10.248-0.05 7.171-3.864 12.384-11.438 15.944-21.891 3.103-9.266 7.019-19.77 7.934-20.073zm33.973 6.388c0.992 2.424 2.492 4.823 1.602 6.944-0.737 1.818-1.703 2.575-2.771 2.752-1.501 0.252-1.094-4.419 1.475-5.807 0.228-0.127 0.559-0.733 0.254-1.086-3.255-0.177-5.086 1.363-6.078 3.408-2.873 5.984 6.51 7.626 11.113 1.743 1.831-2.349 1.907-4.671 0.152-8.888-1.119-2.676-2.822-4.671-1.754-6.438 1.144-1.869 3.89-0.253 1.831 2.247l0.457 0.252c2.67 0.152 3.764-3.383 1.73-4.267-5.366-2.272-10.376 3.459-8.011 9.14zm-75.524 23.532c2.594-3.08 2.899-6.262 0.89-12.17-1.272-3.737-3.382-6.615-1.831-8.938 1.653-2.474 5.162-0.076 2.238 3.232l0.585 0.404c3.509 0.404 5.238-4.368 2.619-5.731-6.917-3.586-12.969 3.307-10.299 11.286 1.144 3.383 2.746 6.968 1.45 9.821-1.119 2.449-3.281 3.889-4.73 3.939-3.026 0.152-1.017-6.741 2.466-8.458 0.305-0.152 0.738-0.354 0.331-0.859-4.298-0.479-6.815 1.49-8.265 4.242-4.221 8.004 8.011 10.958 14.546 3.232z"/>
</svg>
