<?xml version="1.0" encoding="UTF-8"?>
<svg version="1.1" viewBox="0 0 100 100" xmlns="http://www.w3.org/2000/svg">
    <path d="m95.891 59.936c5.4787-5.4784 5.4785-14.393-1.76e-4 -19.871-2.6539-2.6539-6.1828-4.1153-9.9362-4.1153-0.89121 0-1.7687 0.08124-2.6245 0.24142 3.7296-2.551 6.1465-6.8405 6.1465-11.61 0-7.7477-6.3037-14.051-14.052-14.051-4.7796 0-9.0769 2.4264-11.626 6.1683 0.84345-4.4483-0.47953-9.2026-3.8591-12.582-2.6539-2.6539-6.1828-4.1155-9.9362-4.1155-3.7534 0-7.2823 1.4616-9.9362 4.1155-3.3798 3.3794-4.7026 8.1338-3.8591 12.582-2.5492-3.7419-6.8466-6.1684-11.626-6.1684-7.7482 0-14.052 6.3032-14.052 14.051 0 4.7699 2.4167 9.0593 6.1463 11.61-0.85579-0.16001-1.7329-0.24125-2.6243-0.24125-3.7534 0-7.2821 1.4616-9.9362 4.1155-2.6541 2.6539-4.1157 6.1825-4.1157 9.9355 0 3.7531 1.4617 7.2816 4.1157 9.9357 2.6541 2.6537 6.1829 4.1153 9.9362 4.1153 0.89121 0 1.7683-0.08124 2.6243-0.24142-3.7296 2.551-6.1463 6.8405-6.1463 11.61 0 7.7477 6.3037 14.051 14.052 14.051 4.7796 0 9.0772-2.4264 11.626-6.1683-0.84345 4.4485 0.47953 9.203 3.8591 12.582 2.6541 2.6537 6.1829 4.1153 9.9362 4.1153 3.7534 0 7.2823-1.4616 9.9362-4.1155 3.3796-3.3794 4.7024-8.134 3.859-12.582 2.5492 3.7419 6.8466 6.1684 11.626 6.1684 7.7482 0 14.052-6.3031 14.052-14.051 0-4.7698-2.4169-9.0593-6.1463-11.61 0.85579 0.16018 1.7331 0.24142 2.6243 0.24142 3.7534 0 7.2823-1.4616 9.9364-4.1155"/>
    <path d="m91.651 44.302c-3.1473-3.1469-8.2502-3.1469-11.398 0h-16.495l11.664-11.663c4.4509 0 8.0591-3.6079 8.0591-8.0588 0-4.4506-3.6082-8.0588-8.0591-8.0588-4.4511 0-8.0593 3.6081-8.0593 8.0588l-11.663 11.663v-16.494c3.1472-3.1471 3.1472-8.2496-1.76e-4 -11.397-3.1473-3.1471-8.2502-3.1471-11.397 0-3.1473 3.1471-3.1473 8.2496 0 11.397v16.494l-11.663-11.663c0-4.4506-3.6082-8.0588-8.0593-8.0588-4.4509 0-8.0593 3.6081-8.0593 8.0588 0 4.4508 3.6084 8.0588 8.0593 8.0588l11.663 11.663h-16.495c-3.1475-3.1471-8.2503-3.1469-11.398 1.75e-4 -3.1473 3.1471-3.1473 8.2496 0 11.397 3.1473 3.1471 8.2503 3.1471 11.398 0h16.495l-11.663 11.663c-4.4509 0-8.0593 3.6079-8.0593 8.0588 0 4.4506 3.6084 8.0588 8.0593 8.0588 4.4511 0 8.0593-3.6081 8.0593-8.0588l11.663-11.663v16.493c-3.1473 3.1471-3.1473 8.2498 0 11.397 3.1473 3.1471 8.2503 3.1471 11.398 0 3.1472-3.1471 3.1472-8.2498 0-11.397v-16.493l11.663 11.663c0 4.4506 3.6082 8.0588 8.0593 8.0588 4.4509 0 8.0591-3.6081 8.0591-8.0588 0-4.4508-3.6082-8.0588-8.0591-8.0588l-11.664-11.663h16.495c3.1473 3.1471 8.2502 3.1471 11.398 0 3.1473-3.1471 3.1473-8.2498 0-11.397" fill="#FFB13B"/>
</svg>
