<?xml version="1.0" encoding="utf-8"?>
<svg version="1.1" width="100" height="100" viewBox="0 0 100 100" xmlns="http://www.w3.org/2000/svg">
  <g transform="matrix(1.3333333,0,0,-1.3333333,0,100)">
    <path style="fill: #d66955;" d="M 81.298828,45.5 C 80.864947,45.748378 80.432558,45.999331 80,46.25 l 0.5,0.867188 0.548828,-0.31836 -0.04102,-0.07031 h 0.291016 c -10e-7,-0.409506 2e-6,-0.819012 4e-6,-1.228518 z m -3.03125,1.75 -0.867187,0.5 0.5,0.867188 0.867187,-0.5 z m 2.03125,1.478516 v 1 h 1 v -1 z m -4.628906,0.02148 -0.865234,0.5 0.5,0.867188 0.865234,-0.5 z m -2.59961,1.5 -0.865234,0.5 0.5,0.867188 0.865234,-0.5 z m 7.228516,1.478516 v 1 h 1 v -1 z m -9.824219,0.02148 -0.867187,0.5 0.5,0.867188 0.867187,-0.5 z m 13.917969,1.308594 -1.042969,0.376953 c -0.817094,1.726705 -1.22963,2.764464 -2.615234,5.625 -1.753148,-2.107171 -2.286715,-2.76069 -2.869141,-3.503906 l -0.789062,0.566406 3.658203,4.492187 z M 67.875,53.25 l -0.865234,0.5 0.5,0.867188 0.865234,-0.5 z m -2.599609,1.5 -0.863282,0.5 0.5,0.867188 0.863282,-0.5 z m -2.595703,1.5 c -0.288927,0.16512 -0.576866,0.331958 -0.865235,0.498047 v 0.582031 h 0.669922 l 0.08008,0.140625 c 0.205289,-0.116395 0.425051,-0.244235 0.615235,-0.353515 z m -0.865235,3.080078 v 1 h 1 v -1 z m 18.484375,2.054688 v 1 h 1 v -1 z m -18.484375,0.945312 v 1 h 1 v -1 z m 18.484375,2.054688 v 1 h 1 v -1 z m -17.945312,0.05273 -3.658204,7.556641 1.041016,-0.376953 c 0.817095,-1.726706 1.231584,-2.764465 2.617188,-5.625 1.753148,2.10717 2.284762,2.76069 2.867187,3.503906 l 0.791016,-0.566406 z m 18.195312,2.806641 c -0.204798,0.120472 -0.402477,0.23406 -0.611315,0.355509 l 0.5,0.863282 c 0.285946,-0.167387 0.574125,-0.330896 0.861328,-0.496094 0,-0.19401 0,-0.388021 0,-0.582031 h -0.667969 z m -2.34375,1.355468 -0.867187,0.5 0.5,0.863282 0.867187,-0.5 z m -2.597656,1.5 -0.865234,0.5 0.5,0.863282 0.865234,-0.5 z m -2.597656,1.5 -0.867188,0.5 0.5,0.863282 0.867188,-0.5 z m -11.195313,0.384766 v 1 h 1 v -1 z m 8.597656,1.115234 -0.867187,0.5 0.5,0.863282 0.867187,-0.5 z m -2.599609,1.5 -0.865234,0.5 0.5,0.863282 0.865234,-0.5 z m -5.998047,0.384766 v 1 h 1 v -1 z m 3.402344,1.115234 -0.867188,0.5 0.5,0.863282 0.867188,-0.5 z m -2.599609,1.5 -0.552735,0.316407 0.03906,0.06836 H 61.81445 c 0,0.410807 0,0.821615 0,1.232422 0.43326,-0.253007 0.868084,-0.503304 1.302735,-0.753906 z" transform="matrix(0.75000002,0,0,-0.75000002,0,75.000002)"/>
    <path style="fill: rgb(115, 115, 115);" d="M 37.499773,75.000002 5.2964699,56.405589 h -0.00112 a 0.38210496,0.38210496 0 0 1 -0.1723778,-0.09962 l -0.098502,-0.05709 V 56.13359 a 0.38210496,0.38210496 0 0 1 0,-0.197003 V 18.74888 L 37.262474,0.13655842 a 0.38210496,0.38210496 0 0 1 0.09738,-0.05599189 L 37.499773,1.16602e-7 37.637451,0.07947191 a 0.38210496,0.38210496 0 0 1 0.10186,0.0593216 0.38210496,0.38210496 0 0 1 0.0022,0.001146 L 69.975077,18.74888 v 37.186587 a 0.38210496,0.38210496 0 0 1 0,0.200362 v 0.113052 l -0.09851,0.05709 a 0.38210496,0.38210496 0 0 1 -0.172377,0.09962 l -13.100711,7.564474 -4.236688,2.44575 -1.11262,0.642498 z m 0,-0.884276 L 50.48855,66.616174 19.160568,48.52882 6.1695521,56.028373 Z M 51.254176,66.176274 55.074471,63.970063 23.363675,45.66108 V 35.514298 L 19.542262,37.71939 V 47.867292 Z M 55.838977,63.529044 68.829994,56.028373 37.499773,37.941019 24.509876,45.440571 Z M 5.7878585,55.366845 18.778874,47.867292 V 37.279491 l 5.348189,-3.089368 v 10.58892 L 37.118079,37.279491 V 1.1025416 L 5.7878585,19.191018 Z m 63.4238255,0 V 19.191018 L 37.881467,1.1025416 V 37.279491 Z"/>
  </g>
</svg>
