<?xml version="1.0" encoding="utf-8"?>
<svg version="1.1" width="100" height="100" viewBox="0 0 100 100" xmlns="http://www.w3.org/2000/svg">
  <g transform="matrix(1.3333333,0,0,-1.3333333,0,100)">
    <path style="fill: rgb(115, 115, 115);" d="m 20.122559,75.000002 4.382813,-2.610352 -3.389649,-1.958496 c -8e-6,-2.955862 0,-5.950478 0,-8.919434 0.0077,-0.213384 0.03801,-0.244332 0.240269,-0.355957 L 28.78568,56.86377 c 0.166315,-0.113408 0.280713,-0.108835 0.430664,-0.03077 l 7.482422,4.321289 c 0.133681,0.05127 0.226762,0.173865 0.240234,0.316407 4e-6,9.75e-4 4e-6,0.002 0,0.0029 0.0015,0.01166 0.0025,0.0234 0.0029,0.03515 v 0.0015 0.0015 3.697265 L 54.653322,54.984376 51.498048,53.165041 c -0.145309,-0.05791 -0.239741,-0.199555 -0.237305,-0.355958 v -8.919434 c 2.632493,-1.520604 5.289202,-3.054292 7.913087,-4.570312 2.627396,1.51783 5.277287,3.048401 7.913086,4.570312 v 3.915528 L 73.492677,44.106447 43.346193,26.702638 75.000002,8.2558592 V 9.125977 l -30.14502,17.576661 30.14502,17.403809 -11.680665,6.74414 v 4.352051 c -1.380143,0.795361 -2.763797,1.594693 -4.145507,2.39209 L 55.406251,55.4209 36.941895,66.080568 v 4.350586 l -7.913086,4.568848 -3.767578,-2.175293 -3.637207,2.175293 z m 8.90625,-0.871582 6.780762,-3.915528 -6.780762,-3.914062 -6.783691,3.914062 c 2.268417,1.306448 4.517855,2.607445 6.783691,3.915528 z M 0,70.00342 V 69.131838 L 43.346193,44.106447 17.723145,29.311524 13.954102,31.488282 C 11.428231,30.025164 8.6196152,28.411613 6.2739205,27.052764 6.0558602,26.935627 6.0423616,26.843432 6.0410102,26.60013 V 22.567415 L 0,19.07959 v -0.870117 l 6.0410158,3.489258 v -3.916993 l 7.6743162,-4.431152 c 0.152953,-0.08526 0.254446,-0.113735 0.427735,-0.02782 l 7.725586,4.458984 c 1.16e-4,2.975129 0,5.946576 0,8.920902 0.0011,0.156969 -0.09517,0.298197 -0.241699,0.354492 l -3.150879,1.819327 26.378907,15.229981 z M 21.868653,69.559572 28.65088,65.644045 V 57.81299 l -6.782227,3.916992 z m 14.318848,0 c -3.5e-4,-2.612235 0,-5.219243 0,-7.831054 L 29.405274,57.81299 v 7.831055 z M 59.17383,56.724611 62.187014,54.984376 59.17383,53.244142 56.159181,54.984376 Z m -3.767579,-2.175293 3.014649,-1.740235 -3.014649,-1.741699 -3.016113,1.741699 z m 7.158692,-0.218262 v -3.479004 l -3.014648,-1.740234 v 3.480469 z m -10.55127,-2.173828 3.016114,-1.741699 v -3.481934 l -3.016114,1.7417 z m 6.783692,0 V 48.675295 L 55.782716,46.93506 v 3.480469 z m 4.144043,-1.958496 3.014648,-1.741699 -6.782226,-3.915528 -3.014649,1.740234 c 2.269178,1.305059 4.51667,2.608674 6.782227,3.916993 z m -10.927735,-2.393555 6.783692,-3.915528 v -3.481933 l -6.783692,3.915527 z m 14.320313,0 v -3.480469 l -6.783691,-3.916992 v 3.481933 z m -52.379884,-17.187012 3.016113,-1.741699 -3.014648,-1.73877 -3.016113,1.73877 z m -3.767578,-2.175293 3.014648,-1.7417 -3.014648,-1.740234 -3.0146488,1.7417 z m 7.536621,0 3.014649,-1.740234 c -1.00503,-0.580313 -2.010222,-1.160344 -3.014649,-1.7417 l -3.014649,1.7417 z M 13.954102,26.266114 16.970215,24.52588 13.954102,22.785645 10.940919,24.52588 Z M 6.7954104,26.049317 9.8100588,24.309082 v -3.481933 l -3.0146484,1.740235 z m 14.3203126,0 v -3.481933 l -3.016114,-1.73877 v 3.480468 z M 10.562988,23.874024 13.577637,22.13379 v -3.481934 l -3.014649,1.741699 z m 6.783692,-0.0015 V 20.392055 L 14.332032,18.651821 V 22.13229 Z M 6.7954104,21.697231 C 9.058927,20.391209 11.315246,19.088297 13.577637,17.7817 v -3.480469 l -6.7822274,3.914063 z m 14.3203126,0 v -3.481934 l -6.783691,-3.914063 v 3.480469 c 2.267902,1.305429 4.519681,2.608761 6.783691,3.915528 z M 29.028809,18.435059 0,1.6757813 V 0.80419952 L 29.028809,17.564942 59.450685,0 h 1.50586 z"/>
    <path style="fill: #d66955;" d="m 40.195833,56.752443 -0.177308,-6.839356 0.748632,0.648926 0.140532,5.468262 5.83538,-0.294434 0.748632,0.648927 z M 59.44922,14.780274 52.728517,14.455079 52.97461,8.4096685 53.623537,9.04834 l -0.197754,4.833985 5.374512,0.260742 z"/>
  </g>
</svg>
